{
DisplayStrings = (
"Helvetica New\012\012The quick brown fox jumps over the lazy dog.",
a,
"\U00A1"
);
customParameters = (
{
name = description;
value = "Helvetica (Latin for Swiss) has the objective and functional style which was associated with Swiss typography in the 1950s and 1960s. It is perfect for international correspondence: no ornament, no emotion, just clear presentation of information. Helvetica is still one of the best selling sans-serif fonts.";
},
{
name = vendorID;
value = LINO;
},
{
name = glyphOrder;
value = (
    ".notdef",
    uni0000,
    uni000D,
    controlBS,
    controlHT,
    controlCR,
    controlGS,
    space,
    exclam,
    quotedbl,
    numbersign,
    dollar,
    percent,
    ampersand,
    quotesingle,
    parenleft,
    parenright,
    asterisk,
    plus,
    comma,
    hyphen,
    period,
    slash,
    zero,
    one,
    two,
    three,
    four,
    five,
    six,
    seven,
    eight,
    nine,
    colon,
    semicolon,
    less,
    equal,
    greater,
    question,
    at,
    A,
    B,
    C,
    D,
    E,
    F,
    G,
    H,
    I,
    J,
    K,
    L,
    M,
    N,
    O,
    P,
    Q,
    R,
    S,
    T,
    U,
    V,
    W,
    X,
    Y,
    Z,
    bracketleft,
    backslash,
    bracketright,
    asciicircum,
    underscore,
    grave,
    a,
    b,
    c,
    d,
    e,
    f,
    g,
    h,
    i,
    j,
    k,
    l,
    m,
    n,
    o,
    p,
    q,
    r,
    s,
    t,
    u,
    v,
    w,
    x,
    y,
    z,
    braceleft,
    bar,
    braceright,
    asciitilde,
    "uni007F.controlDEL",
    uni00A0,
    exclamdown,
    cent,
    sterling,
    currency,
    yen,
    brokenbar,
    section,
    dieresis,
    copyright,
    ordfeminine,
    guillemotleft,
    logicalnot,
    uni00AD,
    registered,
    macron,
    degree,
    plusminus,
    twosuperior,
    threesuperior,
    acute,
    mu,
    paragraph,
    periodcentered,
    cedilla,
    onesuperior,
    ordmasculine,
    guillemotright,
    onequarter,

glyphs = (
{
glyphname = .notdef;
layers = (
{
layerId = "943E8435-6871-41EF-8C83-AAAA92C7EE80";
name = Light;
paths = (
{
closed = 1;
nodes = (
"442 8 LINE",
"58 8 LINE",
"58 504 LINE",
"442 504 LINE"
);
},
{
closed = 1;
nodes = (
"50 512 LINE",
"50 0 LINE",
"450 0 LINE",
"450 512 LINE"
);
}
);
width = 500;
}
);
note = .notdef;
},
{
glyphname = exclam;
lastChange = "2016-01-24 04:14:03 +0000";
layers = (
{
layerId = "943E8435-6871-41EF-8C83-AAAA92C7EE80";
name = Light;
paths = (
{
closed = 1;
nodes = (
"79 0 LINE",
"163 0 LINE",
"163 106 LINE",
"79 106 LINE"
);
},
{
closed = 1;
nodes = (
"87 501 LINE",
"92 178 LINE",
"150 178 LINE",
"155 501 LINE",
"155 714 LINE",
"87 714 LINE"
);
}
);
width = 241;
}
);
note = exclam;
unicode = 0021;
},
{
glyphname = quotedbl;
layers = (
{
layerId = "943E8435-6871-41EF-8C83-AAAA92C7EE80";
name = Light;
paths = (
{
closed = 1;
nodes = (
"220 714 LINE",
"220 471 LINE",
"283 471 LINE",
"283 714 LINE"
);
},
{
closed = 1;
nodes = (
"87 714 LINE",
"87 471 LINE",
"150 471 LINE",
"150 714 LINE"
);
}
);
width = 370;
}
);
note = quotedbl;
unicode = 0022;
},
{
glyphname = numbersign;
layers = (
{
layerId = "943E8435-6871-41EF-8C83-AAAA92C7EE80";
name = Light;
paths = (
{
closed = 1;
nodes = (
"223 424 LINE",
"364 424 LINE",
"342 268 LINE",
"201 268 LINE"
);
},
{
closed = 1;
nodes = (
"497 223 LINE",
"497 268 LINE",
"392 268 LINE",
"414 424 LINE",
"525 424 LINE",
"525 469 LINE",
"420 469 LINE",
"451 691 LINE",
"401 691 LINE",
"370 469 LINE",
"229 469 LINE",
"260 691 LINE",
"210 691 LINE",
"179 469 LINE",
"63 469 LINE",
"63 424 LINE",
"173 424 LINE",
"151 268 LINE",
"35 268 LINE",
"35 223 LINE",
"145 223 LINE",
"114 0 LINE",
"164 0 LINE",
"195 223 LINE",
"336 223 LINE",
"305 0 LINE",
"355 0 LINE",
"386 223 LINE"
);
}
);
width = 556;
}
);
note = numbersign;
unicode = 0023;
},
{
glyphname = dollar;
layers = (
{
layerId = "943E8435-6871-41EF-8C83-AAAA92C7EE80";
name = Light;
paths = (
{
closed = 1;
nodes = (
"29 228 LINE",
"34 76 OFFCURVE",
"101 2 OFFCURVE",
"257 -13 CURVE",
"257 -99 LINE",
"296 -99 LINE",
"296 -14 LINE",
"355 -14 OFFCURVE",
"412 3 OFFCURVE",
"456 36 CURVE SMOOTH",
"499 69 OFFCURVE",
"527 120 OFFCURVE",
"527 185 CURVE SMOOTH",
"527 256 OFFCURVE",
"498 299 OFFCURVE",
"455 330 CURVE SMOOTH",
"411 361 OFFCURVE",
"353 376 OFFCURVE",
"296 388 CURVE",
"296 676 LINE",
"384 676 OFFCURVE",
"444 612 OFFCURVE",
"445 512 CURVE",
"508 512 LINE",
"509 577 OFFCURVE",
"486 632 OFFCURVE",
"447 670 CURVE SMOOTH",
"407 708 OFFCURVE",
"355 729 OFFCURVE",
"296 729 CURVE",
"296 807 LINE",
"257 807 LINE",
"257 729 LINE",
"200 729 OFFCURVE",
"147 711 OFFCURVE",
"109 677 CURVE SMOOTH",
"71 643 OFFCURVE",
"47 594 OFFCURVE",
"47 534 CURVE SMOOTH",
"47 465 OFFCURVE",
"72 421 OFFCURVE",
"110 391 CURVE SMOOTH",
"148 361 OFFCURVE",
"201 346 OFFCURVE",
"257 334 CURVE",
"257 38 LINE",
"152 50 OFFCURVE",
"93 111 OFFCURVE",
"92 228 CURVE"
);
},
{
closed = 1;
nodes = (
"257 397 LINE",
"220 406 OFFCURVE",
"183 415 OFFCURVE",
"156 434 CURVE SMOOTH",
"128 453 OFFCURVE",
"110 480 OFFCURVE",
"110 527 CURVE SMOOTH",
"110 579 OFFCURVE",
"126 617 OFFCURVE",
"154 641 CURVE SMOOTH",
"181 665 OFFCURVE",
"217 676 OFFCURVE",
"257 676 CURVE"
);
},
{
closed = 1;
nodes = (
"296 326 LINE",
"335 317 OFFCURVE",
"377 304 OFFCURVE",
"409 284 CURVE SMOOTH",
"441 263 OFFCURVE",
"464 232 OFFCURVE",
"464 184 CURVE SMOOTH",
"464 132 OFFCURVE",
"443 96 OFFCURVE",
"412 72 CURVE SMOOTH",
"380 48 OFFCURVE",
"339 38 OFFCURVE",
"296 38 CURVE"
);
}
);
width = 556;
}
);
note = dollar;
unicode = 0024;
},
{
glyphname = percent;
layers = (
{
layerId = "943E8435-6871-41EF-8C83-AAAA92C7EE80";
name = Light;
paths = (
{
closed = 1;
nodes = (
"172 706 OFFCURVE",
"131 686 OFFCURVE",
"106 652 CURVE SMOOTH",
"81 618 OFFCURVE",
"69 570 OFFCURVE",
"69 517 CURVE SMOOTH",
"69 464 OFFCURVE",
"81 417 OFFCURVE",
"106 383 CURVE SMOOTH",
"131 349 OFFCURVE",
"172 328 OFFCURVE",
"228 328 CURVE SMOOTH",
"284 328 OFFCURVE",
"325 349 OFFCURVE",
"350 383 CURVE SMOOTH",
"375 417 OFFCURVE",
"387 464 OFFCURVE",
"387 517 CURVE SMOOTH",
"387 570 OFFCURVE",
"375 618 OFFCURVE",
"350 652 CURVE SMOOTH",
"325 686 OFFCURVE",
"284 706 OFFCURVE",
"228 706 CURVE SMOOTH"
);
},
{
closed = 1;
nodes = (
"708 318 OFFCURVE",
"735 298 OFFCURVE",
"751 270 CURVE SMOOTH",
"767 241 OFFCURVE",
"773 205 OFFCURVE",
"773 173 CURVE SMOOTH",
"773 141 OFFCURVE",
"767 106 OFFCURVE",
"751 78 CURVE SMOOTH",
"735 50 OFFCURVE",
"708 30 OFFCURVE",
"667 30 CURVE SMOOTH",
"624 30 OFFCURVE",
"598 50 OFFCURVE",
"582 78 CURVE SMOOTH",
"566 106 OFFCURVE",
"561 141 OFFCURVE",
"561 173 CURVE SMOOTH",
"561 205 OFFCURVE",
"566 241 OFFCURVE",
"582 270 CURVE SMOOTH",
"598 298 OFFCURVE",
"624 318 OFFCURVE",
"667 318 CURVE SMOOTH"
);
},
{
closed = 1;
nodes = (
"611 363 OFFCURVE",
"570 343 OFFCURVE",
"545 309 CURVE SMOOTH",
"520 275 OFFCURVE",
"508 227 OFFCURVE",
"508 174 CURVE SMOOTH",
"508 121 OFFCURVE",
"520 74 OFFCURVE",
"545 40 CURVE SMOOTH",
"570 6 OFFCURVE",
"611 -14 OFFCURVE",
"667 -14 CURVE SMOOTH",
"723 -14 OFFCURVE",
"764 6 OFFCURVE",
"789 40 CURVE SMOOTH",
"814 74 OFFCURVE",
"826 121 OFFCURVE",
"826 174 CURVE SMOOTH",
"826 227 OFFCURVE",
"814 275 OFFCURVE",
"789 309 CURVE SMOOTH",
"764 343 OFFCURVE",
"723 363 OFFCURVE",
"667 363 CURVE SMOOTH"
);
},
{
closed = 1;
nodes = (
"643 725 LINE",
"190 -33 LINE",
"238 -33 LINE",
"690 725 LINE"
);
},
{
closed = 1;
nodes = (
"269 661 OFFCURVE",
"296 641 OFFCURVE",
"312 613 CURVE SMOOTH",
"328 584 OFFCURVE",
"334 548 OFFCURVE",
"334 516 CURVE SMOOTH",
"334 484 OFFCURVE",
"328 449 OFFCURVE",
"312 421 CURVE SMOOTH",
"296 393 OFFCURVE",
"269 373 OFFCURVE",
"228 373 CURVE SMOOTH",
"185 373 OFFCURVE",
"159 393 OFFCURVE",
"143 421 CURVE SMOOTH",
"127 449 OFFCURVE",
"122 484 OFFCURVE",
"122 516 CURVE SMOOTH",
"122 548 OFFCURVE",
"127 584 OFFCURVE",
"143 613 CURVE SMOOTH",
"159 641 OFFCURVE",
"185 661 OFFCURVE",
"228 661 CURVE SMOOTH"
);
}
);
width = 889;
}
);
note = percent;
unicode = 0025;
},
{
glyphname = ampersand;
layers = (
{
layerId = "943E8435-6871-41EF-8C83-AAAA92C7EE80";
name = Light;
paths = (
{
closed = 1;
nodes = (
"336 661 OFFCURVE",
"379 629 OFFCURVE",
"379 569 CURVE SMOOTH",
"379 534 OFFCURVE",
"364 506 OFFCURVE",
"343 483 CURVE SMOOTH",
"322 459 OFFCURVE",
"294 441 OFFCURVE",
"269 425 CURVE",
"253 444 OFFCURVE",
"233 468 OFFCURVE",
"217 493 CURVE SMOOTH",
"201 517 OFFCURVE",
"189 544 OFFCURVE",
"189 569 CURVE SMOOTH",
"189 629 OFFCURVE",
"232 661 OFFCURVE",
"284 661 CURVE SMOOTH"
);
},
{
closed = 1;
nodes = (
"541 0 LINE",
"620 0 LINE",
"500 145 LINE",
"533 206 OFFCURVE",
"542 276 OFFCURVE",
"542 316 CURVE",
"479 316 LINE",
"479 261 OFFCURVE",
"475 231 OFFCURVE",
"458 196 CURVE",
"302 384 LINE",
"338 407 OFFCURVE",
"373 431 OFFCURVE",
"399 460 CURVE SMOOTH",
"425 489 OFFCURVE",
"442 525 OFFCURVE",
"442 569 CURVE SMOOTH",
"442 613 OFFCURVE",
"424 649 OFFCURVE",
"396 674 CURVE SMOOTH",
"367 699 OFFCURVE",
"328 714 OFFCURVE",
"284 714 CURVE SMOOTH",
"240 714 OFFCURVE",
"201 699 OFFCURVE",
"173 674 CURVE SMOOTH",
"144 649 OFFCURVE",
"126 613 OFFCURVE",
"126 569 CURVE SMOOTH",
"126 534 OFFCURVE",
"139 504 OFFCURVE",
"156 476 CURVE SMOOTH",
"164 462 OFFCURVE",
"173 449 OFFCURVE",
"184 436 CURVE",
"194 423 OFFCURVE",
"204 410 OFFCURVE",
"214 397 CURVE",
"174 376 OFFCURVE",
"131 348 OFFCURVE",
"97 313 CURVE SMOOTH",
"63 278 OFFCURVE",
"39 236 OFFCURVE",
"39 185 CURVE SMOOTH",
"39 120 OFFCURVE",
"62 70 OFFCURVE",
"101 37 CURVE SMOOTH",
"140 4 OFFCURVE",
"194 -14 OFFCURVE",
"255 -14 CURVE SMOOTH",
"339 -14 OFFCURVE",
"413 28 OFFCURVE",
"465 93 CURVE"
);
},
{
closed = 1;
nodes = (
"426 140 LINE",
"386 83 OFFCURVE",
"329 38 OFFCURVE",
"257 38 CURVE SMOOTH",
"217 38 OFFCURVE",
"178 52 OFFCURVE",
"150 77 CURVE SMOOTH",
"121 102 OFFCURVE",
"102 138 OFFCURVE",
"102 179 CURVE SMOOTH",
"102 222 OFFCURVE",
"121 257 OFFCURVE",
"149 286 CURVE SMOOTH",
"177 315 OFFCURVE",
"213 337 OFFCURVE",
"248 356 CURVE"
);
}
);
width = 611;
}
);
note = ampersand;
unicode = 0026;
},
{
glyphname = quotesingle;
layers = (
{
layerId = "943E8435-6871-41EF-8C83-AAAA92C7EE80";
name = Light;
paths = (
{
closed = 1;
nodes = (
"108 714 LINE",
"108 471 LINE",
"171 471 LINE",
"171 714 LINE"
);
}
);
width = 278;
}
);
note = quotesingle;
unicode = 0027;
},
{
glyphname = parenleft;
layers = (
{
layerId = "943E8435-6871-41EF-8C83-AAAA92C7EE80";
name = Light;
paths = (
{
closed = 1;
nodes = (
"242 -190 LINE",
"203 -129 OFFCURVE",
"172 -57 OFFCURVE",
"149 19 CURVE SMOOTH",
"126 94 OFFCURVE",
"114 171 OFFCURVE",
"114 243 CURVE SMOOTH",
"114 422 OFFCURVE",
"153 585 OFFCURVE",
"242 729 CURVE",
"192 729 LINE",
"104 592 OFFCURVE",
"51 438 OFFCURVE",
"51 266 CURVE SMOOTH",
"51 178 OFFCURVE",
"64 101 OFFCURVE",
"88 28 CURVE SMOOTH",
"112 -45 OFFCURVE",
"148 -117 OFFCURVE",
"192 -190 CURVE"
);
}
);
width = 241;
}
);
note = parenleft;
unicode = 0028;
},
{
glyphname = parenright;
layers = (
{
layerId = "943E8435-6871-41EF-8C83-AAAA92C7EE80";
name = Light;
paths = (
{
closed = 1;
nodes = (
"0 729 LINE",
"36 665 OFFCURVE",
"68 594 OFFCURVE",
"91 520 CURVE SMOOTH",
"114 446 OFFCURVE",
"127 368 OFFCURVE",
"127 295 CURVE SMOOTH",
"127 116 OFFCURVE",
"88 -46 OFFCURVE",
"0 -190 CURVE",
"49 -190 LINE",
"137 -53 OFFCURVE",
"190 100 OFFCURVE",
"190 272 CURVE SMOOTH",
"190 359 OFFCURVE",
"177 437 OFFCURVE",
"153 511 CURVE SMOOTH",
"129 585 OFFCURVE",
"93 656 OFFCURVE",
"49 729 CURVE"
);
}
);
width = 241;
}
);
note = parenright;
unicode = 0029;
},
{
glyphname = asterisk;
layers = (
{
layerId = "943E8435-6871-41EF-8C83-AAAA92C7EE80";
name = Light;
paths = (
{
closed = 1;
nodes = (
"27 595 LINE",
"142 556 LINE",
"69 458 LINE",
"101 435 LINE",
"174 535 LINE",
"247 435 LINE",
"279 458 LINE",
"207 556 LINE",
"325 595 LINE",
"310 632 LINE",
"195 591 LINE",
"195 714 LINE",
"156 714 LINE",
"156 591 LINE",
"41 632 LINE"
);
}
);
width = 352;
}
);
note = asterisk;
unicode = 002A;
},
{
glyphname = plus;
layers = (
{
layerId = "943E8435-6871-41EF-8C83-AAAA92C7EE80";
name = Light;
paths = (
{
closed = 1;
nodes = (
"274 503 LINE",
"274 278 LINE",
"49 278 LINE",
"49 225 LINE",
"274 225 LINE",
"274 0 LINE",
"327 0 LINE",
"327 225 LINE",
"552 225 LINE",
"552 278 LINE",
"327 278 LINE",
"327 503 LINE"
);
}
);
width = 600;
}
);
note = plus;
unicode = 002B;
},
{
glyphname = comma;
layers = (
{
layerId = "943E8435-6871-41EF-8C83-AAAA92C7EE80";
name = Light;
paths = (
{
closed = 1;
nodes = (
"181 106 LINE",
"97 106 LINE",
"97 0 LINE",
"139 0 LINE",
"140 -15 OFFCURVE",
"137 -35 OFFCURVE",
"129 -53 CURVE SMOOTH",
"121 -71 OFFCURVE",
"109 -88 OFFCURVE",
"93 -93 CURVE",
"93 -136 LINE",
"122 -128 OFFCURVE",
"144 -108 OFFCURVE",
"159 -83 CURVE SMOOTH",
"174 -59 OFFCURVE",
"181 -29 OFFCURVE",
"181 0 CURVE SMOOTH"
);
}
);
width = 278;
}
);
note = comma;
unicode = 002C;
},
{
glyphname = hyphen;
layers = (
{
layerId = "943E8435-6871-41EF-8C83-AAAA92C7EE80";
name = Light;
paths = (
{
closed = 1;
nodes = (
"60 246 LINE",
"310 246 LINE",
"310 304 LINE",
"60 304 LINE"
);
}
);
width = 370;
}
);
note = hyphen;
unicode = 002D;
},
{
glyphname = period;
layers = (
{
layerId = "943E8435-6871-41EF-8C83-AAAA92C7EE80";
name = Light;
paths = (
{
closed = 1;
nodes = (
"97 0 LINE",
"181 0 LINE",
"181 106 LINE",
"97 106 LINE"
);
}
);
width = 278;
}
);
note = period;
unicode = 002E;
},
{
glyphname = slash;
layers = (
{
layerId = "943E8435-6871-41EF-8C83-AAAA92C7EE80";
name = Light;
paths = (
{
closed = 1;
nodes = (
"-12 -14 LINE",
"41 -14 LINE",
"346 729 LINE",
"295 729 LINE"
);
}
);
width = 333;
}
);
note = slash;
unicode = 002F;
},
{
glyphname = zero;
layers = (
{
layerId = "943E8435-6871-41EF-8C83-AAAA92C7EE80";
name = Light;
paths = (
{
closed = 1;
nodes = (
"177 706 OFFCURVE",
"115 656 OFFCURVE",
"80 587 CURVE SMOOTH",
"44 518 OFFCURVE",
"34 428 OFFCURVE",
"34 345 CURVE SMOOTH",
"34 264 OFFCURVE",
"44 173 OFFCURVE",
"80 104 CURVE SMOOTH",
"115 35 OFFCURVE",
"177 -14 OFFCURVE",
"278 -14 CURVE SMOOTH",
"381 -14 OFFCURVE",
"441 35 OFFCURVE",
"477 104 CURVE SMOOTH",
"512 173 OFFCURVE",
"522 263 OFFCURVE",
"522 346 CURVE SMOOTH",
"522 427 OFFCURVE",
"512 518 OFFCURVE",
"477 587 CURVE SMOOTH",
"441 656 OFFCURVE",
"381 706 OFFCURVE",
"278 706 CURVE SMOOTH"
);
},
{
closed = 1;
nodes = (
"358 653 OFFCURVE",
"404 606 OFFCURVE",
"429 545 CURVE SMOOTH",
"453 484 OFFCURVE",
"459 406 OFFCURVE",
"459 346 CURVE SMOOTH",
"459 285 OFFCURVE",
"453 209 OFFCURVE",
"429 147 CURVE SMOOTH",
"404 85 OFFCURVE",
"358 38 OFFCURVE",
"278 38 CURVE SMOOTH",
"198 38 OFFCURVE",
"152 85 OFFCURVE",
"128 147 CURVE SMOOTH",
"103 209 OFFCURVE",
"97 285 OFFCURVE",
"97 346 CURVE SMOOTH",
"97 406 OFFCURVE",
"103 484 OFFCURVE",
"128 545 CURVE SMOOTH",
"152 606 OFFCURVE",
"198 653 OFFCURVE",
"278 653 CURVE SMOOTH"
);
}
);
width = 556;
}
);
note = zero;
unicode = 0030;
},
{
glyphname = one;
layers = (
{
layerId = "943E8435-6871-41EF-8C83-AAAA92C7EE80";
name = Light;
paths = (
{
closed = 1;
nodes = (
"97 520 LINE",
"282 520 LINE",
"282 0 LINE",
"345 0 LINE",
"345 700 LINE",
"294 700 LINE",
"285 636 OFFCURVE",
"262 603 OFFCURVE",
"230 586 CURVE SMOOTH",
"197 569 OFFCURVE",
"152 566 OFFCURVE",
"97 565 CURVE"
);
}
);
width = 556;
}
);
note = one;
unicode = 0031;
},
{
glyphname = two;
layers = (
{
layerId = "943E8435-6871-41EF-8C83-AAAA92C7EE80";
name = Light;
paths = (
{
closed = 1;
nodes = (
"497 0 LINE",
"497 58 LINE",
"108 58 LINE",
"116 105 OFFCURVE",
"152 144 OFFCURVE",
"194 177 CURVE SMOOTH",
"215 194 OFFCURVE",
"236 209 OFFCURVE",
"259 223 CURVE SMOOTH",
"304 250 OFFCURVE",
"343 274 OFFCURVE",
"385 308 CURVE SMOOTH",
"427 342 OFFCURVE",
"460 381 OFFCURVE",
"480 429 CURVE",
"489 453 OFFCURVE",
"494 480 OFFCURVE",
"494 509 CURVE SMOOTH",
"494 574 OFFCURVE",
"471 624 OFFCURVE",
"432 657 CURVE SMOOTH",
"392 689 OFFCURVE",
"338 706 OFFCURVE",
"277 706 CURVE SMOOTH",
"201 706 OFFCURVE",
"144 680 OFFCURVE",
"107 636 CURVE SMOOTH",
"70 592 OFFCURVE",
"52 530 OFFCURVE",
"53 458 CURVE",
"116 458 LINE",
"115 510 OFFCURVE",
"126 558 OFFCURVE",
"151 594 CURVE SMOOTH",
"176 630 OFFCURVE",
"217 653 OFFCURVE",
"274 653 CURVE SMOOTH",
"317 653 OFFCURVE",
"356 640 OFFCURVE",
"385 616 CURVE",
"413 591 OFFCURVE",
"431 555 OFFCURVE",
"431 510 CURVE SMOOTH",
"431 454 OFFCURVE",
"412 417 OFFCURVE",
"373 378 CURVE SMOOTH",
"334 339 OFFCURVE",
"283 306 OFFCURVE",
"234 274 CURVE SMOOTH",
"185 241 OFFCURVE",
"136 207 OFFCURVE",
"99 164 CURVE SMOOTH",
"62 121 OFFCURVE",
"37 69 OFFCURVE",
"36 0 CURVE"
);
}
);
width = 556;
}
);
note = two;
unicode = 0032;
},
{
glyphname = three;
layers = (
{
layerId = "943E8435-6871-41EF-8C83-AAAA92C7EE80";
name = Light;
paths = (
{
closed = 1;
nodes = (
"33 223 LINE",
"28 147 OFFCURVE",
"51 88 OFFCURVE",
"95 48 CURVE SMOOTH",
"138 8 OFFCURVE",
"200 -14 OFFCURVE",
"272 -14 CURVE SMOOTH",
"336 -14 OFFCURVE",
"397 4 OFFCURVE",
"441 40 CURVE SMOOTH",
"485 76 OFFCURVE",
"513 129 OFFCURVE",
"513 198 CURVE SMOOTH",
"513 290 OFFCURVE",
"461 356 OFFCURVE",
"369 371 CURVE",
"369 373 LINE",
"445 392 OFFCURVE",
"487 452 OFFCURVE",
"487 528 CURVE SMOOTH",
"487 591 OFFCURVE",
"460 635 OFFCURVE",
"420 664 CURVE SMOOTH",
"379 692 OFFCURVE",
"325 706 OFFCURVE",
"270 706 CURVE SMOOTH",
"202 706 OFFCURVE",
"147 681 OFFCURVE",
"109 641 CURVE SMOOTH",
"71 600 OFFCURVE",
"49 543 OFFCURVE",
"49 476 CURVE",
"112 476 LINE",
"111 528 OFFCURVE",
"124 572 OFFCURVE",
"152 604 CURVE SMOOTH",
"179 635 OFFCURVE",
"219 653 OFFCURVE",
"271 653 CURVE SMOOTH",
"314 653 OFFCURVE",
"351 644 OFFCURVE",
"379 622 CURVE SMOOTH",
"407 600 OFFCURVE",
"424 568 OFFCURVE",
"424 521 CURVE SMOOTH",
"424 477 OFFCURVE",
"405 445 OFFCURVE",
"378 425 CURVE SMOOTH",
"350 404 OFFCURVE",
"314 394 OFFCURVE",
"282 394 CURVE SMOOTH",
"229 394 LINE",
"229 341 LINE",
"282 341 LINE SMOOTH",
"329 341 OFFCURVE",
"370 329 OFFCURVE",
"401 305 CURVE SMOOTH",
"432 280 OFFCURVE",
"450 244 OFFCURVE",
"450 193 CURVE SMOOTH",
"450 144 OFFCURVE",
"428 105 OFFCURVE",
"395 78 CURVE SMOOTH",
"362 51 OFFCURVE",
"318 38 OFFCURVE",
"271 38 CURVE SMOOTH",
"215 38 OFFCURVE",
"170 57 OFFCURVE",
"140 89 CURVE SMOOTH",
"110 121 OFFCURVE",
"93 167 OFFCURVE",
"96 223 CURVE"
);
}
);
width = 556;
}
);
note = three;
unicode = 0033;
},
{
glyphname = four;
layers = (
{
layerId = "943E8435-6871-41EF-8C83-AAAA92C7EE80";
name = Light;
paths = (
{
closed = 1;
nodes = (
"353 227 LINE",
"87 227 LINE",
"351 608 LINE",
"353 608 LINE"
);
},
{
closed = 1;
nodes = (
"30 235 LINE",
"30 174 LINE",
"353 174 LINE",
"353 0 LINE",
"411 0 LINE",
"411 174 LINE",
"516 174 LINE",
"516 227 LINE",
"411 227 LINE",
"411 700 LINE",
"354 700 LINE"
);
}
);
width = 556;
}
);
note = four;
unicode = 0034;
},
{
glyphname = five;
layers = (
{
layerId = "943E8435-6871-41EF-8C83-AAAA92C7EE80";
name = Light;
paths = (
{
closed = 1;
nodes = (
"36 200 LINE",
"37 133 OFFCURVE",
"63 79 OFFCURVE",
"104 43 CURVE SMOOTH",
"144 6 OFFCURVE",
"201 -14 OFFCURVE",
"266 -14 CURVE SMOOTH",
"333 -14 OFFCURVE",
"394 11 OFFCURVE",
"438 53 CURVE SMOOTH",
"482 95 OFFCURVE",
"509 154 OFFCURVE",
"509 222 CURVE SMOOTH",
"509 293 OFFCURVE",
"486 353 OFFCURVE",
"446 396 CURVE SMOOTH",
"405 439 OFFCURVE",
"346 464 OFFCURVE",
"274 464 CURVE SMOOTH",
"218 464 OFFCURVE",
"161 440 OFFCURVE",
"126 399 CURVE",
"124 401 LINE",
"169 633 LINE",
"475 633 LINE",
"475 691 LINE",
"125 691 LINE",
"57 328 LINE",
"111 328 LINE",
"146 381 OFFCURVE",
"203 411 OFFCURVE",
"267 411 CURVE SMOOTH",
"319 411 OFFCURVE",
"364 391 OFFCURVE",
"396 359 CURVE SMOOTH",
"427 326 OFFCURVE",
"446 281 OFFCURVE",
"446 229 CURVE SMOOTH",
"446 178 OFFCURVE",
"430 131 OFFCURVE",
"399 96 CURVE SMOOTH",
"368 60 OFFCURVE",
"326 38 OFFCURVE",
"271 38 CURVE SMOOTH",
"223 38 OFFCURVE",
"181 54 OFFCURVE",
"150 83 CURVE SMOOTH",
"119 111 OFFCURVE",
"100 152 OFFCURVE",
"99 200 CURVE"
);
}
);
width = 556;
}
);
note = five;
unicode = 0035;
},
{
glyphname = six;
layers = (
{
layerId = "943E8435-6871-41EF-8C83-AAAA92C7EE80";
name = Light;
paths = (
{
closed = 1;
nodes = (
"505 523 LINE",
"490 647 OFFCURVE",
"415 706 OFFCURVE",
"290 706 CURVE SMOOTH",
"214 706 OFFCURVE",
"160 677 OFFCURVE",
"124 634 CURVE SMOOTH",
"87 591 OFFCURVE",
"66 536 OFFCURVE",
"54 485 CURVE SMOOTH",
"42 433 OFFCURVE",
"40 385 OFFCURVE",
"40 357 CURVE SMOOTH",
"40 220 OFFCURVE",
"59 128 OFFCURVE",
"99 69 CURVE SMOOTH",
"139 10 OFFCURVE",
"200 -14 OFFCURVE",
"285 -14 CURVE SMOOTH",
"354 -14 OFFCURVE",
"414 11 OFFCURVE",
"456 53 CURVE SMOOTH",
"498 95 OFFCURVE",
"522 154 OFFCURVE",
"522 222 CURVE SMOOTH",
"522 290 OFFCURVE",
"499 349 OFFCURVE",
"459 390 CURVE SMOOTH",
"419 431 OFFCURVE",
"362 456 OFFCURVE",
"291 456 CURVE SMOOTH",
"211 456 OFFCURVE",
"138 409 OFFCURVE",
"105 340 CURVE",
"103 340 LINE",
"103 404 OFFCURVE",
"110 481 OFFCURVE",
"138 544 CURVE SMOOTH",
"166 607 OFFCURVE",
"215 653 OFFCURVE",
"296 653 CURVE SMOOTH",
"377 653 OFFCURVE",
"431 600 OFFCURVE",
"442 523 CURVE"
);
},
{
closed = 1;
nodes = (
"343 403 OFFCURVE",
"386 382 OFFCURVE",
"415 349 CURVE SMOOTH",
"443 316 OFFCURVE",
"459 269 OFFCURVE",
"459 218 CURVE SMOOTH",
"459 170 OFFCURVE",
"443 124 OFFCURVE",
"413 92 CURVE SMOOTH",
"383 59 OFFCURVE",
"342 38 OFFCURVE",
"291 38 CURVE SMOOTH",
"230 38 OFFCURVE",
"186 58 OFFCURVE",
"158 91 CURVE SMOOTH",
"129 123 OFFCURVE",
"116 169 OFFCURVE",
"116 218 CURVE SMOOTH",
"116 270 OFFCURVE",
"132 316 OFFCURVE",
"162 349 CURVE SMOOTH",
"192 382 OFFCURVE",
"235 403 OFFCURVE",
"290 403 CURVE SMOOTH"
);
}
);
width = 556;
}
);
note = six;
unicode = 0036;
},
{
glyphname = seven;
lastChange = "2016-01-24 04:44:00 +0000";
layers = (
{
layerId = "943E8435-6871-41EF-8C83-AAAA92C7EE80";
name = Light;
paths = (
{
closed = 1;
nodes = (
"51 691 LINE",
"51 633 LINE",
"438 633 LINE",
"150 0 LINE",
"218 0 LINE",
"501 633 LINE",
"501 691 LINE"
);
}
);
width = 556;
}
);
note = seven;
unicode = 0037;
},
{
glyphname = eight;
layers = (
{
layerId = "943E8435-6871-41EF-8C83-AAAA92C7EE80";
name = Light;
paths = (
{
closed = 1;
nodes = (
"241 400 OFFCURVE",
"203 409 OFFCURVE",
"175 430 CURVE SMOOTH",
"147 451 OFFCURVE",
"128 484 OFFCURVE",
"128 531 CURVE SMOOTH",
"128 571 OFFCURVE",
"146 602 OFFCURVE",
"174 622 CURVE SMOOTH",
"202 642 OFFCURVE",
"239 653 OFFCURVE",
"278 653 CURVE SMOOTH",
"321 653 OFFCURVE",
"357 642 OFFCURVE",
"384 622 CURVE SMOOTH",
"411 602 OFFCURVE",
"427 571 OFFCURVE",
"427 531 CURVE SMOOTH",
"427 486 OFFCURVE",
"409 452 OFFCURVE",
"382 431 CURVE SMOOTH",
"354 410 OFFCURVE",
"317 400 OFFCURVE",
"278 401 CURVE"
);
},
{
closed = 1;
nodes = (
"490 591 OFFCURVE",
"463 635 OFFCURVE",
"423 664 CURVE SMOOTH",
"382 692 OFFCURVE",
"329 706 OFFCURVE",
"277 706 CURVE SMOOTH",
"225 706 OFFCURVE",
"172 692 OFFCURVE",
"132 664 CURVE SMOOTH",
"92 635 OFFCURVE",
"65 591 OFFCURVE",
"65 531 CURVE SMOOTH",
"65 454 OFFCURVE",
"106 400 OFFCURVE",
"179 377 CURVE",
"179 375 LINE",
"91 359 OFFCURVE",
"40 288 OFFCURVE",
"37 196 CURVE SMOOTH",
"37 125 OFFCURVE",
"64 73 OFFCURVE",
"108 38 CURVE SMOOTH",
"152 3 OFFCURVE",
"213 -14 OFFCURVE",
"278 -14 CURVE SMOOTH",
"345 -14 OFFCURVE",
"404 3 OFFCURVE",
"448 38 CURVE SMOOTH",
"492 73 OFFCURVE",
"519 125 OFFCURVE",
"519 196 CURVE SMOOTH",
"519 292 OFFCURVE",
"468 356 OFFCURVE",
"376 375 CURVE",
"376 377 LINE",
"448 398 OFFCURVE",
"490 455 OFFCURVE",
"490 531 CURVE SMOOTH"
);
},
{
closed = 1;
nodes = (
"229 38 OFFCURVE",
"184 52 OFFCURVE",
"152 78 CURVE SMOOTH",
"120 104 OFFCURVE",
"100 144 OFFCURVE",
"100 196 CURVE SMOOTH",
"100 247 OFFCURVE",
"121 286 OFFCURVE",
"153 312 CURVE SMOOTH",
"185 338 OFFCURVE",
"230 349 OFFCURVE",
"278 348 CURVE",
"325 349 OFFCURVE",
"370 337 OFFCURVE",
"403 311 CURVE SMOOTH",
"435 285 OFFCURVE",
"456 247 OFFCURVE",
"456 196 CURVE SMOOTH",
"456 143 OFFCURVE",
"436 103 OFFCURVE",
"404 77 CURVE SMOOTH",
"372 51 OFFCURVE",
"327 38 OFFCURVE",
"278 38 CURVE SMOOTH"
);
}
);
width = 556;
}
);
note = eight;
unicode = 0038;
},
{
glyphname = nine;
layers = (
{
layerId = "943E8435-6871-41EF-8C83-AAAA92C7EE80";
name = Light;
paths = (
{
closed = 1;
nodes = (
"51 168 LINE",
"66 44 OFFCURVE",
"141 -14 OFFCURVE",
"266 -14 CURVE SMOOTH",
"342 -14 OFFCURVE",
"396 16 OFFCURVE",
"433 58 CURVE SMOOTH",
"469 100 OFFCURVE",
"490 155 OFFCURVE",
"502 207 CURVE SMOOTH",
"514 258 OFFCURVE",
"516 306 OFFCURVE",
"516 334 CURVE SMOOTH",
"516 470 OFFCURVE",
"497 563 OFFCURVE",
"457 623 CURVE SMOOTH",
"417 682 OFFCURVE",
"356 706 OFFCURVE",
"271 706 CURVE SMOOTH",
"202 706 OFFCURVE",
"143 681 OFFCURVE",
"101 639 CURVE SMOOTH",
"59 597 OFFCURVE",
"34 537 OFFCURVE",
"34 469 CURVE SMOOTH",
"34 401 OFFCURVE",
"57 342 OFFCURVE",
"97 301 CURVE SMOOTH",
"137 260 OFFCURVE",
"196 235 OFFCURVE",
"265 235 CURVE SMOOTH",
"345 235 OFFCURVE",
"418 282 OFFCURVE",
"451 351 CURVE",
"453 351 LINE",
"453 287 OFFCURVE",
"446 210 OFFCURVE",
"418 147 CURVE SMOOTH",
"390 84 OFFCURVE",
"343 38 OFFCURVE",
"260 38 CURVE SMOOTH",
"179 38 OFFCURVE",
"125 91 OFFCURVE",
"114 168 CURVE"
);
},
{
closed = 1;
nodes = (
"213 288 OFFCURVE",
"170 309 OFFCURVE",
"142 342 CURVE SMOOTH",
"113 375 OFFCURVE",
"97 422 OFFCURVE",
"97 473 CURVE SMOOTH",
"97 521 OFFCURVE",
"114 567 OFFCURVE",
"144 600 CURVE SMOOTH",
"174 632 OFFCURVE",
"216 653 OFFCURVE",
"265 653 CURVE SMOOTH",
"326 653 OFFCURVE",
"370 633 OFFCURVE",
"399 601 CURVE SMOOTH",
"427 568 OFFCURVE",
"440 524 OFFCURVE",
"440 473 CURVE SMOOTH",
"440 421 OFFCURVE",
"425 375 OFFCURVE",
"395 342 CURVE SMOOTH",
"365 309 OFFCURVE",
"321 288 OFFCURVE",
"266 288 CURVE SMOOTH"
);
}
);
width = 556;
}
);
note = nine;
unicode = 0039;
},
{
glyphname = colon;
layers = (
{
layerId = "943E8435-6871-41EF-8C83-AAAA92C7EE80";
name = Light;
paths = (
{
closed = 1;
nodes = (
"97 0 LINE",
"181 0 LINE",
"181 106 LINE",
"97 106 LINE"
);
},
{
closed = 1;
nodes = (
"97 394 LINE",
"181 394 LINE",
"181 500 LINE",
"97 500 LINE"
);
}
);
width = 278;
}
);
note = colon;
unicode = 003A;
},
{
glyphname = semicolon;
layers = (
{
layerId = "943E8435-6871-41EF-8C83-AAAA92C7EE80";
name = Light;
paths = (
{
closed = 1;
nodes = (
"97 394 LINE",
"181 394 LINE",
"181 500 LINE",
"97 500 LINE"
);
},
{
closed = 1;
nodes = (
"181 106 LINE",
"97 106 LINE",
"97 0 LINE",
"139 0 LINE",
"140 -15 OFFCURVE",
"137 -35 OFFCURVE",
"129 -53 CURVE SMOOTH",
"121 -71 OFFCURVE",
"109 -88 OFFCURVE",
"93 -93 CURVE",
"93 -136 LINE",
"122 -128 OFFCURVE",
"144 -108 OFFCURVE",
"159 -83 CURVE SMOOTH",
"174 -59 OFFCURVE",
"181 -29 OFFCURVE",
"181 0 CURVE SMOOTH"
);
}
);
width = 278;
}
);
note = semicolon;
unicode = 003B;
},
{
glyphname = less;
layers = (
{
layerId = "943E8435-6871-41EF-8C83-AAAA92C7EE80";
name = Light;
paths = (
{
closed = 1;
nodes = (
"554 -7 LINE",
"554 47 LINE",
"108 253 LINE",
"554 459 LINE",
"554 514 LINE",
"46 280 LINE",
"46 226 LINE"
);
}
);
width = 600;
}
);
note = less;
unicode = 003C;
},
{
glyphname = equal;
layers = (
{
layerId = "943E8435-6871-41EF-8C83-AAAA92C7EE80";
name = Light;
paths = (
{
closed = 1;
nodes = (
"552 128 LINE",
"552 181 LINE",
"49 181 LINE",
"49 128 LINE"
);
},
{
closed = 1;
nodes = (
"552 325 LINE",
"552 378 LINE",
"49 378 LINE",
"49 325 LINE"
);
}
);
width = 600;
}
);
note = equal;
unicode = 003D;
},
{
glyphname = greater;
layers = (
{
layerId = "943E8435-6871-41EF-8C83-AAAA92C7EE80";
name = Light;
paths = (
{
closed = 1;
nodes = (
"492 253 LINE",
"46 47 LINE",
"46 -7 LINE",
"554 226 LINE",
"554 280 LINE",
"46 514 LINE",
"46 459 LINE"
);
}
);
width = 600;
}
);
note = greater;
unicode = 003E;
},
{
glyphname = question;
layers = (
{
layerId = "943E8435-6871-41EF-8C83-AAAA92C7EE80";
name = Light;
paths = (
{
closed = 1;
nodes = (
"231 106 LINE",
"231 0 LINE",
"315 0 LINE",
"315 106 LINE"
);
},
{
closed = 1;
nodes = (
"117 494 LINE",
"116 546 OFFCURVE",
"129 591 OFFCURVE",
"156 624 CURVE SMOOTH",
"183 656 OFFCURVE",
"225 676 OFFCURVE",
"278 676 CURVE SMOOTH",
"317 676 OFFCURVE",
"353 662 OFFCURVE",
"379 639 CURVE SMOOTH",
"405 615 OFFCURVE",
"421 581 OFFCURVE",
"421 541 CURVE SMOOTH",
"421 489 OFFCURVE",
"393 447 OFFCURVE",
"356 412 CURVE SMOOTH",
"313 373 OFFCURVE",
"284 345 OFFCURVE",
"266 312 CURVE SMOOTH",
"248 279 OFFCURVE",
"240 240 OFFCURVE",
"241 179 CURVE",
"304 179 LINE",
"305 240 OFFCURVE",
"308 268 OFFCURVE",
"320 291 CURVE SMOOTH",
"326 302 OFFCURVE",
"335 314 OFFCURVE",
"348 326 CURVE SMOOTH",
"372 349 OFFCURVE",
"427 397 OFFCURVE",
"460 449 CURVE SMOOTH",
"476 475 OFFCURVE",
"484 507 OFFCURVE",
"484 544 CURVE SMOOTH",
"484 603 OFFCURVE",
"461 648 OFFCURVE",
"424 680 CURVE SMOOTH",
"387 712 OFFCURVE",
"337 729 OFFCURVE",
"281 729 CURVE SMOOTH",
"209 729 OFFCURVE",
"153 705 OFFCURVE",
"114 665 CURVE SMOOTH",
"74 624 OFFCURVE",
"54 565 OFFCURVE",
"54 494 CURVE"
);
}
);
width = 537;
}
);
note = question;
unicode = 003F;
},
{
glyphname = at;
lastChange = "2016-01-24 04:46:26 +0000";
layers = (
{
layerId = "943E8435-6871-41EF-8C83-AAAA92C7EE80";
name = Light;
paths = (
{
closed = 1;
nodes = (
"590 530 LINE",
"541 530 LINE",
"519 470 LINE",
"498 525 OFFCURVE",
"462 547 OFFCURVE",
"422 547 CURVE SMOOTH",
"357 547 OFFCURVE",
"302 513 OFFCURVE",
"264 463 CURVE SMOOTH",
"227 412 OFFCURVE",
"205 346 OFFCURVE",
"205 283 CURVE SMOOTH",
"205 246 OFFCURVE",
"216 214 OFFCURVE",
"237 189 CURVE SMOOTH",
"258 165 OFFCURVE",
"288 150 OFFCURVE",
"325 150 CURVE SMOOTH",
"372 150 OFFCURVE",
"413 181 OFFCURVE",
"442 210 CURVE",
"444 210 LINE",
"447 170 OFFCURVE",
"473 149 OFFCURVE",
"505 149 CURVE SMOOTH",
"556 149 OFFCURVE",
"635 160 OFFCURVE",
"679 213 CURVE SMOOTH",
"723 265 OFFCURVE",
"753 338 OFFCURVE",
"753 418 CURVE SMOOTH",
"753 510 OFFCURVE",
"716 587 OFFCURVE",
"656 643 CURVE SMOOTH",
"595 698 OFFCURVE",
"510 729 OFFCURVE",
"414 729 CURVE SMOOTH",
"313 729 OFFCURVE",
"221 689 OFFCURVE",
"154 623 CURVE SMOOTH",
"87 557 OFFCURVE",
"47 464 OFFCURVE",
"47 360 CURVE SMOOTH",
"47 255 OFFCURVE",
"86 161 OFFCURVE",
"152 94 CURVE SMOOTH",
"218 26 OFFCURVE",
"310 -14 OFFCURVE",
"418 -14 CURVE SMOOTH",
"481 -14 OFFCURVE",
"543 2 OFFCURVE",
"597 33 CURVE SMOOTH",
"651 64 OFFCURVE",
"696 108 OFFCURVE",
"727 163 CURVE",
"676 163 LINE",
"647 122 OFFCURVE",
"607 89 OFFCURVE",
"562 66 CURVE SMOOTH",
"517 43 OFFCURVE",
"467 30 OFFCURVE",
"418 30 CURVE SMOOTH",
"327 30 OFFCURVE",
"247 66 OFFCURVE",
"191 124 CURVE SMOOTH",
"134 182 OFFCURVE",
"100 262 OFFCURVE",
"100 353 CURVE SMOOTH",
"100 445 OFFCURVE",
"132 528 OFFCURVE",
"188 588 CURVE SMOOTH",
"244 647 OFFCURVE",
"323 684 OFFCURVE",
"416 684 CURVE SMOOTH",
"493 684 OFFCURVE",
"564 659 OFFCURVE",
"616 615 CURVE SMOOTH",
"668 570 OFFCURVE",
"700 504 OFFCURVE",
"700 421 CURVE SMOOTH",
"700 365 OFFCURVE",
"680 303 OFFCURVE",
"649 255 CURVE SMOOTH",
"618 207 OFFCURVE",
"554 190 OFFCURVE",
"514 190 CURVE SMOOTH",
"499 190 OFFCURVE",
"493 199 OFFCURVE",
"493 214 CURVE",
"492 228 OFFCURVE",
"496 247 OFFCURVE",
"502 266 CURVE SMOOTH"
);
},
{
closed = 1;
nodes = (
"436 499 OFFCURVE",
"454 488 OFFCURVE",
"467 472 CURVE SMOOTH",
"481 457 OFFCURVE",
"490 436 OFFCURVE",
"490 414 CURVE SMOOTH",
"490 373 OFFCURVE",
"474 319 OFFCURVE",
"446 276 CURVE SMOOTH",
"419 232 OFFCURVE",
"381 199 OFFCURVE",
"338 199 CURVE SMOOTH",
"294 199 OFFCURVE",
"262 232 OFFCURVE",
"262 287 CURVE SMOOTH",
"262 330 OFFCURVE",
"278 383 OFFCURVE",
"305 426 CURVE SMOOTH",
"333 468 OFFCURVE",
"371 499 OFFCURVE",
"418 499 CURVE SMOOTH"
);
}
);
width = 800;
}
);
note = at;
unicode = 0040;
},
{
glyphname = A;
layers = (
{
layerId = "943E8435-6871-41EF-8C83-AAAA92C7EE80";
name = Light;
paths = (
{
closed = 1;
nodes = (
"173 280 LINE",
"316 646 LINE",
"454 280 LINE"
);
},
{
closed = 1;
nodes = (
"281 714 LINE",
"-6 0 LINE",
"66 0 LINE",
"152 222 LINE",
"477 222 LINE",
"564 0 LINE",
"637 0 LINE",
"357 714 LINE"
);
}
);
width = 630;
}
);
note = A;
unicode = 0041;
},
{
glyphname = B;
layers = (
{
layerId = "943E8435-6871-41EF-8C83-AAAA92C7EE80";
name = Light;
paths = (
{
closed = 1;
nodes = (
"140 401 LINE",
"140 656 LINE",
"374 656 LINE SMOOTH",
"481 656 OFFCURVE",
"535 611 OFFCURVE",
"535 522 CURVE SMOOTH",
"535 489 OFFCURVE",
"522 459 OFFCURVE",
"495 437 CURVE SMOOTH",
"468 415 OFFCURVE",
"429 401 OFFCURVE",
"374 401 CURVE SMOOTH"
);
},
{
closed = 1;
nodes = (
"72 714 LINE",
"72 0 LINE",
"374 0 LINE SMOOTH",
"451 0 OFFCURVE",
"506 16 OFFCURVE",
"544 38 CURVE SMOOTH",
"582 60 OFFCURVE",
"603 91 OFFCURVE",
"615 121 CURVE SMOOTH",
"627 151 OFFCURVE",
"630 180 OFFCURVE",
"630 203 CURVE SMOOTH",
"630 296 OFFCURVE",
"571 365 OFFCURVE",
"479 377 CURVE",
"479 379 LINE",
"516 387 OFFCURVE",
"547 408 OFFCURVE",
"569 437 CURVE SMOOTH",
"591 465 OFFCURVE",
"603 502 OFFCURVE",
"603 539 CURVE SMOOTH",
"603 606 OFFCURVE",
"576 649 OFFCURVE",
"534 677 CURVE SMOOTH",
"492 704 OFFCURVE",
"434 714 OFFCURVE",
"374 714 CURVE SMOOTH"
);
},
{
closed = 1;
nodes = (
"140 58 LINE",
"140 343 LINE",
"374 343 LINE SMOOTH",
"495 343 OFFCURVE",
"562 297 OFFCURVE",
"562 205 CURVE SMOOTH",
"562 148 OFFCURVE",
"541 111 OFFCURVE",
"506 88 CURVE SMOOTH",
"471 65 OFFCURVE",
"425 58 OFFCURVE",
"374 58 CURVE SMOOTH"
);
}
);
width = 667;
}
);
note = B;
unicode = 0042;
},
{
glyphname = C;
layers = (
{
layerId = "943E8435-6871-41EF-8C83-AAAA92C7EE80";
name = Light;
paths = (
{
closed = 1;
nodes = (
"662 498 LINE",
"653 573 OFFCURVE",
"615 630 OFFCURVE",
"563 670 CURVE SMOOTH",
"510 709 OFFCURVE",
"443 729 OFFCURVE",
"375 729 CURVE SMOOTH",
"263 729 OFFCURVE",
"178 685 OFFCURVE",
"122 617 CURVE SMOOTH",
"66 548 OFFCURVE",
"38 456 OFFCURVE",
"38 357 CURVE SMOOTH",
"38 258 OFFCURVE",
"66 166 OFFCURVE",
"122 98 CURVE SMOOTH",
"178 30 OFFCURVE",
"263 -14 OFFCURVE",
"375 -14 CURVE SMOOTH",
"459 -14 OFFCURVE",
"528 14 OFFCURVE",
"579 63 CURVE SMOOTH",
"630 112 OFFCURVE",
"663 184 OFFCURVE",
"672 272 CURVE",
"604 272 LINE",
"597 208 OFFCURVE",
"573 151 OFFCURVE",
"534 110 CURVE SMOOTH",
"495 69 OFFCURVE",
"442 43 OFFCURVE",
"375 43 CURVE SMOOTH",
"280 43 OFFCURVE",
"213 82 OFFCURVE",
"170 142 CURVE SMOOTH",
"126 201 OFFCURVE",
"106 280 OFFCURVE",
"106 357 CURVE SMOOTH",
"106 436 OFFCURVE",
"126 513 OFFCURVE",
"170 573 CURVE SMOOTH",
"213 632 OFFCURVE",
"280 671 OFFCURVE",
"375 671 CURVE SMOOTH",
"427 671 OFFCURVE",
"475 655 OFFCURVE",
"515 626 CURVE SMOOTH",
"554 597 OFFCURVE",
"582 553 OFFCURVE",
"594 498 CURVE"
);
}
);
width = 704;
}
);
note = C;
unicode = 0043;
},
{
glyphname = D;
layers = (
{
layerId = "943E8435-6871-41EF-8C83-AAAA92C7EE80";
name = Light;
paths = (
{
closed = 1;
nodes = (
"72 714 LINE",
"72 0 LINE",
"319 0 LINE SMOOTH",
"536 5 OFFCURVE",
"647 120 OFFCURVE",
"647 357 CURVE SMOOTH",
"647 594 OFFCURVE",
"536 709 OFFCURVE",
"319 714 CURVE SMOOTH"
);
},
{
closed = 1;
nodes = (
"140 58 LINE",
"140 656 LINE",
"285 656 LINE SMOOTH",
"388 656 OFFCURVE",
"461 635 OFFCURVE",
"509 587 CURVE SMOOTH",
"557 539 OFFCURVE",
"579 464 OFFCURVE",
"579 357 CURVE SMOOTH",
"579 250 OFFCURVE",
"557 175 OFFCURVE",
"509 127 CURVE SMOOTH",
"461 79 OFFCURVE",
"388 58 OFFCURVE",
"285 58 CURVE SMOOTH"
);
}
);
width = 685;
}
);
note = D;
unicode = 0044;
},
{
glyphname = E;
layers = (
{
layerId = "943E8435-6871-41EF-8C83-AAAA92C7EE80";
name = Light;
paths = (
{
closed = 1;
nodes = (
"72 714 LINE",
"72 0 LINE",
"570 0 LINE",
"570 58 LINE",
"140 58 LINE",
"140 340 LINE",
"538 340 LINE",
"538 398 LINE",
"140 398 LINE",
"140 656 LINE",
"565 656 LINE",
"565 714 LINE"
);
}
);
width = 593;
}
);
note = E;
unicode = 0045;
},
{
glyphname = F;
lastChange = "2016-01-24 04:14:41 +0000";
layers = (
{
layerId = "943E8435-6871-41EF-8C83-AAAA92C7EE80";
name = Light;
paths = (
{
closed = 1;
nodes = (
"72 714 LINE",
"72 0 LINE",
"140 0 LINE",
"140 340 LINE",
"480 340 LINE",
"480 398 LINE",
"140 398 LINE",
"140 656 LINE",
"525 656 LINE",
"525 714 LINE"
);
}
);
width = 537;
}
);
note = F;
unicode = 0046;
},
{
glyphname = G;
lastChange = "2016-01-24 04:14:21 +0000";
layers = (
{
layerId = "943E8435-6871-41EF-8C83-AAAA92C7EE80";
name = Light;
paths = (
{
closed = 1;
nodes = (
"682 0 LINE",
"682 363 LINE",
"379 363 LINE",
"379 305 LINE",
"622 305 LINE",
"623 229 OFFCURVE",
"602 164 OFFCURVE",
"559 117 CURVE SMOOTH",
"516 70 OFFCURVE",
"454 43 OFFCURVE",
"375 43 CURVE SMOOTH",
"280 43 OFFCURVE",
"213 82 OFFCURVE",
"170 142 CURVE SMOOTH",
"126 201 OFFCURVE",
"106 280 OFFCURVE",
"106 357 CURVE SMOOTH",
"106 436 OFFCURVE",
"126 513 OFFCURVE",
"170 573 CURVE SMOOTH",
"213 632 OFFCURVE",
"280 671 OFFCURVE",
"375 671 CURVE SMOOTH",
"443 671 OFFCURVE",
"498 647 OFFCURVE",
"538 612 CURVE SMOOTH",
"577 577 OFFCURVE",
"601 533 OFFCURVE",
"605 492 CURVE",
"673 492 LINE",
"660 571 OFFCURVE",
"622 629 OFFCURVE",
"570 669 CURVE SMOOTH",
"518 709 OFFCURVE",
"450 729 OFFCURVE",
"375 729 CURVE SMOOTH",
"263 729 OFFCURVE",
"178 685 OFFCURVE",
"122 617 CURVE SMOOTH",
"66 548 OFFCURVE",
"38 456 OFFCURVE",
"38 357 CURVE SMOOTH",
"38 258 OFFCURVE",
"66 166 OFFCURVE",
"122 98 CURVE SMOOTH",
"178 30 OFFCURVE",
"263 -14 OFFCURVE",
"375 -14 CURVE SMOOTH",
"427 -14 OFFCURVE",
"476 -4 OFFCURVE",
"519 20 CURVE SMOOTH",
"562 43 OFFCURVE",
"598 79 OFFCURVE",
"622 130 CURVE",
"624 130 LINE",
"624 0 LINE"
);
}
);
width = 741;
}
);
note = G;
unicode = 0047;
},
{
glyphname = H;
layers = (
{
layerId = "943E8435-6871-41EF-8C83-AAAA92C7EE80";
name = Light;
paths = (
{
closed = 1;
nodes = (
"72 714 LINE",
"72 0 LINE",
"140 0 LINE",
"140 346 LINE",
"564 346 LINE",
"564 0 LINE",
"632 0 LINE",
"632 714 LINE",
"564 714 LINE",
"564 404 LINE",
"140 404 LINE",
"140 714 LINE"
);
}
);
width = 704;
}
);
note = H;
unicode = 0048;
},
{
glyphname = I;
layers = (
{
layerId = "943E8435-6871-41EF-8C83-AAAA92C7EE80";
name = Light;
paths = (
{
closed = 1;
nodes = (
"77 714 LINE",
"77 0 LINE",
"145 0 LINE",
"145 714 LINE"
);
}
);
width = 222;
}
);
note = I;
unicode = 0049;
},
{
glyphname = J;
lastChange = "2016-01-24 04:14:59 +0000";
layers = (
{
layerId = "943E8435-6871-41EF-8C83-AAAA92C7EE80";
name = Light;
paths = (
{
closed = 1;
nodes = (
"360 714 LINE",
"360 228 LINE SMOOTH",
"360 163 OFFCURVE",
"353 117 OFFCURVE",
"333 87 CURVE SMOOTH",
"313 57 OFFCURVE",
"279 43 OFFCURVE",
"226 43 CURVE SMOOTH",
"155 43 OFFCURVE",
"122 70 OFFCURVE",
"106 109 CURVE SMOOTH",
"90 148 OFFCURVE",
"90 184 OFFCURVE",
"89 215 CURVE",
"21 215 LINE",
"21 152 OFFCURVE",
"30 101 OFFCURVE",
"59 57 CURVE SMOOTH",
"88 12 OFFCURVE",
"139 -14 OFFCURVE",
"220 -14 CURVE SMOOTH",
"297 -14 OFFCURVE",
"349 3 OFFCURVE",
"382 38 CURVE SMOOTH",
"414 73 OFFCURVE",
"428 126 OFFCURVE",
"428 199 CURVE SMOOTH",
"428 714 LINE"
);
}
);
width = 500;
}
);
note = J;
unicode = 004A;
},
{
glyphname = K;
layers = (
{
layerId = "943E8435-6871-41EF-8C83-AAAA92C7EE80";
name = Light;
paths = (
{
closed = 1;
nodes = (
"72 714 LINE",
"72 0 LINE",
"140 0 LINE",
"140 245 LINE",
"277 372 LINE",
"574 0 LINE",
"662 0 LINE",
"328 419 LINE",
"647 714 LINE",
"555 714 LINE",
"140 330 LINE",
"140 714 LINE"
);
}
);
width = 648;
}
);
note = K;
unicode = 004B;
},
{
glyphname = L;
layers = (
{
layerId = "943E8435-6871-41EF-8C83-AAAA92C7EE80";
name = Light;
paths = (
{
closed = 1;
nodes = (
"72 714 LINE",
"72 0 LINE",
"540 0 LINE",
"540 58 LINE",
"140 58 LINE",
"140 714 LINE"
);
}
);
width = 537;
}
);
note = L;
unicode = 004C;
},
{
glyphname = M;
layers = (
{
layerId = "943E8435-6871-41EF-8C83-AAAA92C7EE80";
name = Light;
paths = (
{
closed = 1;
nodes = (
"170 714 LINE",
"407 88 LINE",
"653 714 LINE",
"753 714 LINE",
"753 0 LINE",
"685 0 LINE",
"685 617 LINE",
"683 617 LINE",
"439 0 LINE",
"375 0 LINE",
"140 617 LINE",
"138 617 LINE",
"138 0 LINE",
"70 0 LINE",
"70 714 LINE"
);
}
);
width = 821;
}
);
note = M;
unicode = 004D;
},
{
glyphname = N;
layers = (
{
layerId = "943E8435-6871-41EF-8C83-AAAA92C7EE80";
name = Light;
paths = (
{
closed = 1;
nodes = (
"71 714 LINE",
"71 0 LINE",
"139 0 LINE",
"139 604 LINE",
"141 604 LINE",
"557 0 LINE",
"633 0 LINE",
"633 714 LINE",
"565 714 LINE",
"565 110 LINE",
"563 110 LINE",
"147 714 LINE"
);
}
);
width = 704;
}
);
note = N;
unicode = 004E;
},
{
glyphname = O;
layers = (
{
layerId = "943E8435-6871-41EF-8C83-AAAA92C7EE80";
name = Light;
paths = (
{
closed = 1;
nodes = (
"102 436 OFFCURVE",
"122 513 OFFCURVE",
"166 573 CURVE SMOOTH",
"209 632 OFFCURVE",
"276 671 OFFCURVE",
"371 671 CURVE SMOOTH",
"466 671 OFFCURVE",
"532 632 OFFCURVE",
"576 573 CURVE SMOOTH",
"619 513 OFFCURVE",
"639 436 OFFCURVE",
"639 357 CURVE SMOOTH",
"639 280 OFFCURVE",
"619 201 OFFCURVE",
"576 142 CURVE SMOOTH",
"532 82 OFFCURVE",
"466 43 OFFCURVE",
"371 43 CURVE SMOOTH",
"276 43 OFFCURVE",
"209 82 OFFCURVE",
"166 142 CURVE SMOOTH",
"122 201 OFFCURVE",
"102 280 OFFCURVE",
"102 357 CURVE SMOOTH"
);
},
{
closed = 1;
nodes = (
"34 258 OFFCURVE",
"62 166 OFFCURVE",
"118 98 CURVE SMOOTH",
"174 30 OFFCURVE",
"259 -14 OFFCURVE",
"371 -14 CURVE SMOOTH",
"483 -14 OFFCURVE",
"567 30 OFFCURVE",
"623 98 CURVE SMOOTH",
"679 166 OFFCURVE",
"707 258 OFFCURVE",
"707 357 CURVE SMOOTH",
"707 456 OFFCURVE",
"679 548 OFFCURVE",
"623 617 CURVE SMOOTH",
"567 685 OFFCURVE",
"483 729 OFFCURVE",
"371 729 CURVE SMOOTH",
"259 729 OFFCURVE",
"174 685 OFFCURVE",
"118 617 CURVE SMOOTH",
"62 548 OFFCURVE",
"34 456 OFFCURVE",
"34 357 CURVE SMOOTH"
);
}
);
width = 741;
}
);
note = O;
unicode = 004F;
},
{
glyphname = P;
layers = (
{
layerId = "943E8435-6871-41EF-8C83-AAAA92C7EE80";
name = Light;
paths = (
{
closed = 1;
nodes = (
"140 364 LINE",
"140 656 LINE",
"374 656 LINE SMOOTH",
"469 656 OFFCURVE",
"533 609 OFFCURVE",
"533 510 CURVE SMOOTH",
"533 411 OFFCURVE",
"469 364 OFFCURVE",
"374 364 CURVE SMOOTH"
);
},
{
closed = 1;
nodes = (
"72 714 LINE",
"72 0 LINE",
"140 0 LINE",
"140 306 LINE",
"389 306 LINE SMOOTH",
"453 306 OFFCURVE",
"506 324 OFFCURVE",
"543 360 CURVE SMOOTH",
"580 395 OFFCURVE",
"601 446 OFFCURVE",
"601 510 CURVE SMOOTH",
"601 574 OFFCURVE",
"580 625 OFFCURVE",
"543 661 CURVE SMOOTH",
"506 696 OFFCURVE",
"453 714 OFFCURVE",
"389 714 CURVE SMOOTH"
);
}
);
width = 630;
}
);
note = P;
unicode = 0050;
},
{
glyphname = Q;
lastChange = "2016-01-24 04:29:31 +0000";
layers = (
{
layerId = "943E8435-6871-41EF-8C83-AAAA92C7EE80";
name = Light;
paths = (
{
closed = 1;
nodes = (
"625 -37 LINE",
"670 9 LINE",
"601 77 LINE",
"673 146 OFFCURVE",
"707 245 OFFCURVE",
"707 357 CURVE SMOOTH",
"707 456 OFFCURVE",
"679 548 OFFCURVE",
"623 617 CURVE SMOOTH",
"567 685 OFFCURVE",
"483 729 OFFCURVE",
"371 729 CURVE SMOOTH",
"259 729 OFFCURVE",
"174 685 OFFCURVE",
"118 617 CURVE SMOOTH",
"62 548 OFFCURVE",
"34 456 OFFCURVE",
"34 357 CURVE SMOOTH",
"34 258 OFFCURVE",
"62 166 OFFCURVE",
"118 98 CURVE SMOOTH",
"174 30 OFFCURVE",
"259 -14 OFFCURVE",
"371 -14 CURVE SMOOTH",
"446 -14 OFFCURVE",
"503 1 OFFCURVE",
"552 36 CURVE"
);
},
{
closed = 1;
nodes = (
"481 195 LINE",
"436 151 LINE",
"507 81 LINE",
"470 58 OFFCURVE",
"422 43 OFFCURVE",
"371 43 CURVE SMOOTH",
"276 43 OFFCURVE",
"209 82 OFFCURVE",
"166 142 CURVE SMOOTH",
"122 201 OFFCURVE",
"102 280 OFFCURVE",
"102 357 CURVE SMOOTH",
"102 436 OFFCURVE",
"122 513 OFFCURVE",
"166 573 CURVE SMOOTH",
"209 632 OFFCURVE",
"276 671 OFFCURVE",
"371 671 CURVE SMOOTH",
"466 671 OFFCURVE",
"532 632 OFFCURVE",
"576 573 CURVE SMOOTH",
"619 513 OFFCURVE",
"639 436 OFFCURVE",
"639 357 CURVE SMOOTH",
"639 265 OFFCURVE",
"620 181 OFFCURVE",
"556 121 CURVE"
);
}
);
width = 741;
}
);
note = Q;
unicode = 0051;
},
{
glyphname = R;
lastChange = "2016-01-24 04:22:43 +0000";
layers = (
{
layerId = "943E8435-6871-41EF-8C83-AAAA92C7EE80";
name = Light;
paths = (
{
closed = 1;
nodes = (
"140 375 LINE",
"140 656 LINE",
"394 656 LINE SMOOTH",
"498 656 OFFCURVE",
"548 602 OFFCURVE",
"548 514 CURVE SMOOTH",
"548 470 OFFCURVE",
"530 436 OFFCURVE",
"502 412 CURVE SMOOTH",
"474 388 OFFCURVE",
"435 375 OFFCURVE",
"394 375 CURVE SMOOTH"
);
},
{
closed = 1;
nodes = (
"72 714 LINE",
"72 0 LINE",
"140 0 LINE",
"140 317 LINE",
"398 317 LINE",
"462 320 OFFCURVE",
"510 289 OFFCURVE",
"530 250 CURVE SMOOTH",
"549 210 OFFCURVE",
"547 162 OFFCURVE",
"547 111 CURVE",
"547 0 LINE",
"616 0 LINE",
"617 139 LINE",
"617 174 OFFCURVE",
"617 205 OFFCURVE",
"610 243 CURVE SMOOTH",
"599 306 OFFCURVE",
"573 338 OFFCURVE",
"502 347 CURVE",
"502 349 LINE",
"594 368 OFFCURVE",
"616 437 OFFCURVE",
"616 528 CURVE SMOOTH",
"616 592 OFFCURVE",
"591 640 OFFCURVE",
"552 670 CURVE SMOOTH",
"512 700 OFFCURVE",
"458 714 OFFCURVE",
"399 714 CURVE SMOOTH"
);
}
);
width = 667;
}
);
note = R;
unicode = 0052;
},
{
glyphname = S;
layers = (
{
layerId = "943E8435-6871-41EF-8C83-AAAA92C7EE80";
name = Light;
paths = (
{
closed = 1;
nodes = (
"36 235 LINE",
"32 147 OFFCURVE",
"61 85 OFFCURVE",
"112 45 CURVE SMOOTH",
"163 5 OFFCURVE",
"237 -14 OFFCURVE",
"321 -14 CURVE SMOOTH",
"405 -14 OFFCURVE",
"464 3 OFFCURVE",
"505 28 CURVE SMOOTH",
"545 52 OFFCURVE",
"567 85 OFFCURVE",
"580 115 CURVE SMOOTH",
"592 145 OFFCURVE",
"594 173 OFFCURVE",
"594 189 CURVE SMOOTH",
"594 248 OFFCURVE",
"574 288 OFFCURVE",
"540 317 CURVE SMOOTH",
"506 345 OFFCURVE",
"460 364 OFFCURVE",
"409 377 CURVE SMOOTH",
"235 420 LINE SMOOTH",
"206 427 OFFCURVE",
"179 437 OFFCURVE",
"159 454 CURVE SMOOTH",
"139 471 OFFCURVE",
"127 496 OFFCURVE",
"127 529 CURVE SMOOTH",
"127 582 OFFCURVE",
"149 618 OFFCURVE",
"182 640 CURVE SMOOTH",
"214 662 OFFCURVE",
"259 671 OFFCURVE",
"306 671 CURVE SMOOTH",
"357 671 OFFCURVE",
"404 657 OFFCURVE",
"440 630 CURVE SMOOTH",
"475 602 OFFCURVE",
"498 562 OFFCURVE",
"501 507 CURVE",
"569 507 LINE",
"569 580 OFFCURVE",
"538 636 OFFCURVE",
"490 673 CURVE SMOOTH",
"442 710 OFFCURVE",
"376 729 OFFCURVE",
"305 729 CURVE SMOOTH",
"205 729 OFFCURVE",
"143 696 OFFCURVE",
"107 655 CURVE SMOOTH",
"70 614 OFFCURVE",
"59 563 OFFCURVE",
"59 528 CURVE SMOOTH",
"59 472 OFFCURVE",
"79 435 OFFCURVE",
"108 408 CURVE SMOOTH",
"137 381 OFFCURVE",
"179 367 OFFCURVE",
"220 356 CURVE SMOOTH",
"379 317 LINE SMOOTH",
"412 309 OFFCURVE",
"449 297 OFFCURVE",
"478 277 CURVE SMOOTH",
"506 257 OFFCURVE",
"526 228 OFFCURVE",
"526 188 CURVE SMOOTH",
"526 136 OFFCURVE",
"498 100 OFFCURVE",
"460 77 CURVE SMOOTH",
"422 53 OFFCURVE",
"374 43 OFFCURVE",
"337 43 CURVE SMOOTH",
"272 43 OFFCURVE",
"213 55 OFFCURVE",
"171 84 CURVE SMOOTH",
"129 113 OFFCURVE",
"103 162 OFFCURVE",
"104 235 CURVE"
);
}
);
width = 630;
}
);
note = S;
unicode = 0053;
},
{
glyphname = T;
layers = (
{
layerId = "943E8435-6871-41EF-8C83-AAAA92C7EE80";
name = Light;
paths = (
{
closed = 1;
nodes = (
"-4 714 LINE",
"-4 656 LINE",
"244 656 LINE",
"244 0 LINE",
"312 0 LINE",
"312 656 LINE",
"561 656 LINE",
"561 714 LINE"
);
}
);
width = 556;
}
);
note = T;
unicode = 0054;
},
{
glyphname = U;
layers = (
{
layerId = "943E8435-6871-41EF-8C83-AAAA92C7EE80";
name = Light;
paths = (
{
closed = 1;
nodes = (
"65 714 LINE",
"65 257 LINE SMOOTH",
"65 184 OFFCURVE",
"85 115 OFFCURVE",
"130 66 CURVE SMOOTH",
"174 17 OFFCURVE",
"243 -14 OFFCURVE",
"342 -14 CURVE SMOOTH",
"442 -14 OFFCURVE",
"511 17 OFFCURVE",
"556 66 CURVE SMOOTH",
"600 115 OFFCURVE",
"620 184 OFFCURVE",
"620 257 CURVE SMOOTH",
"620 714 LINE",
"552 714 LINE",
"552 272 LINE SMOOTH",
"552 189 OFFCURVE",
"533 132 OFFCURVE",
"497 96 CURVE SMOOTH",
"461 59 OFFCURVE",
"409 43 OFFCURVE",
"342 43 CURVE SMOOTH",
"277 43 OFFCURVE",
"224 59 OFFCURVE",
"188 96 CURVE SMOOTH",
"152 132 OFFCURVE",
"133 189 OFFCURVE",
"133 272 CURVE SMOOTH",
"133 714 LINE"
);
}
);
width = 685;
}
);
note = U;
unicode = 0055;
},
{
glyphname = V;
layers = (
{
layerId = "943E8435-6871-41EF-8C83-AAAA92C7EE80";
name = Light;
paths = (
{
closed = 1;
nodes = (
"-6 714 LINE",
"258 0 LINE",
"337 0 LINE",
"602 714 LINE",
"530 714 LINE",
"300 75 LINE",
"298 75 LINE",
"66 714 LINE"
);
}
);
width = 593;
}
);
note = V;
unicode = 0056;
},
{
glyphname = W;
layers = (
{
layerId = "943E8435-6871-41EF-8C83-AAAA92C7EE80";
name = Light;
paths = (
{
closed = 1;
nodes = (
"0 714 LINE",
"198 0 LINE",
"272 0 LINE",
"452 639 LINE",
"454 639 LINE",
"635 0 LINE",
"707 0 LINE",
"904 714 LINE",
"836 714 LINE",
"673 89 LINE",
"671 89 LINE",
"496 714 LINE",
"411 714 LINE",
"237 89 LINE",
"235 89 LINE",
"73 714 LINE"
);
}
);
width = 907;
}
);
note = W;
unicode = 0057;
},
{
glyphname = X;
layers = (
{
layerId = "943E8435-6871-41EF-8C83-AAAA92C7EE80";
name = Light;
paths = (
{
closed = 1;
nodes = (
"3 714 LINE",
"245 368 LINE",
"-11 0 LINE",
"65 0 LINE",
"285 315 LINE",
"502 0 LINE",
"584 0 LINE",
"326 366 LINE",
"570 714 LINE",
"494 714 LINE",
"285 415 LINE",
"83 714 LINE"
);
}
);
width = 574;
}
);
note = X;
unicode = 0058;
},
{
glyphname = Y;
layers = (
{
layerId = "943E8435-6871-41EF-8C83-AAAA92C7EE80";
name = Light;
paths = (
{
closed = 1;
nodes = (
"271 294 LINE",
"271 0 LINE",
"339 0 LINE",
"339 294 LINE",
"621 714 LINE",
"540 714 LINE",
"306 352 LINE",
"71 714 LINE",
"-9 714 LINE"
);
}
);
width = 611;
}
);
note = Y;
unicode = 0059;
},
{
glyphname = Z;
layers = (
{
layerId = "943E8435-6871-41EF-8C83-AAAA92C7EE80";
name = Light;
paths = (
{
closed = 1;
nodes = (
"37 714 LINE",
"37 656 LINE",
"475 656 LINE",
"5 60 LINE",
"5 0 LINE",
"561 0 LINE",
"561 58 LINE",
"81 58 LINE",
"551 654 LINE",
"551 714 LINE"
);
}
);
width = 574;
}
);
note = Z;
unicode = 005A;
},
{
glyphname = bracketleft;
layers = (
{
layerId = "943E8435-6871-41EF-8C83-AAAA92C7EE80";
name = Light;
paths = (
{
closed = 1;
nodes = (
"76 -190 LINE",
"237 -190 LINE",
"237 -137 LINE",
"139 -137 LINE",
"139 676 LINE",
"237 676 LINE",
"237 729 LINE",
"76 729 LINE"
);
}
);
width = 241;
}
);
note = bracketleft;
unicode = 005B;
},
{
glyphname = backslash;
layers = (
{
layerId = "943E8435-6871-41EF-8C83-AAAA92C7EE80";
name = Light;
paths = (
{
closed = 1;
nodes = (
"292 -14 LINE",
"346 -14 LINE",
"38 729 LINE",
"-12 729 LINE"
);
}
);
width = 333;
}
);
note = backslash;
unicode = 005C;
},
{
glyphname = bracketright;
layers = (
{
layerId = "943E8435-6871-41EF-8C83-AAAA92C7EE80";
name = Light;
paths = (
{
closed = 1;
nodes = (
"165 729 LINE",
"4 729 LINE",
"4 676 LINE",
"102 676 LINE",
"102 -137 LINE",
"4 -137 LINE",
"4 -190 LINE",
"165 -190 LINE"
);
}
);
width = 241;
}
);
note = bracketright;
unicode = 005D;
},
{
glyphname = asciicircum;
layers = (
{
layerId = "943E8435-6871-41EF-8C83-AAAA92C7EE80";
name = Light;
paths = (
{
closed = 1;
nodes = (
"44 238 LINE",
"102 238 LINE",
"299 628 LINE",
"499 238 LINE",
"556 238 LINE",
"326 691 LINE",
"274 691 LINE"
);
}
);
width = 600;
}
);
note = asciicircum;
unicode = 005E;
},
{
glyphname = underscore;
layers = (
{
layerId = "943E8435-6871-41EF-8C83-AAAA92C7EE80";
name = Light;
paths = (
{
closed = 1;
nodes = (
"0 -124 LINE",
"500 -124 LINE",
"500 -74 LINE",
"0 -74 LINE"
);
}
);
width = 500;
}
);
note = underscore;
unicode = 005F;
},
{
glyphname = grave;
layers = (
{
layerId = "943E8435-6871-41EF-8C83-AAAA92C7EE80";
name = Light;
paths = (
{
closed = 1;
nodes = (
"-30 729 LINE",
"101 588 LINE",
"152 588 LINE",
"47 729 LINE"
);
}
);
width = 185;
}
);
note = grave;
unicode = 0060;
},
{
glyphname = a;
lastChange = "2016-01-24 16:28:27 +0000";
layers = (
{
layerId = "943E8435-6871-41EF-8C83-AAAA92C7EE80";
name = Light;
paths = (
{
closed = 1;
nodes = (
"117 364 LINE",
"120 448 OFFCURVE",
"175 478 OFFCURVE",
"255 478 CURVE SMOOTH",
"292 478 OFFCURVE",
"326 473 OFFCURVE",
"351 457 CURVE SMOOTH",
"375 441 OFFCURVE",
"390 415 OFFCURVE",
"390 372 CURVE SMOOTH",
"390 344 OFFCURVE",
"382 328 OFFCURVE",
"369 318 CURVE SMOOTH",
"356 308 OFFCURVE",
"336 305 OFFCURVE",
"309 302 CURVE SMOOTH",
"241 294 OFFCURVE",
"177 288 OFFCURVE",
"125 267 CURVE SMOOTH",
"72 246 OFFCURVE",
"37 212 OFFCURVE",
"37 140 CURVE SMOOTH",
"37 88 OFFCURVE",
"56 50 OFFCURVE",
"88 26 CURVE",
"119 1 OFFCURVE",
"157 -8 OFFCURVE",
"205 -8 CURVE SMOOTH",
"256 -8 OFFCURVE",
"291 0 OFFCURVE",
"320 17 CURVE SMOOTH",
"348 34 OFFCURVE",
"367 45 OFFCURVE",
"393 75 CURVE",
"395 75 LINE",
"395 10 LINE",
"453 10 LINE",
"453 365 LINE SMOOTH",
"453 434 OFFCURVE",
"428 476 OFFCURVE",
"392 500 CURVE SMOOTH",
"356 524 OFFCURVE",
"308 531 OFFCURVE",
"263 531 CURVE SMOOTH",
"203 531 OFFCURVE",
"153 518 OFFCURVE",
"117 490 CURVE SMOOTH",
"80 462 OFFCURVE",
"58 424 OFFCURVE",
"54 364 CURVE"
);
},
{
closed = 1;
nodes = (
"390 269 LINE",
"390 200 LINE SMOOTH",
"390 149 OFFCURVE",
"368 114 OFFCURVE",
"336 86 CURVE SMOOTH",
"303 58 OFFCURVE",
"262 43 OFFCURVE",
"214 43 CURVE SMOOTH",
"185 43 OFFCURVE",
"151 52 OFFCURVE",
"130 70 CURVE SMOOTH",
"109 88 OFFCURVE",
"95 112 OFFCURVE",
"95 144 CURVE SMOOTH",
"95 195 OFFCURVE",
"128 215 OFFCURVE",
"175 230 CURVE SMOOTH",
"198 237 OFFCURVE",
"224 243 OFFCURVE",
"253 247 CURVE SMOOTH",
"281 250 OFFCURVE",
"308 254 OFFCURVE",
"335 259 CURVE SMOOTH",
"352 262 OFFCURVE",
"371 265 OFFCURVE",
"389 273 CURVE"
);
}
);
width = 507;
}
);
note = a;
unicode = 0061;
},
{
glyphname = b;
layers = (
{
layerId = "943E8435-6871-41EF-8C83-AAAA92C7EE80";
name = Light;
paths = (
{
closed = 1;
nodes = (
"60 714 LINE",
"60 0 LINE",
"118 0 LINE",
"118 98 LINE",
"120 98 LINE",
"149 26 OFFCURVE",
"220 -14 OFFCURVE",
"304 -14 CURVE SMOOTH",
"383 -14 OFFCURVE",
"440 17 OFFCURVE",
"479 67 CURVE SMOOTH",
"518 117 OFFCURVE",
"536 185 OFFCURVE",
"536 258 CURVE SMOOTH",
"536 331 OFFCURVE",
"518 400 OFFCURVE",
"479 450 CURVE SMOOTH",
"440 500 OFFCURVE",
"383 531 OFFCURVE",
"304 531 CURVE SMOOTH",
"267 531 OFFCURVE",
"228 522 OFFCURVE",
"196 503 CURVE SMOOTH",
"164 483 OFFCURVE",
"138 455 OFFCURVE",
"125 418 CURVE",
"123 418 LINE",
"123 714 LINE"
);
},
{
closed = 1;
nodes = (
"473 205 OFFCURVE",
"461 149 OFFCURVE",
"434 108 CURVE SMOOTH",
"406 67 OFFCURVE",
"364 38 OFFCURVE",
"304 38 CURVE SMOOTH",
"237 38 OFFCURVE",
"192 67 OFFCURVE",
"164 108 CURVE SMOOTH",
"135 149 OFFCURVE",
"123 205 OFFCURVE",
"123 258 CURVE SMOOTH",
"123 311 OFFCURVE",
"135 367 OFFCURVE",
"164 408 CURVE SMOOTH",
"192 449 OFFCURVE",
"237 478 OFFCURVE",
"304 478 CURVE SMOOTH",
"364 478 OFFCURVE",
"406 449 OFFCURVE",
"434 408 CURVE SMOOTH",
"461 367 OFFCURVE",
"473 311 OFFCURVE",
"473 258 CURVE SMOOTH"
);
}
);
width = 574;
}
);
note = b;
unicode = 0062;
},
{
glyphname = c;
lastChange = "2016-01-24 04:34:09 +0000";
layers = (
{
layerId = "943E8435-6871-41EF-8C83-AAAA92C7EE80";
name = Light;
paths = (
{
closed = 1;
nodes = (
"487 364 LINE",
"472 483 OFFCURVE",
"389 531 OFFCURVE",
"278 531 CURVE SMOOTH",
"199 531 OFFCURVE",
"138 499 OFFCURVE",
"97 450 CURVE SMOOTH",
"56 401 OFFCURVE",
"34 333 OFFCURVE",
"34 258 CURVE SMOOTH",
"34 183 OFFCURVE",
"56 115 OFFCURVE",
"97 66 CURVE SMOOTH",
"138 17 OFFCURVE",
"199 -14 OFFCURVE",
"278 -14 CURVE SMOOTH",
"395 -14 OFFCURVE",
"474 50 OFFCURVE",
"491 175 CURVE",
"428 175 LINE",
"424 132 OFFCURVE",
"406 101 OFFCURVE",
"379 75 CURVE SMOOTH",
"352 49 OFFCURVE",
"317 38 OFFCURVE",
"278 38 CURVE SMOOTH",
"218 38 OFFCURVE",
"173 66 OFFCURVE",
"143 107 CURVE SMOOTH",
"113 148 OFFCURVE",
"97 203 OFFCURVE",
"97 258 CURVE SMOOTH",
"97 313 OFFCURVE",
"113 368 OFFCURVE",
"143 409 CURVE SMOOTH",
"173 450 OFFCURVE",
"218 478 OFFCURVE",
"278 478 CURVE SMOOTH",
"362 478 OFFCURVE",
"407 441 OFFCURVE",
"424 364 CURVE"
);
}
);
width = 519;
}
);
note = c;
unicode = 0063;
},
{
glyphname = d;
layers = (
{
layerId = "943E8435-6871-41EF-8C83-AAAA92C7EE80";
name = Light;
paths = (
{
closed = 1;
nodes = (
"514 0 LINE",
"514 714 LINE",
"451 714 LINE",
"451 418 LINE",
"449 418 LINE",
"436 455 OFFCURVE",
"410 483 OFFCURVE",
"378 503 CURVE SMOOTH",
"346 522 OFFCURVE",
"309 531 OFFCURVE",
"270 531 CURVE SMOOTH",
"191 531 OFFCURVE",
"134 500 OFFCURVE",
"95 450 CURVE SMOOTH",
"56 400 OFFCURVE",
"38 331 OFFCURVE",
"38 258 CURVE SMOOTH",
"38 185 OFFCURVE",
"56 117 OFFCURVE",
"95 67 CURVE SMOOTH",
"134 17 OFFCURVE",
"191 -14 OFFCURVE",
"270 -14 CURVE SMOOTH",
"307 -14 OFFCURVE",
"347 -3 OFFCURVE",
"380 17 CURVE SMOOTH",
"413 36 OFFCURVE",
"441 65 OFFCURVE",
"454 98 CURVE",
"456 98 LINE",
"456 0 LINE"
);
},
{
closed = 1;
nodes = (
"101 311 OFFCURVE",
"113 367 OFFCURVE",
"141 408 CURVE SMOOTH",
"168 449 OFFCURVE",
"210 478 OFFCURVE",
"270 478 CURVE SMOOTH",
"337 478 OFFCURVE",
"382 449 OFFCURVE",
"411 408 CURVE SMOOTH",
"439 367 OFFCURVE",
"451 311 OFFCURVE",
"451 258 CURVE SMOOTH",
"451 205 OFFCURVE",
"439 149 OFFCURVE",
"411 108 CURVE SMOOTH",
"382 67 OFFCURVE",
"337 38 OFFCURVE",
"270 38 CURVE SMOOTH",
"210 38 OFFCURVE",
"168 67 OFFCURVE",
"141 108 CURVE SMOOTH",
"113 149 OFFCURVE",
"101 205 OFFCURVE",
"101 258 CURVE SMOOTH"
);
}
);
width = 574;
}
);
note = d;
unicode = 0064;
},
{
glyphname = e;
lastChange = "2016-01-24 04:35:07 +0000";
layers = (
{
layerId = "943E8435-6871-41EF-8C83-AAAA92C7EE80";
name = Light;
paths = (
{
closed = 1;
nodes = (
"97 304 LINE",
"102 351 OFFCURVE",
"119 388 OFFCURVE",
"147 422 CURVE SMOOTH",
"175 456 OFFCURVE",
"215 478 OFFCURVE",
"267 478 CURVE SMOOTH",
"318 478 OFFCURVE",
"358 456 OFFCURVE",
"386 422 CURVE SMOOTH",
"414 388 OFFCURVE",
"430 352 OFFCURVE",
"431 304 CURVE"
);
},
{
closed = 1;
nodes = (
"494 251 LINE",
"497 323 OFFCURVE",
"481 387 OFFCURVE",
"445 441 CURVE SMOOTH",
"408 495 OFFCURVE",
"350 531 OFFCURVE",
"267 531 CURVE SMOOTH",
"186 531 OFFCURVE",
"126 497 OFFCURVE",
"89 446 CURVE SMOOTH",
"52 394 OFFCURVE",
"34 336 OFFCURVE",
"34 268 CURVE SMOOTH",
"34 195 OFFCURVE",
"52 117 OFFCURVE",
"89 67 CURVE SMOOTH",
"126 17 OFFCURVE",
"186 -14 OFFCURVE",
"267 -14 CURVE SMOOTH",
"398 -14 OFFCURVE",
"465 43 OFFCURVE",
"492 160 CURVE",
"429 160 LINE",
"409 80 OFFCURVE",
"359 38 OFFCURVE",
"267 38 CURVE SMOOTH",
"207 38 OFFCURVE",
"165 66 OFFCURVE",
"137 105 CURVE SMOOTH",
"109 144 OFFCURVE",
"97 206 OFFCURVE",
"97 251 CURVE"
);
}
);
width = 519;
}
);
note = e;
unicode = 0065;
},
{
glyphname = f;
lastChange = "2016-01-24 04:35:38 +0000";
layers = (
{
layerId = "943E8435-6871-41EF-8C83-AAAA92C7EE80";
name = Light;
paths = (
{
closed = 1;
nodes = (
"249 463 LINE",
"249 516 LINE",
"157 516 LINE",
"157 561 LINE SMOOTH",
"157 589 OFFCURVE",
"157 614 OFFCURVE",
"166 632 CURVE",
"174 650 OFFCURVE",
"191 661 OFFCURVE",
"226 661 CURVE SMOOTH",
"241 661 OFFCURVE",
"255 659 OFFCURVE",
"272 656 CURVE",
"272 710 LINE",
"252 713 OFFCURVE",
"238 714 OFFCURVE",
"219 714 CURVE SMOOTH",
"168 714 OFFCURVE",
"137 699 OFFCURVE",
"118 672 CURVE SMOOTH",
"99 645 OFFCURVE",
"94 607 OFFCURVE",
"94 563 CURVE SMOOTH",
"94 516 LINE",
"16 516 LINE",
"16 463 LINE",
"94 463 LINE",
"94 0 LINE",
"157 0 LINE",
"157 463 LINE"
);
}
);
width = 259;
}
);
note = f;
unicode = 0066;
},
{
glyphname = g;
lastChange = "2016-01-24 04:37:30 +0000";
layers = (
{
layerId = "943E8435-6871-41EF-8C83-AAAA92C7EE80";
name = Light;
paths = (
{
closed = 1;
nodes = (
"496 506 LINE",
"433 506 LINE",
"433 427 LINE",
"431 427 LINE",
"419 455 OFFCURVE",
"396 481 OFFCURVE",
"368 501 CURVE SMOOTH",
"340 520 OFFCURVE",
"306 528 OFFCURVE",
"267 528 CURVE SMOOTH",
"192 528 OFFCURVE",
"134 499 OFFCURVE",
"95 452 CURVE SMOOTH",
"55 404 OFFCURVE",
"34 342 OFFCURVE",
"34 271 CURVE SMOOTH",
"34 198 OFFCURVE",
"51 131 OFFCURVE",
"89 83 CURVE SMOOTH",
"127 35 OFFCURVE",
"184 6 OFFCURVE",
"267 6 CURVE SMOOTH",
"343 6 OFFCURVE",
"402 48 OFFCURVE",
"431 112 CURVE",
"433 112 LINE",
"433 42 LINE SMOOTH",
"433 -83 OFFCURVE",
"384 -152 OFFCURVE",
"267 -152 CURVE SMOOTH",
"232 -152 OFFCURVE",
"198 -147 OFFCURVE",
"171 -131 CURVE SMOOTH",
"143 -115 OFFCURVE",
"123 -94 OFFCURVE",
"116 -55 CURVE",
"53 -55 LINE",
"57 -110 OFFCURVE",
"85 -145 OFFCURVE",
"125 -170 CURVE SMOOTH",
"164 -195 OFFCURVE",
"215 -205 OFFCURVE",
"267 -205 CURVE SMOOTH",
"351 -205 OFFCURVE",
"408 -182 OFFCURVE",
"444 -139 CURVE SMOOTH",
"480 -96 OFFCURVE",
"496 -34 OFFCURVE",
"496 42 CURVE SMOOTH"
);
},
{
closed = 1;
nodes = (
"208 59 OFFCURVE",
"166 85 OFFCURVE",
"138 123 CURVE SMOOTH",
"110 161 OFFCURVE",
"94 212 OFFCURVE",
"94 264 CURVE SMOOTH",
"94 317 OFFCURVE",
"109 371 OFFCURVE",
"137 411 CURVE SMOOTH",
"165 451 OFFCURVE",
"207 478 OFFCURVE",
"267 478 CURVE SMOOTH",
"327 478 OFFCURVE",
"368 450 OFFCURVE",
"395 409 CURVE SMOOTH",
"422 368 OFFCURVE",
"433 315 OFFCURVE",
"433 264 CURVE SMOOTH",
"433 212 OFFCURVE",
"419 161 OFFCURVE",
"391 123 CURVE SMOOTH",
"363 85 OFFCURVE",
"322 59 OFFCURVE",
"267 59 CURVE SMOOTH"
);
}
);
width = 556;
}
);
note = g;
unicode = 0067;
},
{
glyphname = h;
layers = (
{
layerId = "943E8435-6871-41EF-8C83-AAAA92C7EE80";
name = Light;
paths = (
{
closed = 1;
nodes = (
"59 714 LINE",
"59 0 LINE",
"122 0 LINE",
"122 301 LINE SMOOTH",
"123 352 OFFCURVE",
"139 396 OFFCURVE",
"167 428 CURVE SMOOTH",
"194 459 OFFCURVE",
"233 478 OFFCURVE",
"284 478 CURVE SMOOTH",
"335 478 OFFCURVE",
"368 461 OFFCURVE",
"388 433 CURVE SMOOTH",
"408 405 OFFCURVE",
"415 366 OFFCURVE",
"415 322 CURVE SMOOTH",
"415 0 LINE",
"478 0 LINE",
"478 332 LINE SMOOTH",
"478 393 OFFCURVE",
"467 444 OFFCURVE",
"438 478 CURVE SMOOTH",
"409 512 OFFCURVE",
"361 531 OFFCURVE",
"289 531 CURVE SMOOTH",
"216 531 OFFCURVE",
"148 490 OFFCURVE",
"124 427 CURVE",
"122 427 LINE",
"122 714 LINE"
);
}
);
width = 537;
}
);
note = h;
unicode = 0068;
},
{
glyphname = i;
lastChange = "2016-01-24 04:37:49 +0000";
layers = (
{
layerId = "943E8435-6871-41EF-8C83-AAAA92C7EE80";
name = Light;
paths = (
{
closed = 1;
nodes = (
"61 714 LINE",
"61 623 LINE",
"124 623 LINE",
"124 714 LINE"
);
},
{
closed = 1;
nodes = (
"61 516 LINE",
"61 0 LINE",
"124 0 LINE",
"124 516 LINE"
);
}
);
width = 185;
}
);
note = i;
unicode = 0069;
},
{
glyphname = j;
lastChange = "2016-01-24 04:38:40 +0000";
layers = (
{
layerId = "943E8435-6871-41EF-8C83-AAAA92C7EE80";
name = Light;
paths = (
{
closed = 1;
nodes = (
"61 714 LINE",
"61 623 LINE",
"124 623 LINE",
"124 714 LINE"
);
},
{
closed = 1;
nodes = (
"61 516 LINE",
"61 -62 LINE SMOOTH",
"61 -105 OFFCURVE",
"53 -137 OFFCURVE",
"4 -137 CURVE",
"-9 -137 LINE",
"-9 -190 LINE",
"14 -190 LINE",
"58 -190 OFFCURVE",
"86 -173 OFFCURVE",
"103 -147 CURVE SMOOTH",
"119 -121 OFFCURVE",
"124 -86 OFFCURVE",
"124 -47 CURVE SMOOTH",
"124 516 LINE"
);
}
);
width = 185;
}
);
note = j;
unicode = 006A;
},
{
glyphname = k;
layers = (
{
layerId = "943E8435-6871-41EF-8C83-AAAA92C7EE80";
name = Light;
paths = (
{
closed = 1;
nodes = (
"60 714 LINE",
"60 0 LINE",
"123 0 LINE",
"123 196 LINE",
"225 281 LINE",
"429 0 LINE",
"508 0 LINE",
"273 325 LINE",
"493 516 LINE",
"409 516 LINE",
"123 266 LINE",
"123 714 LINE"
);
}
);
width = 500;
}
);
note = k;
unicode = 006B;
},
{
glyphname = l;
layers = (
{
layerId = "943E8435-6871-41EF-8C83-AAAA92C7EE80";
name = Light;
paths = (
{
closed = 1;
nodes = (
"61 714 LINE",
"61 0 LINE",
"124 0 LINE",
"124 714 LINE"
);
}
);
width = 185;
}
);
note = l;
unicode = 006C;
},
{
glyphname = m;
layers = (
{
layerId = "943E8435-6871-41EF-8C83-AAAA92C7EE80";
name = Light;
paths = (
{
closed = 1;
nodes = (
"60 516 LINE",
"60 0 LINE",
"123 0 LINE",
"123 288 LINE SMOOTH",
"123 343 OFFCURVE",
"135 390 OFFCURVE",
"160 424 CURVE SMOOTH",
"184 458 OFFCURVE",
"224 478 OFFCURVE",
"277 478 CURVE SMOOTH",
"317 478 OFFCURVE",
"345 464 OFFCURVE",
"362 441 CURVE",
"378 417 OFFCURVE",
"385 385 OFFCURVE",
"385 350 CURVE SMOOTH",
"385 0 LINE",
"448 0 LINE",
"448 292 LINE SMOOTH",
"448 340 OFFCURVE",
"456 386 OFFCURVE",
"477 421 CURVE SMOOTH",
"498 456 OFFCURVE",
"533 478 OFFCURVE",
"588 478 CURVE SMOOTH",
"679 478 OFFCURVE",
"710 432 OFFCURVE",
"710 347 CURVE SMOOTH",
"710 0 LINE",
"773 0 LINE",
"773 350 LINE SMOOTH",
"773 471 OFFCURVE",
"716 531 OFFCURVE",
"602 531 CURVE SMOOTH",
"534 531 OFFCURVE",
"469 498 OFFCURVE",
"438 430 CURVE",
"419 498 OFFCURVE",
"358 531 OFFCURVE",
"290 531 CURVE SMOOTH",
"206 531 OFFCURVE",
"154 493 OFFCURVE",
"121 429 CURVE",
"118 429 LINE",
"118 516 LINE"
);
}
);
width = 833;
}
);
note = m;
unicode = 006D;
},
{
glyphname = n;
layers = (
{
layerId = "943E8435-6871-41EF-8C83-AAAA92C7EE80";
name = Light;
paths = (
{
closed = 1;
nodes = (
"59 516 LINE",
"59 0 LINE",
"122 0 LINE",
"122 301 LINE SMOOTH",
"123 352 OFFCURVE",
"139 396 OFFCURVE",
"167 428 CURVE SMOOTH",
"194 459 OFFCURVE",
"233 478 OFFCURVE",
"284 478 CURVE SMOOTH",
"335 478 OFFCURVE",
"368 461 OFFCURVE",
"388 433 CURVE SMOOTH",
"408 405 OFFCURVE",
"415 366 OFFCURVE",
"415 322 CURVE SMOOTH",
"415 0 LINE",
"478 0 LINE",
"478 332 LINE SMOOTH",
"478 393 OFFCURVE",
"467 444 OFFCURVE",
"438 478 CURVE SMOOTH",
"409 512 OFFCURVE",
"361 531 OFFCURVE",
"289 531 CURVE SMOOTH",
"216 531 OFFCURVE",
"148 490 OFFCURVE",
"124 427 CURVE",
"122 427 LINE",
"122 516 LINE"
);
}
);
width = 537;
}
);
note = n;
unicode = 006E;
},
{
glyphname = o;
layers = (
{
layerId = "943E8435-6871-41EF-8C83-AAAA92C7EE80";
name = Light;
paths = (
{
closed = 1;
nodes = (
"338 478 OFFCURVE",
"384 450 OFFCURVE",
"414 409 CURVE SMOOTH",
"444 368 OFFCURVE",
"459 313 OFFCURVE",
"459 258 CURVE SMOOTH",
"459 203 OFFCURVE",
"444 148 OFFCURVE",
"414 107 CURVE SMOOTH",
"384 66 OFFCURVE",
"338 38 OFFCURVE",
"278 38 CURVE SMOOTH",
"218 38 OFFCURVE",
"173 66 OFFCURVE",
"143 107 CURVE SMOOTH",
"113 148 OFFCURVE",
"97 203 OFFCURVE",
"97 258 CURVE SMOOTH",
"97 313 OFFCURVE",
"113 368 OFFCURVE",
"143 409 CURVE SMOOTH",
"173 450 OFFCURVE",
"218 478 OFFCURVE",
"278 478 CURVE SMOOTH"
);
},
{
closed = 1;
nodes = (
"199 531 OFFCURVE",
"138 499 OFFCURVE",
"97 450 CURVE SMOOTH",
"56 401 OFFCURVE",
"34 333 OFFCURVE",
"34 258 CURVE SMOOTH",
"34 183 OFFCURVE",
"56 115 OFFCURVE",
"97 66 CURVE SMOOTH",
"138 17 OFFCURVE",
"199 -14 OFFCURVE",
"278 -14 CURVE SMOOTH",
"357 -14 OFFCURVE",
"418 17 OFFCURVE",
"459 66 CURVE SMOOTH",
"500 115 OFFCURVE",
"522 183 OFFCURVE",
"522 258 CURVE SMOOTH",
"522 333 OFFCURVE",
"500 401 OFFCURVE",
"459 450 CURVE SMOOTH",
"418 499 OFFCURVE",
"357 531 OFFCURVE",
"278 531 CURVE SMOOTH"
);
}
);
width = 556;
}
);
note = o;
unicode = 006F;
},
{
glyphname = p;
layers = (
{
layerId = "943E8435-6871-41EF-8C83-AAAA92C7EE80";
name = Light;
paths = (
{
closed = 1;
nodes = (
"60 516 LINE",
"60 -190 LINE",
"123 -190 LINE",
"123 98 LINE",
"125 98 LINE",
"138 61 OFFCURVE",
"164 33 OFFCURVE",
"196 14 CURVE SMOOTH",
"228 -5 OFFCURVE",
"267 -14 OFFCURVE",
"304 -14 CURVE SMOOTH",
"383 -14 OFFCURVE",
"440 17 OFFCURVE",
"479 67 CURVE SMOOTH",
"518 117 OFFCURVE",
"536 185 OFFCURVE",
"536 258 CURVE SMOOTH",
"536 331 OFFCURVE",
"518 400 OFFCURVE",
"479 450 CURVE SMOOTH",
"440 500 OFFCURVE",
"383 531 OFFCURVE",
"304 531 CURVE SMOOTH",
"220 531 OFFCURVE",
"149 490 OFFCURVE",
"120 418 CURVE",
"118 418 LINE",
"118 516 LINE"
);
},
{
closed = 1;
nodes = (
"473 205 OFFCURVE",
"461 149 OFFCURVE",
"434 108 CURVE SMOOTH",
"406 67 OFFCURVE",
"364 38 OFFCURVE",
"304 38 CURVE SMOOTH",
"237 38 OFFCURVE",
"192 67 OFFCURVE",
"164 108 CURVE SMOOTH",
"135 149 OFFCURVE",
"123 205 OFFCURVE",
"123 258 CURVE SMOOTH",
"123 317 OFFCURVE",
"133 372 OFFCURVE",
"161 412 CURVE SMOOTH",
"189 452 OFFCURVE",
"235 478 OFFCURVE",
"304 478 CURVE SMOOTH",
"364 478 OFFCURVE",
"406 449 OFFCURVE",
"434 408 CURVE SMOOTH",
"461 367 OFFCURVE",
"473 311 OFFCURVE",
"473 258 CURVE SMOOTH"
);
}
);
width = 574;
}
);
note = p;
unicode = 0070;
},
{
glyphname = q;
layers = (
{
layerId = "943E8435-6871-41EF-8C83-AAAA92C7EE80";
name = Light;
paths = (
{
closed = 1;
nodes = (
"514 -190 LINE",
"514 516 LINE",
"456 516 LINE",
"456 418 LINE",
"454 418 LINE",
"441 453 OFFCURVE",
"413 480 OFFCURVE",
"380 500 CURVE SMOOTH",
"347 520 OFFCURVE",
"307 531 OFFCURVE",
"270 531 CURVE SMOOTH",
"191 531 OFFCURVE",
"134 500 OFFCURVE",
"95 450 CURVE SMOOTH",
"56 400 OFFCURVE",
"38 331 OFFCURVE",
"38 258 CURVE SMOOTH",
"38 185 OFFCURVE",
"56 117 OFFCURVE",
"95 67 CURVE SMOOTH",
"134 17 OFFCURVE",
"191 -14 OFFCURVE",
"270 -14 CURVE SMOOTH",
"309 -14 OFFCURVE",
"346 -5 OFFCURVE",
"378 14 CURVE SMOOTH",
"410 33 OFFCURVE",
"436 61 OFFCURVE",
"449 98 CURVE",
"451 98 LINE",
"451 -190 LINE"
);
},
{
closed = 1;
nodes = (
"101 311 OFFCURVE",
"113 367 OFFCURVE",
"141 408 CURVE SMOOTH",
"168 449 OFFCURVE",
"210 478 OFFCURVE",
"270 478 CURVE SMOOTH",
"337 478 OFFCURVE",
"382 449 OFFCURVE",
"411 408 CURVE SMOOTH",
"439 367 OFFCURVE",
"451 311 OFFCURVE",
"451 258 CURVE SMOOTH",
"451 205 OFFCURVE",
"439 149 OFFCURVE",
"411 108 CURVE SMOOTH",
"382 67 OFFCURVE",
"337 38 OFFCURVE",
"270 38 CURVE SMOOTH",
"210 38 OFFCURVE",
"168 67 OFFCURVE",
"141 108 CURVE SMOOTH",
"113 149 OFFCURVE",
"101 205 OFFCURVE",
"101 258 CURVE SMOOTH"
);
}
);
width = 574;
}
);
note = q;
unicode = 0071;
},
{
glyphname = r;
lastChange = "2016-01-24 04:40:30 +0000";
layers = (
{
layerId = "943E8435-6871-41EF-8C83-AAAA92C7EE80";
name = Light;
paths = (
{
closed = 1;
nodes = (
"60 511 LINE",
"60 0 LINE",
"123 0 LINE",
"123 275 LINE SMOOTH",
"123 330 OFFCURVE",
"143 377 OFFCURVE",
"177 410 CURVE SMOOTH",
"211 443 OFFCURVE",
"258 460 OFFCURVE",
"315 460 CURVE",
"315 518 LINE",
"218 512 OFFCURVE",
"169 500 OFFCURVE",
"120 422 CURVE",
"118 422 LINE",
"118 511 LINE"
);
}
);
width = 315;
}
);
note = r;
unicode = 0072;
},
{
glyphname = s;
lastChange = "2016-01-24 04:41:11 +0000";
layers = (
{
layerId = "943E8435-6871-41EF-8C83-AAAA92C7EE80";
name = Light;
paths = (
{
closed = 1;
nodes = (
"432 375 LINE",
"429 431 OFFCURVE",
"409 472 OFFCURVE",
"375 500 CURVE SMOOTH",
"341 528 OFFCURVE",
"295 531 OFFCURVE",
"243 531 CURVE SMOOTH",
"198 531 OFFCURVE",
"149 521 OFFCURVE",
"112 498 CURVE SMOOTH",
"75 475 OFFCURVE",
"49 438 OFFCURVE",
"49 386 CURVE SMOOTH",
"49 342 OFFCURVE",
"65 313 OFFCURVE",
"91 293 CURVE SMOOTH",
"117 272 OFFCURVE",
"152 259 OFFCURVE",
"193 248 CURVE",
"274 230 LINE SMOOTH",
"302 223 OFFCURVE",
"331 215 OFFCURVE",
"352 201 CURVE SMOOTH",
"373 187 OFFCURVE",
"387 167 OFFCURVE",
"387 136 CURVE SMOOTH",
"387 100 OFFCURVE",
"367 76 OFFCURVE",
"339 60 CURVE SMOOTH",
"311 44 OFFCURVE",
"277 38 OFFCURVE",
"246 38 CURVE SMOOTH",
"162 38 OFFCURVE",
"99 68 OFFCURVE",
"94 153 CURVE",
"31 153 LINE",
"42 26 OFFCURVE",
"122 -14 OFFCURVE",
"243 -14 CURVE SMOOTH",
"291 -14 OFFCURVE",
"343 -4 OFFCURVE",
"383 21 CURVE SMOOTH",
"422 45 OFFCURVE",
"450 84 OFFCURVE",
"450 140 CURVE SMOOTH",
"450 185 OFFCURVE",
"431 218 OFFCURVE",
"404 241 CURVE SMOOTH",
"376 264 OFFCURVE",
"339 278 OFFCURVE",
"303 283 CURVE",
"219 302 LINE SMOOTH",
"198 307 OFFCURVE",
"170 316 OFFCURVE",
"149 329 CURVE SMOOTH",
"128 342 OFFCURVE",
"112 361 OFFCURVE",
"112 389 CURVE SMOOTH",
"112 422 OFFCURVE",
"128 445 OFFCURVE",
"152 459 CURVE SMOOTH",
"176 473 OFFCURVE",
"206 478 OFFCURVE",
"234 478 CURVE SMOOTH",
"270 478 OFFCURVE",
"303 480 OFFCURVE",
"328 461 CURVE SMOOTH",
"352 442 OFFCURVE",
"368 414 OFFCURVE",
"369 375 CURVE"
);
}
);
width = 481;
}
);
note = s;
unicode = 0073;
},
{
glyphname = t;
lastChange = "2016-01-24 04:41:23 +0000";
layers = (
{
layerId = "943E8435-6871-41EF-8C83-AAAA92C7EE80";
name = Light;
paths = (
{
closed = 1;
nodes = (
"160 516 LINE",
"160 671 LINE",
"97 671 LINE",
"97 516 LINE",
"17 516 LINE",
"17 463 LINE",
"97 463 LINE",
"97 110 LINE SMOOTH",
"96 22 OFFCURVE",
"125 -5 OFFCURVE",
"209 -5 CURVE SMOOTH",
"218 -5 OFFCURVE",
"228 -5 OFFCURVE",
"237 -4 CURVE SMOOTH",
"246 -3 OFFCURVE",
"256 -3 OFFCURVE",
"265 -3 CURVE",
"265 50 LINE",
"229 46 OFFCURVE",
"180 43 OFFCURVE",
"169 67 CURVE",
"163 78 OFFCURVE",
"160 94 OFFCURVE",
"160 115 CURVE SMOOTH",
"160 463 LINE",
"255 463 LINE",
"255 516 LINE"
);
}
);
width = 296;
}
);
note = t;
unicode = 0074;
},
{
glyphname = u;
layers = (
{
layerId = "943E8435-6871-41EF-8C83-AAAA92C7EE80";
name = Light;
paths = (
{
closed = 1;
nodes = (
"478 0 LINE",
"478 516 LINE",
"415 516 LINE",
"415 245 LINE SMOOTH",
"415 193 OFFCURVE",
"403 141 OFFCURVE",
"378 102 CURVE SMOOTH",
"353 63 OFFCURVE",
"315 38 OFFCURVE",
"260 38 CURVE SMOOTH",
"160 38 OFFCURVE",
"125 87 OFFCURVE",
"122 180 CURVE",
"122 516 LINE",
"59 516 LINE",
"59 181 LINE SMOOTH",
"59 120 OFFCURVE",
"72 71 OFFCURVE",
"101 38 CURVE SMOOTH",
"129 5 OFFCURVE",
"175 -14 OFFCURVE",
"240 -14 CURVE SMOOTH",
"317 -14 OFFCURVE",
"385 24 OFFCURVE",
"418 93 CURVE",
"420 93 LINE",
"420 0 LINE"
);
}
);
width = 537;
}
);
note = u;
unicode = 0075;
},
{
glyphname = v;
layers = (
{
layerId = "943E8435-6871-41EF-8C83-AAAA92C7EE80";
name = Light;
paths = (
{
closed = 1;
nodes = (
"2 516 LINE",
"201 0 LINE",
"268 0 LINE",
"461 516 LINE",
"396 516 LINE",
"236 63 LINE",
"234 63 LINE",
"72 516 LINE"
);
}
);
width = 463;
}
);
note = v;
unicode = 0076;
},
{
glyphname = w;
layers = (
{
layerId = "943E8435-6871-41EF-8C83-AAAA92C7EE80";
name = Light;
paths = (
{
closed = 1;
nodes = (
"8 516 LINE",
"174 0 LINE",
"243 0 LINE",
"369 434 LINE",
"371 434 LINE",
"498 0 LINE",
"567 0 LINE",
"733 516 LINE",
"666 516 LINE",
"534 74 LINE",
"532 74 LINE",
"406 516 LINE",
"335 516 LINE",
"209 74 LINE",
"207 74 LINE",
"75 516 LINE"
);
}
);
width = 741;
}
);
note = w;
unicode = 0077;
},
{
glyphname = x;
layers = (
{
layerId = "943E8435-6871-41EF-8C83-AAAA92C7EE80";
name = Light;
paths = (
{
closed = 1;
nodes = (
"201 268 LINE",
"1 0 LINE",
"79 0 LINE",
"238 217 LINE",
"400 0 LINE",
"480 0 LINE",
"279 269 LINE",
"465 516 LINE",
"386 516 LINE",
"242 320 LINE",
"95 516 LINE",
"16 516 LINE"
);
}
);
width = 481;
}
);
note = x;
unicode = 0078;
},
{
glyphname = y;
lastChange = "2016-01-24 04:41:49 +0000";
layers = (
{
layerId = "943E8435-6871-41EF-8C83-AAAA92C7EE80";
name = Light;
paths = (
{
closed = 1;
nodes = (
"2 516 LINE",
"208 2 LINE",
"186 -56 LINE",
"175 -80 OFFCURVE",
"167 -100 OFFCURVE",
"154 -114 CURVE SMOOTH",
"129 -141 OFFCURVE",
"114 -140 OFFCURVE",
"73 -132 CURVE",
"73 -185 LINE",
"86 -190 OFFCURVE",
"127 -191 OFFCURVE",
"151 -184 CURVE",
"177 -177 OFFCURVE",
"195 -161 OFFCURVE",
"211 -132 CURVE SMOOTH",
"219 -118 OFFCURVE",
"228 -100 OFFCURVE",
"237 -78 CURVE SMOOTH",
"461 516 LINE",
"398 516 LINE",
"239 76 LINE",
"69 516 LINE"
);
}
);
width = 463;
}
);
note = y;
unicode = 0079;
},
{
glyphname = z;
layers = (
{
layerId = "943E8435-6871-41EF-8C83-AAAA92C7EE80";
name = Light;
paths = (
{
closed = 1;
nodes = (
"91 53 LINE",
"432 471 LINE",
"432 516 LINE",
"38 516 LINE",
"38 463 LINE",
"352 463 LINE",
"15 51 LINE",
"15 0 LINE",
"446 0 LINE",
"446 53 LINE"
);
}
);
width = 463;
}
);
note = z;
unicode = 007A;
},
{
glyphname = braceleft;
layers = (
{
layerId = "943E8435-6871-41EF-8C83-AAAA92C7EE80";
name = Light;
paths = (
{
closed = 1;
nodes = (
"293 -190 LINE",
"293 -137 LINE",
"273 -137 LINE SMOOTH",
"253 -137 OFFCURVE",
"239 -125 OFFCURVE",
"231 -106 CURVE",
"222 -87 OFFCURVE",
"218 -61 OFFCURVE",
"218 -34 CURVE SMOOTH",
"218 106 LINE SMOOTH",
"218 161 OFFCURVE",
"204 200 OFFCURVE",
"188 226 CURVE SMOOTH",
"180 239 OFFCURVE",
"172 248 OFFCURVE",
"165 255 CURVE",
"157 262 OFFCURVE",
"151 266 OFFCURVE",
"148 268 CURVE",
"148 270 LINE",
"151 272 OFFCURVE",
"157 276 OFFCURVE",
"165 283 CURVE SMOOTH",
"180 296 OFFCURVE",
"197 322 OFFCURVE",
"209 362 CURVE SMOOTH",
"215 381 OFFCURVE",
"218 405 OFFCURVE",
"218 432 CURVE SMOOTH",
"218 573 LINE SMOOTH",
"218 600 OFFCURVE",
"222 625 OFFCURVE",
"231 645 CURVE SMOOTH",
"239 664 OFFCURVE",
"253 676 OFFCURVE",
"273 676 CURVE SMOOTH",
"293 676 LINE",
"293 729 LINE",
"243 729 LINE SMOOTH",
"187 729 OFFCURVE",
"155 680 OFFCURVE",
"155 604 CURVE SMOOTH",
"155 455 LINE SMOOTH",
"155 415 OFFCURVE",
"152 375 OFFCURVE",
"141 345 CURVE SMOOTH",
"130 315 OFFCURVE",
"112 295 OFFCURVE",
"83 295 CURVE",
"83 242 LINE",
"112 242 OFFCURVE",
"130 223 OFFCURVE",
"141 193 CURVE SMOOTH",
"152 163 OFFCURVE",
"155 122 OFFCURVE",
"155 82 CURVE SMOOTH",
"155 -65 LINE SMOOTH",
"155 -141 OFFCURVE",
"187 -190 OFFCURVE",
"243 -190 CURVE SMOOTH"
);
}
);
width = 333;
}
);
note = braceleft;
unicode = 007B;
},
{
glyphname = bar;
layers = (
{
layerId = "943E8435-6871-41EF-8C83-AAAA92C7EE80";
name = Light;
paths = (
{
closed = 1;
nodes = (
"85 786 LINE",
"85 -213 LINE",
"138 -213 LINE",
"138 786 LINE"
);
}
);
width = 222;
}
);
note = bar;
unicode = 007C;
},
{
glyphname = braceright;
layers = (
{
layerId = "943E8435-6871-41EF-8C83-AAAA92C7EE80";
name = Light;
paths = (
{
closed = 1;
nodes = (
"40 729 LINE",
"40 676 LINE",
"60 676 LINE SMOOTH",
"80 676 OFFCURVE",
"94 664 OFFCURVE",
"103 645 CURVE",
"111 625 OFFCURVE",
"115 600 OFFCURVE",
"115 573 CURVE SMOOTH",
"115 432 LINE SMOOTH",
"115 377 OFFCURVE",
"129 339 OFFCURVE",
"145 313 CURVE SMOOTH",
"153 300 OFFCURVE",
"161 290 OFFCURVE",
"169 283 CURVE",
"176 276 OFFCURVE",
"182 272 OFFCURVE",
"185 270 CURVE",
"185 268 LINE",
"182 266 OFFCURVE",
"176 262 OFFCURVE",
"169 255 CURVE",
"153 242 OFFCURVE",
"136 216 OFFCURVE",
"124 177 CURVE SMOOTH",
"118 157 OFFCURVE",
"115 133 OFFCURVE",
"115 106 CURVE SMOOTH",
"115 -34 LINE SMOOTH",
"115 -61 OFFCURVE",
"111 -87 OFFCURVE",
"103 -106 CURVE",
"94 -125 OFFCURVE",
"80 -137 OFFCURVE",
"60 -137 CURVE SMOOTH",
"40 -137 LINE",
"40 -190 LINE",
"90 -190 LINE SMOOTH",
"146 -190 OFFCURVE",
"178 -141 OFFCURVE",
"178 -65 CURVE SMOOTH",
"178 83 LINE SMOOTH",
"178 123 OFFCURVE",
"181 164 OFFCURVE",
"192 194 CURVE SMOOTH",
"203 224 OFFCURVE",
"221 243 OFFCURVE",
"250 243 CURVE",
"250 296 LINE",
"221 296 OFFCURVE",
"203 316 OFFCURVE",
"192 346 CURVE SMOOTH",
"181 376 OFFCURVE",
"178 416 OFFCURVE",
"178 456 CURVE SMOOTH",
"178 604 LINE SMOOTH",
"178 680 OFFCURVE",
"146 729 OFFCURVE",
"90 729 CURVE SMOOTH"
);
}
);
width = 333;
}
);
note = braceright;
unicode = 007D;
},
{
glyphname = asciitilde;
layers = (
{
layerId = "943E8435-6871-41EF-8C83-AAAA92C7EE80";
name = Light;
paths = (
{
closed = 1;
nodes = (
"495 315 LINE",
"472 280 OFFCURVE",
"447 246 OFFCURVE",
"407 246 CURVE SMOOTH",
"382 246 OFFCURVE",
"348 262 OFFCURVE",
"309 279 CURVE SMOOTH",
"272 295 OFFCURVE",
"231 311 OFFCURVE",
"194 311 CURVE SMOOTH",
"161 311 OFFCURVE",
"135 300 OFFCURVE",
"115 284 CURVE SMOOTH",
"94 268 OFFCURVE",
"80 246 OFFCURVE",
"69 225 CURVE",
"105 189 LINE",
"121 224 OFFCURVE",
"145 258 OFFCURVE",
"189 258 CURVE SMOOTH",
"228 258 OFFCURVE",
"261 242 OFFCURVE",
"296 226 CURVE SMOOTH",
"331 209 OFFCURVE",
"366 193 OFFCURVE",
"406 193 CURVE SMOOTH",
"437 193 OFFCURVE",
"461 204 OFFCURVE",
"481 220 CURVE SMOOTH",
"501 236 OFFCURVE",
"516 258 OFFCURVE",
"531 279 CURVE"
);
}
);
width = 600;
}
);
note = asciitilde;
unicode = 007E;
},
{
glyphname = exclamdown;
lastChange = "2016-01-24 17:16:49 +0000";
layers = (
{
layerId = "943E8435-6871-41EF-8C83-AAAA92C7EE80";
name = Light;
paths = (
{
closed = 1;
nodes = (
"163 516 LINE",
"79 516 LINE",
"79 410 LINE",
"163 410 LINE"
);
},
{
closed = 1;
nodes = (
"155 15 LINE",
"150 338 LINE",
"92 338 LINE",
"87 15 LINE",
"87 -190 LINE",
"155 -190 LINE"
);
}
);
width = 241;
}
);
note = exclamdown;
unicode = 00A1;
},
{
glyphname = cent;
layers = (
{
layerId = "943E8435-6871-41EF-8C83-AAAA92C7EE80";
name = Light;
paths = (
{
closed = 1;
nodes = (
"507 354 LINE",
"500 411 OFFCURVE",
"477 455 OFFCURVE",
"442 484 CURVE SMOOTH",
"407 513 OFFCURVE",
"361 530 OFFCURVE",
"309 531 CURVE",
"309 618 LINE",
"270 618 LINE",
"270 529 LINE",
"201 522 OFFCURVE",
"146 489 OFFCURVE",
"110 441 CURVE SMOOTH",
"73 392 OFFCURVE",
"54 327 OFFCURVE",
"54 258 CURVE SMOOTH",
"54 189 OFFCURVE",
"73 124 OFFCURVE",
"110 76 CURVE SMOOTH",
"146 27 OFFCURVE",
"201 -6 OFFCURVE",
"270 -13 CURVE",
"270 -115 LINE",
"309 -115 LINE",
"309 -14 LINE",
"418 -10 OFFCURVE",
"495 64 OFFCURVE",
"511 185 CURVE",
"448 185 LINE",
"444 145 OFFCURVE",
"427 109 OFFCURVE",
"403 83 CURVE SMOOTH",
"378 57 OFFCURVE",
"345 39 OFFCURVE",
"309 38 CURVE",
"309 478 LINE",
"385 475 OFFCURVE",
"428 430 OFFCURVE",
"444 354 CURVE"
);
},
{
closed = 1;
nodes = (
"270 39 LINE",
"218 47 OFFCURVE",
"180 77 OFFCURVE",
"155 117 CURVE SMOOTH",
"130 157 OFFCURVE",
"117 209 OFFCURVE",
"117 258 CURVE SMOOTH",
"117 309 OFFCURVE",
"130 359 OFFCURVE",
"155 399 CURVE SMOOTH",
"180 439 OFFCURVE",
"218 468 OFFCURVE",
"270 476 CURVE"
);
}
);
width = 556;
}
);
note = cent;
unicode = 00A2;
},
{
glyphname = sterling;
layers = (
{
layerId = "943E8435-6871-41EF-8C83-AAAA92C7EE80";
name = Light;
paths = (
{
closed = 1;
nodes = (
"46 362 LINE",
"46 330 LINE",
"127 330 LINE",
"143 303 OFFCURVE",
"155 256 OFFCURVE",
"155 225 CURVE SMOOTH",
"155 185 OFFCURVE",
"142 151 OFFCURVE",
"122 121 CURVE SMOOTH",
"101 91 OFFCURVE",
"72 63 OFFCURVE",
"43 39 CURVE",
"79 -14 LINE",
"89 -8 OFFCURVE",
"98 -2 OFFCURVE",
"106 3 CURVE SMOOTH",
"122 13 OFFCURVE",
"137 19 OFFCURVE",
"156 23 CURVE SMOOTH",
"165 25 OFFCURVE",
"176 26 OFFCURVE",
"189 26 CURVE SMOOTH",
"229 26 OFFCURVE",
"259 17 OFFCURVE",
"290 6 CURVE SMOOTH",
"321 -5 OFFCURVE",
"352 -14 OFFCURVE",
"396 -14 CURVE SMOOTH",
"456 -14 OFFCURVE",
"498 7 OFFCURVE",
"542 46 CURVE",
"510 94 LINE",
"482 63 OFFCURVE",
"438 38 OFFCURVE",
"395 38 CURVE SMOOTH",
"362 38 OFFCURVE",
"337 48 OFFCURVE",
"309 59 CURVE SMOOTH",
"282 70 OFFCURVE",
"251 79 OFFCURVE",
"207 79 CURVE SMOOTH",
"172 79 OFFCURVE",
"139 64 OFFCURVE",
"110 49 CURVE",
"108 51 LINE",
"136 72 OFFCURVE",
"163 99 OFFCURVE",
"184 130 CURVE SMOOTH",
"204 161 OFFCURVE",
"218 196 OFFCURVE",
"218 233 CURVE SMOOTH",
"218 261 OFFCURVE",
"209 306 OFFCURVE",
"194 330 CURVE",
"336 330 LINE",
"336 362 LINE",
"176 362 LINE",
"170 377 OFFCURVE",
"164 390 OFFCURVE",
"157 402 CURVE SMOOTH",
"143 425 OFFCURVE",
"131 448 OFFCURVE",
"123 474 CURVE SMOOTH",
"119 487 OFFCURVE",
"117 502 OFFCURVE",
"117 519 CURVE SMOOTH",
"117 572 OFFCURVE",
"137 612 OFFCURVE",
"168 638 CURVE SMOOTH",
"199 664 OFFCURVE",
"241 676 OFFCURVE",
"282 676 CURVE SMOOTH",
"394 676 OFFCURVE",
"451 600 OFFCURVE",
"451 492 CURVE",
"514 492 LINE",
"517 641 OFFCURVE",
"431 729 OFFCURVE",
"282 729 CURVE SMOOTH",
"225 729 OFFCURVE",
"168 714 OFFCURVE",
"125 680 CURVE SMOOTH",
"82 646 OFFCURVE",
"54 595 OFFCURVE",
"54 523 CURVE SMOOTH",
"54 463 OFFCURVE",
"78 411 OFFCURVE",
"109 362 CURVE"
);
}
);
width = 556;
}
);
note = sterling;
unicode = 00A3;
},
{
glyphname = currency;
layers = (
{
layerId = "943E8435-6871-41EF-8C83-AAAA92C7EE80";
name = Light;
paths = (
{
closed = 1;
nodes = (
"94 401 OFFCURVE",
"115 448 OFFCURVE",
"148 482 CURVE SMOOTH",
"181 516 OFFCURVE",
"228 536 OFFCURVE",
"279 536 CURVE SMOOTH",
"330 536 OFFCURVE",
"377 516 OFFCURVE",
"410 482 CURVE SMOOTH",
"443 448 OFFCURVE",
"464 401 OFFCURVE",
"464 346 CURVE SMOOTH",
"464 293 OFFCURVE",
"443 245 OFFCURVE",
"410 211 CURVE SMOOTH",
"377 177 OFFCURVE",
"330 156 OFFCURVE",
"279 156 CURVE SMOOTH",
"228 156 OFFCURVE",
"181 177 OFFCURVE",
"148 211 CURVE SMOOTH",
"115 245 OFFCURVE",
"94 293 OFFCURVE",
"94 346 CURVE SMOOTH"
);
},
{
closed = 1;
nodes = (
"29 136 LINE",
"67 98 LINE",
"123 154 LINE",
"166 119 OFFCURVE",
"219 98 OFFCURVE",
"279 98 CURVE SMOOTH",
"339 98 OFFCURVE",
"391 118 OFFCURVE",
"432 153 CURVE",
"487 98 LINE",
"525 136 LINE",
"471 190 LINE",
"506 233 OFFCURVE",
"527 286 OFFCURVE",
"527 346 CURVE SMOOTH",
"527 406 OFFCURVE",
"506 459 OFFCURVE",
"471 502 CURVE",
"525 556 LINE",
"487 594 LINE",
"432 539 LINE",
"389 574 OFFCURVE",
"339 594 OFFCURVE",
"279 594 CURVE SMOOTH",
"219 594 OFFCURVE",
"164 573 OFFCURVE",
"123 538 CURVE",
"67 594 LINE",
"29 556 LINE",
"85 500 LINE",
"49 456 OFFCURVE",
"31 405 OFFCURVE",
"31 346 CURVE SMOOTH",
"31 286 OFFCURVE",
"51 236 OFFCURVE",
"86 193 CURVE"
);
}
);
width = 556;
}
);
note = currency;
unicode = 00A4;
},
{
glyphname = yen;
layers = (
{
layerId = "943E8435-6871-41EF-8C83-AAAA92C7EE80";
name = Light;
paths = (
{
closed = 1;
nodes = (
"110 349 LINE",
"110 304 LINE",
"239 304 LINE",
"245 294 LINE",
"245 221 LINE",
"110 221 LINE",
"110 176 LINE",
"245 176 LINE",
"245 0 LINE",
"308 0 LINE",
"308 176 LINE",
"445 176 LINE",
"445 221 LINE",
"308 221 LINE",
"308 294 LINE",
"314 304 LINE",
"445 304 LINE",
"445 349 LINE",
"336 349 LINE",
"547 714 LINE",
"478 714 LINE",
"277 349 LINE",
"78 714 LINE",
"6 714 LINE",
"216 349 LINE"
);
}
);
width = 556;
}
);
note = yen;
unicode = 00A5;
},
{
glyphname = brokenbar;
layers = (
{
layerId = "943E8435-6871-41EF-8C83-AAAA92C7EE80";
name = Light;
paths = (
{
closed = 1;
nodes = (
"85 661 LINE",
"85 411 LINE",
"138 411 LINE",
"138 661 LINE"
);
},
{
closed = 1;
nodes = (
"85 161 LINE",
"85 -88 LINE",
"138 -88 LINE",
"138 161 LINE"
);
}
);
width = 222;
}
);
note = brokenbar;
unicode = 00A6;
},
{
glyphname = section;
layers = (
{
layerId = "943E8435-6871-41EF-8C83-AAAA92C7EE80";
name = Light;
paths = (
{
closed = 1;
nodes = (
"511 296 OFFCURVE",
"473 341 OFFCURVE",
"422 377 CURVE SMOOTH",
"397 395 OFFCURVE",
"369 411 OFFCURVE",
"339 426 CURVE SMOOTH",
"279 455 OFFCURVE",
"227 486 OFFCURVE",
"193 522 CURVE SMOOTH",
"176 540 OFFCURVE",
"167 562 OFFCURVE",
"167 587 CURVE SMOOTH",
"167 619 OFFCURVE",
"181 640 OFFCURVE",
"202 655 CURVE SMOOTH",
"223 670 OFFCURVE",
"251 676 OFFCURVE",
"279 676 CURVE SMOOTH",
"314 676 OFFCURVE",
"344 662 OFFCURVE",
"365 640 CURVE SMOOTH",
"385 618 OFFCURVE",
"396 587 OFFCURVE",
"395 552 CURVE",
"458 552 LINE",
"458 668 OFFCURVE",
"386 729 OFFCURVE",
"273 729 CURVE SMOOTH",
"232 729 OFFCURVE",
"189 716 OFFCURVE",
"157 692 CURVE SMOOTH",
"125 668 OFFCURVE",
"104 633 OFFCURVE",
"104 586 CURVE SMOOTH",
"104 543 OFFCURVE",
"121 506 OFFCURVE",
"154 477 CURVE",
"125 465 OFFCURVE",
"97 447 OFFCURVE",
"77 423 CURVE SMOOTH",
"57 399 OFFCURVE",
"45 370 OFFCURVE",
"45 337 CURVE SMOOTH",
"45 272 OFFCURVE",
"83 227 OFFCURVE",
"134 191 CURVE SMOOTH",
"159 173 OFFCURVE",
"187 157 OFFCURVE",
"217 142 CURVE SMOOTH",
"277 113 OFFCURVE",
"330 82 OFFCURVE",
"364 46 CURVE SMOOTH",
"381 28 OFFCURVE",
"389 7 OFFCURVE",
"389 -18 CURVE SMOOTH",
"389 -50 OFFCURVE",
"375 -71 OFFCURVE",
"354 -86 CURVE SMOOTH",
"333 -101 OFFCURVE",
"305 -107 OFFCURVE",
"277 -107 CURVE SMOOTH",
"242 -107 OFFCURVE",
"212 -92 OFFCURVE",
"192 -70 CURVE SMOOTH",
"171 -48 OFFCURVE",
"160 -17 OFFCURVE",
"161 16 CURVE",
"98 16 LINE",
"98 -97 OFFCURVE",
"170 -160 OFFCURVE",
"283 -160 CURVE SMOOTH",
"326 -160 OFFCURVE",
"367 -147 OFFCURVE",
"399 -123 CURVE SMOOTH",
"431 -99 OFFCURVE",
"452 -64 OFFCURVE",
"452 -17 CURVE SMOOTH",
"452 26 OFFCURVE",
"435 62 OFFCURVE",
"402 91 CURVE",
"431 103 OFFCURVE",
"459 121 OFFCURVE",
"479 145 CURVE SMOOTH",
"499 169 OFFCURVE",
"511 198 OFFCURVE",
"511 231 CURVE SMOOTH"
);
},
{
closed = 1;
nodes = (
"448 174 OFFCURVE",
"412 142 OFFCURVE",
"364 122 CURVE",
"343 137 OFFCURVE",
"317 152 OFFCURVE",
"288 167 CURVE SMOOTH",
"229 197 OFFCURVE",
"173 230 OFFCURVE",
"136 271 CURVE SMOOTH",
"117 291 OFFCURVE",
"108 314 OFFCURVE",
"108 339 CURVE SMOOTH",
"108 395 OFFCURVE",
"142 427 OFFCURVE",
"190 447 CURVE",
"211 432 OFFCURVE",
"237 418 OFFCURVE",
"266 404 CURVE SMOOTH",
"325 375 OFFCURVE",
"382 341 OFFCURVE",
"420 300 CURVE SMOOTH",
"439 279 OFFCURVE",
"448 256 OFFCURVE",
"448 230 CURVE SMOOTH"
);
}
);
width = 556;
}
);
note = section;
unicode = 00A7;
},
{
glyphname = dieresis;
layers = (
{
layerId = "943E8435-6871-41EF-8C83-AAAA92C7EE80";
name = Light;
paths = (
{
closed = 1;
nodes = (
"-29 605 LINE",
"38 605 LINE",
"38 706 LINE",
"-29 706 LINE"
);
},
{
closed = 1;
nodes = (
"147 605 LINE",
"215 605 LINE",
"215 706 LINE",
"147 706 LINE"
);
}
);
width = 185;
}
);
note = dieresis;
unicode = 00A8;
},
{
glyphname = copyright;
layers = (
{
layerId = "943E8435-6871-41EF-8C83-AAAA92C7EE80";
name = Light;
paths = (
{
closed = 1;
nodes = (
"594 435 LINE",
"587 483 OFFCURVE",
"565 522 OFFCURVE",
"532 547 CURVE SMOOTH",
"499 572 OFFCURVE",
"456 586 OFFCURVE",
"409 586 CURVE SMOOTH",
"341 586 OFFCURVE",
"286 562 OFFCURVE",
"250 521 CURVE SMOOTH",
"213 480 OFFCURVE",
"192 424 OFFCURVE",
"192 357 CURVE SMOOTH",
"192 292 OFFCURVE",
"213 234 OFFCURVE",
"250 193 CURVE SMOOTH",
"286 152 OFFCURVE",
"341 128 OFFCURVE",
"409 128 CURVE SMOOTH",
"456 128 OFFCURVE",
"499 142 OFFCURVE",
"532 167 CURVE SMOOTH",
"565 192 OFFCURVE",
"587 231 OFFCURVE",
"594 279 CURVE",
"543 279 LINE",
"531 219 OFFCURVE",
"483 173 OFFCURVE",
"410 173 CURVE SMOOTH",
"357 173 OFFCURVE",
"315 193 OFFCURVE",
"287 226 CURVE SMOOTH",
"259 259 OFFCURVE",
"245 305 OFFCURVE",
"245 357 CURVE SMOOTH",
"245 409 OFFCURVE",
"259 455 OFFCURVE",
"287 488 CURVE SMOOTH",
"315 521 OFFCURVE",
"357 541 OFFCURVE",
"410 541 CURVE SMOOTH",
"483 540 OFFCURVE",
"531 495 OFFCURVE",
"543 435 CURVE"
);
},
{
closed = 1;
nodes = (
"714 268 OFFCURVE",
"680 188 OFFCURVE",
"624 131 CURVE SMOOTH",
"568 74 OFFCURVE",
"489 38 OFFCURVE",
"400 38 CURVE SMOOTH",
"309 38 OFFCURVE",
"231 74 OFFCURVE",
"175 131 CURVE SMOOTH",
"119 188 OFFCURVE",
"86 268 OFFCURVE",
"86 357 CURVE SMOOTH",
"86 446 OFFCURVE",
"119 526 OFFCURVE",
"175 583 CURVE SMOOTH",
"231 640 OFFCURVE",
"309 676 OFFCURVE",
"400 676 CURVE SMOOTH",
"489 676 OFFCURVE",
"568 640 OFFCURVE",
"624 583 CURVE SMOOTH",
"680 526 OFFCURVE",
"714 446 OFFCURVE",
"714 357 CURVE SMOOTH"
);
},
{
closed = 1;
nodes = (
"772 461 OFFCURVE",
"732 554 OFFCURVE",
"665 622 CURVE SMOOTH",
"598 689 OFFCURVE",
"505 729 OFFCURVE",
"400 729 CURVE SMOOTH",
"295 729 OFFCURVE",
"202 689 OFFCURVE",
"135 622 CURVE SMOOTH",
"68 554 OFFCURVE",
"28 461 OFFCURVE",
"28 357 CURVE SMOOTH",
"28 252 OFFCURVE",
"68 160 OFFCURVE",
"135 93 CURVE SMOOTH",
"202 26 OFFCURVE",
"295 -14 OFFCURVE",
"400 -14 CURVE SMOOTH",
"505 -14 OFFCURVE",
"598 26 OFFCURVE",
"665 93 CURVE SMOOTH",
"732 160 OFFCURVE",
"772 252 OFFCURVE",
"772 357 CURVE SMOOTH"
);
}
);
width = 800;
}
);
note = copyright;
unicode = 00A9;
},
{
glyphname = ordfeminine;
layers = (
{
layerId = "943E8435-6871-41EF-8C83-AAAA92C7EE80";
name = Light;
paths = (
{
closed = 1;
nodes = (
"54 597 LINE",
"55 645 OFFCURVE",
"93 667 OFFCURVE",
"140 667 CURVE SMOOTH",
"188 667 OFFCURVE",
"228 653 OFFCURVE",
"228 600 CURVE SMOOTH",
"228 577 OFFCURVE",
"210 573 OFFCURVE",
"175 569 CURVE SMOOTH",
"130 565 OFFCURVE",
"85 563 OFFCURVE",
"52 549 CURVE SMOOTH",
"19 535 OFFCURVE",
"-4 511 OFFCURVE",
"-4 464 CURVE SMOOTH",
"-4 396 OFFCURVE",
"45 368 OFFCURVE",
"113 368 CURVE SMOOTH",
"168 368 OFFCURVE",
"209 390 OFFCURVE",
"236 433 CURVE",
"238 433 LINE",
"238 397 OFFCURVE",
"245 377 OFFCURVE",
"286 377 CURVE SMOOTH",
"297 377 OFFCURVE",
"306 379 OFFCURVE",
"313 380 CURVE",
"313 414 LINE",
"309 412 OFFCURVE",
"305 411 OFFCURVE",
"300 411 CURVE SMOOTH",
"285 411 OFFCURVE",
"276 419 OFFCURVE",
"275 434 CURVE",
"275 606 LINE SMOOTH",
"275 647 OFFCURVE",
"260 672 OFFCURVE",
"236 687 CURVE SMOOTH",
"212 702 OFFCURVE",
"180 706 OFFCURVE",
"147 706 CURVE SMOOTH",
"66 706 OFFCURVE",
"11 674 OFFCURVE",
"7 597 CURVE"
);
},
{
closed = 1;
nodes = (
"228 549 LINE",
"228 502 LINE SMOOTH",
"228 473 OFFCURVE",
"214 449 OFFCURVE",
"193 433 CURVE SMOOTH",
"172 416 OFFCURVE",
"142 407 OFFCURVE",
"111 407 CURVE SMOOTH",
"95 407 OFFCURVE",
"78 412 OFFCURVE",
"65 423 CURVE SMOOTH",
"52 434 OFFCURVE",
"42 449 OFFCURVE",
"42 466 CURVE SMOOTH",
"42 494 OFFCURVE",
"59 508 OFFCURVE",
"87 517 CURVE SMOOTH",
"100 521 OFFCURVE",
"116 524 OFFCURVE",
"135 527 CURVE",
"153 529 OFFCURVE",
"172 532 OFFCURVE",
"192 535 CURVE",
"197 536 OFFCURVE",
"204 538 OFFCURVE",
"212 540 CURVE",
"219 541 OFFCURVE",
"224 544 OFFCURVE",
"226 549 CURVE"
);
}
);
width = 311;
}
);
note = ordfeminine;
unicode = 00AA;
},
{
glyphname = guillemotleft;
layers = (
{
layerId = "943E8435-6871-41EF-8C83-AAAA92C7EE80";
name = Light;
paths = (
{
closed = 1;
nodes = (
"60 244 LINE",
"193 119 LINE",
"193 186 LINE",
"99 275 LINE",
"193 364 LINE",
"193 431 LINE",
"60 306 LINE"
);
},
{
closed = 1;
nodes = (
"221 244 LINE",
"354 119 LINE",
"354 186 LINE",
"260 275 LINE",
"354 364 LINE",
"354 431 LINE",
"221 306 LINE"
);
}
);
width = 426;
}
);
note = guillemotleft;
unicode = 00AB;
},
{
glyphname = logicalnot;
layers = (
{
layerId = "943E8435-6871-41EF-8C83-AAAA92C7EE80";
name = Light;
paths = (
{
closed = 1;
nodes = (
"499 325 LINE",
"499 111 LINE",
"552 111 LINE",
"552 378 LINE",
"49 378 LINE",
"49 325 LINE"
);
}
);
width = 600;
}
);
note = logicalnot;
unicode = 00AC;
},
{
glyphname = uni00AD;
layers = (
{
layerId = "943E8435-6871-41EF-8C83-AAAA92C7EE80";
name = Light;
paths = (
{
closed = 1;
nodes = (
"60 304 LINE",
"310 304 LINE",
"310 246 LINE",
"60 246 LINE"
);
}
);
width = 370;
}
);
note = uni00AD;
unicode = 00AD;
},
{
glyphname = registered;
layers = (
{
layerId = "943E8435-6871-41EF-8C83-AAAA92C7EE80";
name = Light;
paths = (
{
closed = 1;
nodes = (
"318 378 LINE",
"318 527 LINE",
"415 527 LINE SMOOTH",
"442 527 OFFCURVE",
"466 524 OFFCURVE",
"486 513 CURVE",
"505 501 OFFCURVE",
"517 484 OFFCURVE",
"517 453 CURVE SMOOTH",
"517 417 OFFCURVE",
"501 397 OFFCURVE",
"477 388 CURVE SMOOTH",
"453 379 OFFCURVE",
"420 378 OFFCURVE",
"388 378 CURVE SMOOTH"
);
},
{
closed = 1;
nodes = (
"318 142 LINE",
"318 333 LINE",
"407 333 LINE",
"528 142 LINE",
"590 142 LINE",
"462 333 LINE",
"491 338 OFFCURVE",
"518 349 OFFCURVE",
"538 369 CURVE SMOOTH",
"558 388 OFFCURVE",
"570 416 OFFCURVE",
"570 453 CURVE SMOOTH",
"570 530 OFFCURVE",
"527 572 OFFCURVE",
"430 572 CURVE SMOOTH",
"265 572 LINE",
"265 142 LINE"
);
},
{
closed = 1;
nodes = (
"489 676 OFFCURVE",
"568 640 OFFCURVE",
"624 583 CURVE SMOOTH",
"680 526 OFFCURVE",
"714 446 OFFCURVE",
"714 357 CURVE SMOOTH",
"714 268 OFFCURVE",
"680 188 OFFCURVE",
"624 131 CURVE SMOOTH",
"568 74 OFFCURVE",
"489 38 OFFCURVE",
"400 38 CURVE SMOOTH",
"309 38 OFFCURVE",
"231 74 OFFCURVE",
"175 131 CURVE SMOOTH",
"119 188 OFFCURVE",
"86 268 OFFCURVE",
"86 357 CURVE SMOOTH",
"86 446 OFFCURVE",
"119 526 OFFCURVE",
"175 583 CURVE SMOOTH",
"231 640 OFFCURVE",
"309 676 OFFCURVE",
"400 676 CURVE SMOOTH"
);
},
{
closed = 1;
nodes = (
"295 729 OFFCURVE",
"202 689 OFFCURVE",
"135 622 CURVE SMOOTH",
"68 554 OFFCURVE",
"28 461 OFFCURVE",
"28 357 CURVE SMOOTH",
"28 252 OFFCURVE",
"68 160 OFFCURVE",
"135 93 CURVE SMOOTH",
"202 26 OFFCURVE",
"295 -14 OFFCURVE",
"400 -14 CURVE SMOOTH",
"505 -14 OFFCURVE",
"598 26 OFFCURVE",
"665 93 CURVE SMOOTH",
"732 160 OFFCURVE",
"772 252 OFFCURVE",
"772 357 CURVE SMOOTH",
"772 461 OFFCURVE",
"732 554 OFFCURVE",
"665 622 CURVE SMOOTH",
"598 689 OFFCURVE",
"505 729 OFFCURVE",
"400 729 CURVE SMOOTH"
);
}
);
width = 800;
}
);
note = registered;
unicode = 00AE;
},
{
glyphname = macron;
layers = (
{
layerId = "943E8435-6871-41EF-8C83-AAAA92C7EE80";
name = Light;
paths = (
{
closed = 1;
nodes = (
"-71 634 LINE",
"257 634 LINE",
"257 679 LINE",
"-71 679 LINE"
);
}
);
width = 185;
}
);
note = macron;
unicode = 00AF;
},
{
glyphname = degree;
layers = (
{
layerId = "943E8435-6871-41EF-8C83-AAAA92C7EE80";
name = Light;
paths = (
{
closed = 1;
nodes = (
"95 591 OFFCURVE",
"106 617 OFFCURVE",
"126 637 CURVE SMOOTH",
"145 656 OFFCURVE",
"171 667 OFFCURVE",
"200 667 CURVE SMOOTH",
"229 667 OFFCURVE",
"255 656 OFFCURVE",
"275 637 CURVE",
"294 617 OFFCURVE",
"305 591 OFFCURVE",
"305 562 CURVE SMOOTH",
"305 533 OFFCURVE",
"294 507 OFFCURVE",
"275 488 CURVE SMOOTH",
"255 468 OFFCURVE",
"229 457 OFFCURVE",
"200 457 CURVE SMOOTH",
"140 457 OFFCURVE",
"95 502 OFFCURVE",
"95 562 CURVE SMOOTH"
);
},
{
closed = 1;
nodes = (
"56 522 OFFCURVE",
"72 486 OFFCURVE",
"98 460 CURVE SMOOTH",
"124 434 OFFCURVE",
"160 418 OFFCURVE",
"200 418 CURVE SMOOTH",
"240 418 OFFCURVE",
"276 434 OFFCURVE",
"302 460 CURVE SMOOTH",
"328 486 OFFCURVE",
"344 522 OFFCURVE",
"344 562 CURVE SMOOTH",
"344 602 OFFCURVE",
"328 638 OFFCURVE",
"302 664 CURVE SMOOTH",
"276 690 OFFCURVE",
"240 706 OFFCURVE",
"200 706 CURVE SMOOTH",
"160 706 OFFCURVE",
"124 690 OFFCURVE",
"98 664 CURVE SMOOTH",
"72 638 OFFCURVE",
"56 602 OFFCURVE",
"56 562 CURVE SMOOTH"
);
}
);
width = 400;
}
);
note = degree;
unicode = 00B0;
},
{
glyphname = plusminus;
layers = (
{
layerId = "943E8435-6871-41EF-8C83-AAAA92C7EE80";
name = Light;
paths = (
{
closed = 1;
nodes = (
"49 53 LINE",
"49 0 LINE",
"552 0 LINE",
"552 53 LINE"
);
},
{
closed = 1;
nodes = (
"274 503 LINE",
"274 323 LINE",
"50 323 LINE",
"50 270 LINE",
"274 270 LINE",
"274 90 LINE",
"327 90 LINE",
"327 270 LINE",
"552 270 LINE",
"552 323 LINE",
"327 323 LINE",
"327 503 LINE"
);
}
);
width = 600;
}
);
note = plusminus;
unicode = 00B1;
},
{
glyphname = twosuperior;
layers = (
{
layerId = "943E8435-6871-41EF-8C83-AAAA92C7EE80";
name = Light;
paths = (
{
closed = 1;
nodes = (
"71 553 LINE",
"71 582 OFFCURVE",
"77 611 OFFCURVE",
"93 632 CURVE SMOOTH",
"109 653 OFFCURVE",
"134 667 OFFCURVE",
"170 667 CURVE SMOOTH",
"198 667 OFFCURVE",
"223 660 OFFCURVE",
"242 646 CURVE SMOOTH",
"261 632 OFFCURVE",
"273 612 OFFCURVE",
"273 585 CURVE SMOOTH",
"273 550 OFFCURVE",
"259 529 OFFCURVE",
"234 505 CURVE SMOOTH",
"215 487 OFFCURVE",
"193 471 OFFCURVE",
"168 457 CURVE SMOOTH",
"118 429 OFFCURVE",
"71 398 OFFCURVE",
"40 355 CURVE SMOOTH",
"24 334 OFFCURVE",
"16 307 OFFCURVE",
"15 274 CURVE",
"317 274 LINE",
"317 313 LINE",
"69 313 LINE",
"77 344 OFFCURVE",
"100 366 OFFCURVE",
"127 385 CURVE SMOOTH",
"140 394 OFFCURVE",
"154 403 OFFCURVE",
"168 411 CURVE SMOOTH",
"196 426 OFFCURVE",
"220 440 OFFCURVE",
"248 460 CURVE SMOOTH",
"276 480 OFFCURVE",
"298 504 OFFCURVE",
"311 533 CURVE SMOOTH",
"317 547 OFFCURVE",
"320 563 OFFCURVE",
"320 581 CURVE SMOOTH",
"320 666 OFFCURVE",
"258 706 OFFCURVE",
"174 706 CURVE SMOOTH",
"70 706 OFFCURVE",
"21 645 OFFCURVE",
"24 553 CURVE"
);
}
);
width = 333;
}
);
note = twosuperior;
unicode = 00B2;
},
{
glyphname = threesuperior;
layers = (
{
layerId = "943E8435-6871-41EF-8C83-AAAA92C7EE80";
name = Light;
paths = (
{
closed = 1;
nodes = (
"135 517 LINE",
"135 478 LINE",
"170 478 LINE SMOOTH",
"230 478 OFFCURVE",
"280 450 OFFCURVE",
"280 394 CURVE SMOOTH",
"280 366 OFFCURVE",
"265 343 OFFCURVE",
"244 328 CURVE SMOOTH",
"223 312 OFFCURVE",
"193 304 OFFCURVE",
"165 304 CURVE SMOOTH",
"93 304 OFFCURVE",
"52 348 OFFCURVE",
"55 412 CURVE",
"8 412 LINE",
"1 316 OFFCURVE",
"66 265 OFFCURVE",
"166 265 CURVE SMOOTH",
"210 265 OFFCURVE",
"251 277 OFFCURVE",
"280 299 CURVE SMOOTH",
"308 321 OFFCURVE",
"327 354 OFFCURVE",
"327 397 CURVE SMOOTH",
"327 453 OFFCURVE",
"293 492 OFFCURVE",
"233 500 CURVE",
"233 502 LINE",
"282 513 OFFCURVE",
"310 548 OFFCURVE",
"310 595 CURVE SMOOTH",
"310 634 OFFCURVE",
"293 662 OFFCURVE",
"266 680 CURVE SMOOTH",
"238 698 OFFCURVE",
"202 706 OFFCURVE",
"165 706 CURVE SMOOTH",
"72 706 OFFCURVE",
"19 648 OFFCURVE",
"18 564 CURVE",
"65 564 LINE",
"64 624 OFFCURVE",
"100 667 OFFCURVE",
"165 667 CURVE SMOOTH",
"217 667 OFFCURVE",
"263 643 OFFCURVE",
"263 591 CURVE SMOOTH",
"263 566 OFFCURVE",
"251 547 OFFCURVE",
"233 535 CURVE SMOOTH",
"215 523 OFFCURVE",
"191 517 OFFCURVE",
"170 517 CURVE SMOOTH"
);
}
);
width = 333;
}
);
note = threesuperior;
unicode = 00B3;
},
{
glyphname = acute;
layers = (
{
layerId = "943E8435-6871-41EF-8C83-AAAA92C7EE80";
name = Light;
paths = (
{
closed = 1;
nodes = (
"84 588 LINE",
"216 729 LINE",
"138 729 LINE",
"33 588 LINE"
);
}
);
width = 185;
}
);
note = acute;
unicode = 00B4;
},
{
glyphname = mu;
layers = (
{
layerId = "943E8435-6871-41EF-8C83-AAAA92C7EE80";
name = Light;
paths = (
{
closed = 1;
nodes = (
"478 0 LINE",
"478 516 LINE",
"415 516 LINE",
"415 245 LINE SMOOTH",
"415 193 OFFCURVE",
"403 141 OFFCURVE",
"378 102 CURVE SMOOTH",
"353 63 OFFCURVE",
"315 38 OFFCURVE",
"260 38 CURVE SMOOTH",
"160 38 OFFCURVE",
"125 87 OFFCURVE",
"122 180 CURVE",
"122 516 LINE",
"59 516 LINE",
"59 -190 LINE",
"123 -190 LINE",
"123 20 LINE",
"155 -4 OFFCURVE",
"197 -14 OFFCURVE",
"240 -14 CURVE SMOOTH",
"317 -14 OFFCURVE",
"385 24 OFFCURVE",
"418 93 CURVE",
"420 93 LINE",
"420 0 LINE"
);
}
);
width = 537;
}
);
note = mu;
unicode = 00B5;
},
{
glyphname = paragraph;
layers = (
{
layerId = "943E8435-6871-41EF-8C83-AAAA92C7EE80";
name = Light;
paths = (
{
closed = 1;
nodes = (
"273 -176 LINE",
"336 -176 LINE",
"336 661 LINE",
"456 661 LINE",
"456 -176 LINE",
"519 -176 LINE",
"519 714 LINE",
"289 714 LINE SMOOTH",
"148 714 OFFCURVE",
"66 646 OFFCURVE",
"66 518 CURVE SMOOTH",
"66 466 OFFCURVE",
"89 419 OFFCURVE",
"126 384 CURVE SMOOTH",
"162 349 OFFCURVE",
"214 328 OFFCURVE",
"273 328 CURVE"
);
}
);
width = 600;
}
);
note = paragraph;
unicode = 00B6;
},
{
glyphname = periodcentered;
layers = (
{
layerId = "943E8435-6871-41EF-8C83-AAAA92C7EE80";
name = Light;
paths = (
{
closed = 1;
nodes = (
"108 375 OFFCURVE",
"80 348 OFFCURVE",
"80 317 CURVE SMOOTH",
"80 285 OFFCURVE",
"107 257 OFFCURVE",
"139 257 CURVE SMOOTH",
"170 257 OFFCURVE",
"198 284 OFFCURVE",
"198 315 CURVE SMOOTH",
"198 347 OFFCURVE",
"171 375 OFFCURVE",
"139 375 CURVE SMOOTH"
);
}
);
width = 278;
}
);
note = periodcentered;
unicode = 00B7;
},
{
glyphname = cedilla;
layers = (
{
layerId = "943E8435-6871-41EF-8C83-AAAA92C7EE80";
name = Light;
paths = (
{
closed = 1;
nodes = (
"126 0 LINE",
"91 0 LINE",
"30 -78 LINE",
"46 -93 LINE",
"58 -88 OFFCURVE",
"75 -85 OFFCURVE",
"97 -85 CURVE SMOOTH",
"120 -85 OFFCURVE",
"140 -99 OFFCURVE",
"140 -123 CURVE SMOOTH",
"140 -154 OFFCURVE",
"115 -166 OFFCURVE",
"87 -166 CURVE SMOOTH",
"58 -166 OFFCURVE",
"25 -159 OFFCURVE",
"8 -152 CURVE",
"-5 -184 LINE",
"23 -199 OFFCURVE",
"56 -205 OFFCURVE",
"88 -205 CURVE SMOOTH",
"113 -205 OFFCURVE",
"141 -198 OFFCURVE",
"162 -184 CURVE SMOOTH",
"183 -170 OFFCURVE",
"198 -150 OFFCURVE",
"198 -119 CURVE SMOOTH",
"198 -88 OFFCURVE",
"181 -70 OFFCURVE",
"158 -61 CURVE",
"134 -53 OFFCURVE",
"106 -53 OFFCURVE",
"82 -57 CURVE"
);
}
);
width = 185;
}
);
note = cedilla;
unicode = 00B8;
},
{
glyphname = onesuperior;
layers = (
{
layerId = "943E8435-6871-41EF-8C83-AAAA92C7EE80";
name = Light;
paths = (
{
closed = 1;
nodes = (
"35 584 LINE",
"156 584 LINE",
"156 274 LINE",
"203 274 LINE",
"203 697 LINE",
"163 697 LINE",
"156 662 OFFCURVE",
"142 644 OFFCURVE",
"121 635 CURVE SMOOTH",
"100 626 OFFCURVE",
"71 624 OFFCURVE",
"35 623 CURVE"
);
}
);
width = 333;
}
);
note = onesuperior;
unicode = 00B9;
},
{
glyphname = ordmasculine;
layers = (
{
layerId = "943E8435-6871-41EF-8C83-AAAA92C7EE80";
name = Light;
paths = (
{
closed = 1;
nodes = (
"128 407 OFFCURVE",
"99 424 OFFCURVE",
"80 448 CURVE SMOOTH",
"60 472 OFFCURVE",
"50 505 OFFCURVE",
"50 537 CURVE SMOOTH",
"50 569 OFFCURVE",
"60 602 OFFCURVE",
"80 626 CURVE SMOOTH",
"99 650 OFFCURVE",
"128 667 OFFCURVE",
"167 667 CURVE SMOOTH",
"206 667 OFFCURVE",
"235 650 OFFCURVE",
"255 626 CURVE SMOOTH",
"274 602 OFFCURVE",
"284 569 OFFCURVE",
"284 537 CURVE SMOOTH",
"284 505 OFFCURVE",
"274 472 OFFCURVE",
"255 448 CURVE SMOOTH",
"235 424 OFFCURVE",
"206 407 OFFCURVE",
"167 407 CURVE SMOOTH"
);
},
{
closed = 1;
nodes = (
"218 368 OFFCURVE",
"261 386 OFFCURVE",
"289 417 CURVE SMOOTH",
"317 448 OFFCURVE",
"331 490 OFFCURVE",
"331 537 CURVE SMOOTH",
"331 584 OFFCURVE",
"317 626 OFFCURVE",
"289 657 CURVE SMOOTH",
"261 688 OFFCURVE",
"218 706 OFFCURVE",
"162 706 CURVE SMOOTH",
"110 706 OFFCURVE",
"71 688 OFFCURVE",
"44 657 CURVE SMOOTH",
"17 626 OFFCURVE",
"3 584 OFFCURVE",
"3 537 CURVE SMOOTH",
"3 490 OFFCURVE",
"17 448 OFFCURVE",
"44 417 CURVE SMOOTH",
"71 386 OFFCURVE",
"110 368 OFFCURVE",
"162 368 CURVE SMOOTH"
);
}
);
width = 334;
}
);
note = ordmasculine;
unicode = 00BA;
},
{
glyphname = guillemotright;
layers = (
{
layerId = "943E8435-6871-41EF-8C83-AAAA92C7EE80";
name = Light;
paths = (
{
closed = 1;
nodes = (
"72 186 LINE",
"72 119 LINE",
"205 244 LINE",
"205 306 LINE",
"72 431 LINE",
"72 364 LINE",
"166 275 LINE"
);
},
{
closed = 1;
nodes = (
"233 186 LINE",
"233 119 LINE",
"366 244 LINE",
"366 306 LINE",
"233 431 LINE",
"233 364 LINE",
"327 275 LINE"
);
}
);
width = 426;
}
);
note = guillemotright;
unicode = 00BB;
},
{
glyphname = onequarter;
layers = (
{
layerId = "943E8435-6871-41EF-8C83-AAAA92C7EE80";
name = Light;
paths = (
{
closed = 1;
nodes = (
"478 139 LINE",
"640 355 LINE",
"642 355 LINE",
"642 139 LINE"
);
},
{
closed = 1;
nodes = (
"642 100 LINE",
"642 0 LINE",
"689 0 LINE",
"689 100 LINE",
"757 100 LINE",
"757 139 LINE",
"689 139 LINE",
"689 423 LINE",
"645 423 LINE",
"432 139 LINE",
"432 100 LINE"
);
},
{
closed = 1;
nodes = (
"48 584 LINE",
"169 584 LINE",
"169 274 LINE",
"216 274 LINE",
"216 697 LINE",
"176 697 LINE",
"169 662 OFFCURVE",
"155 644 OFFCURVE",
"134 635 CURVE SMOOTH",
"113 626 OFFCURVE",
"84 624 OFFCURVE",
"48 623 CURVE"
);
},
{
closed = 1;
nodes = (
"586 725 LINE",
"133 -33 LINE",
"181 -33 LINE",
"633 725 LINE"
);
}
);
width = 834;
}
);
note = onequarter;
unicode = 00BC;
},
{
glyphname = onehalf;
layers = (
{
layerId = "943E8435-6871-41EF-8C83-AAAA92C7EE80";
name = Light;
paths = (
{
closed = 1;
nodes = (
"536 279 LINE",
"536 308 OFFCURVE",
"542 337 OFFCURVE",
"558 358 CURVE SMOOTH",
"574 379 OFFCURVE",
"599 393 OFFCURVE",
"635 393 CURVE SMOOTH",
"663 393 OFFCURVE",
"688 386 OFFCURVE",
"707 372 CURVE SMOOTH",
"726 358 OFFCURVE",
"738 338 OFFCURVE",
"738 311 CURVE SMOOTH",
"738 276 OFFCURVE",
"724 255 OFFCURVE",
"699 231 CURVE SMOOTH",
"680 213 OFFCURVE",
"658 197 OFFCURVE",
"633 183 CURVE SMOOTH",
"583 155 OFFCURVE",
"536 124 OFFCURVE",
"505 81 CURVE SMOOTH",
"489 60 OFFCURVE",
"481 33 OFFCURVE",
"480 0 CURVE",
"782 0 LINE",
"782 39 LINE",
"534 39 LINE",
"542 70 OFFCURVE",
"565 92 OFFCURVE",
"592 111 CURVE SMOOTH",
"605 120 OFFCURVE",
"619 129 OFFCURVE",
"633 137 CURVE SMOOTH",
"661 152 OFFCURVE",
"685 166 OFFCURVE",
"713 186 CURVE SMOOTH",
"741 206 OFFCURVE",
"763 230 OFFCURVE",
"776 259 CURVE SMOOTH",
"782 273 OFFCURVE",
"785 289 OFFCURVE",
"785 307 CURVE SMOOTH",
"785 392 OFFCURVE",
"723 432 OFFCURVE",
"639 432 CURVE SMOOTH",
"535 432 OFFCURVE",
"486 371 OFFCURVE",
"489 279 CURVE"
);
},
{
closed = 1;
nodes = (
"48 584 LINE",
"169 584 LINE",
"169 274 LINE",
"216 274 LINE",
"216 697 LINE",
"176 697 LINE",
"169 662 OFFCURVE",
"155 644 OFFCURVE",
"134 635 CURVE SMOOTH",
"113 626 OFFCURVE",
"84 624 OFFCURVE",
"48 623 CURVE"
);
},
{
closed = 1;
nodes = (
"586 725 LINE",
"133 -33 LINE",
"181 -33 LINE",
"633 725 LINE"
);
}
);
width = 834;
}
);
note = onehalf;
unicode = 00BD;
},
{
glyphname = threequarters;
layers = (
{
layerId = "943E8435-6871-41EF-8C83-AAAA92C7EE80";
name = Light;
paths = (
{
closed = 1;
nodes = (
"478 139 LINE",
"640 355 LINE",
"642 355 LINE",
"642 139 LINE"
);
},
{
closed = 1;
nodes = (
"642 100 LINE",
"642 0 LINE",
"689 0 LINE",
"689 100 LINE",
"757 100 LINE",
"757 139 LINE",
"689 139 LINE",
"689 423 LINE",
"645 423 LINE",
"432 139 LINE",
"432 100 LINE"
);
},
{
closed = 1;
nodes = (
"626 725 LINE",
"173 -33 LINE",
"221 -33 LINE",
"673 725 LINE"
);
},
{
closed = 1;
nodes = (
"135 517 LINE",
"135 478 LINE",
"170 478 LINE SMOOTH",
"230 478 OFFCURVE",
"280 450 OFFCURVE",
"280 394 CURVE SMOOTH",
"280 366 OFFCURVE",
"265 343 OFFCURVE",
"244 328 CURVE SMOOTH",
"223 312 OFFCURVE",
"193 304 OFFCURVE",
"165 304 CURVE SMOOTH",
"93 304 OFFCURVE",
"52 348 OFFCURVE",
"55 412 CURVE",
"8 412 LINE",
"1 316 OFFCURVE",
"66 265 OFFCURVE",
"166 265 CURVE SMOOTH",
"210 265 OFFCURVE",
"251 277 OFFCURVE",
"280 299 CURVE SMOOTH",
"308 321 OFFCURVE",
"327 354 OFFCURVE",
"327 397 CURVE SMOOTH",
"327 453 OFFCURVE",
"293 492 OFFCURVE",
"233 500 CURVE",
"233 502 LINE",
"282 513 OFFCURVE",
"310 548 OFFCURVE",
"310 595 CURVE SMOOTH",
"310 634 OFFCURVE",
"293 662 OFFCURVE",
"266 680 CURVE SMOOTH",
"238 698 OFFCURVE",
"202 706 OFFCURVE",
"165 706 CURVE SMOOTH",
"72 706 OFFCURVE",
"19 648 OFFCURVE",
"18 564 CURVE",
"65 564 LINE",
"64 624 OFFCURVE",
"100 667 OFFCURVE",
"165 667 CURVE SMOOTH",
"217 667 OFFCURVE",
"263 643 OFFCURVE",
"263 591 CURVE SMOOTH",
"263 566 OFFCURVE",
"251 547 OFFCURVE",
"233 535 CURVE SMOOTH",
"215 523 OFFCURVE",
"191 517 OFFCURVE",
"170 517 CURVE SMOOTH"
);
}
);
width = 834;
}
);
note = threequarters;
unicode = 00BE;
},
{
glyphname = questiondown;
layers = (
{
layerId = "943E8435-6871-41EF-8C83-AAAA92C7EE80";
name = Light;
paths = (
{
closed = 1;
nodes = (
"307 410 LINE",
"307 516 LINE",
"223 516 LINE",
"223 410 LINE"
);
},
{
closed = 1;
nodes = (
"421 29 LINE",
"422 -22 OFFCURVE",
"409 -67 OFFCURVE",
"382 -99 CURVE SMOOTH",
"355 -132 OFFCURVE",
"315 -152 OFFCURVE",
"260 -152 CURVE SMOOTH",
"221 -152 OFFCURVE",
"186 -138 OFFCURVE",
"160 -114 CURVE SMOOTH",
"134 -91 OFFCURVE",
"117 -57 OFFCURVE",
"117 -17 CURVE SMOOTH",
"117 34 OFFCURVE",
"145 76 OFFCURVE",
"182 111 CURVE SMOOTH",
"225 150 OFFCURVE",
"253 178 OFFCURVE",
"272 211 CURVE SMOOTH",
"291 243 OFFCURVE",
"298 283 OFFCURVE",
"297 344 CURVE",
"234 344 LINE",
"233 304 OFFCURVE",
"232 278 OFFCURVE",
"228 258 CURVE",
"223 238 OFFCURVE",
"215 225 OFFCURVE",
"202 210 CURVE SMOOTH",
"195 202 OFFCURVE",
"187 193 OFFCURVE",
"177 184 CURVE SMOOTH",
"167 175 OFFCURVE",
"155 163 OFFCURVE",
"141 149 CURVE SMOOTH",
"90 101 OFFCURVE",
"54 53 OFFCURVE",
"54 -20 CURVE SMOOTH",
"54 -79 OFFCURVE",
"77 -124 OFFCURVE",
"114 -156 CURVE SMOOTH",
"151 -188 OFFCURVE",
"201 -205 OFFCURVE",
"257 -205 CURVE SMOOTH",
"329 -205 OFFCURVE",
"385 -182 OFFCURVE",
"425 -141 CURVE SMOOTH",
"464 -100 OFFCURVE",
"484 -42 OFFCURVE",
"484 29 CURVE"
);
}
);
width = 537;
}
);
note = questiondown;
unicode = 00BF;
},
{
glyphname = Agrave;
layers = (
{
layerId = "943E8435-6871-41EF-8C83-AAAA92C7EE80";
name = Light;
paths = (
{
closed = 1;
nodes = (
"192 912 LINE",
"324 771 LINE",
"375 771 LINE",
"270 912 LINE"
);
},
{
closed = 1;
nodes = (
"173 280 LINE",
"316 646 LINE",
"454 280 LINE"
);
},
{
closed = 1;
nodes = (
"281 714 LINE",
"-6 0 LINE",
"66 0 LINE",
"152 222 LINE",
"477 222 LINE",
"564 0 LINE",
"637 0 LINE",
"357 714 LINE"
);
}
);
width = 630;
}
);
note = Agrave;
unicode = 00C0;
},
{
glyphname = Aacute;
layers = (
{
layerId = "943E8435-6871-41EF-8C83-AAAA92C7EE80";
name = Light;
paths = (
{
closed = 1;
nodes = (
"307 771 LINE",
"439 912 LINE",
"361 912 LINE",
"256 771 LINE"
);
},
{
closed = 1;
nodes = (
"173 280 LINE",
"316 646 LINE",
"454 280 LINE"
);
},
{
closed = 1;
nodes = (
"281 714 LINE",
"-6 0 LINE",
"66 0 LINE",
"152 222 LINE",
"477 222 LINE",
"564 0 LINE",
"637 0 LINE",
"357 714 LINE"
);
}
);
width = 630;
}
);
note = Aacute;
unicode = 00C1;
},
{
glyphname = Acircumflex;
layers = (
{
layerId = "943E8435-6871-41EF-8C83-AAAA92C7EE80";
name = Light;
paths = (
{
closed = 1;
nodes = (
"464 771 LINE",
"350 912 LINE",
"281 912 LINE",
"167 771 LINE",
"225 771 LINE",
"313 873 LINE",
"399 771 LINE"
);
},
{
closed = 1;
nodes = (
"173 280 LINE",
"316 646 LINE",
"454 280 LINE"
);
},
{
closed = 1;
nodes = (
"281 714 LINE",
"-6 0 LINE",
"66 0 LINE",
"152 222 LINE",
"477 222 LINE",
"564 0 LINE",
"637 0 LINE",
"357 714 LINE"
);
}
);
width = 630;
}
);
note = Acircumflex;
unicode = 00C2;
},
{
glyphname = Atilde;
layers = (
{
layerId = "943E8435-6871-41EF-8C83-AAAA92C7EE80";
name = Light;
paths = (
{
closed = 1;
nodes = (
"434 891 LINE",
"426 864 OFFCURVE",
"413 843 OFFCURVE",
"382 843 CURVE SMOOTH",
"363 843 OFFCURVE",
"345 854 OFFCURVE",
"323 865 CURVE SMOOTH",
"301 876 OFFCURVE",
"275 887 OFFCURVE",
"247 887 CURVE SMOOTH",
"222 887 OFFCURVE",
"200 875 OFFCURVE",
"185 857 CURVE SMOOTH",
"170 839 OFFCURVE",
"161 815 OFFCURVE",
"158 791 CURVE",
"197 791 LINE",
"197 824 OFFCURVE",
"219 842 OFFCURVE",
"250 842 CURVE SMOOTH",
"267 842 OFFCURVE",
"287 831 OFFCURVE",
"310 819 CURVE SMOOTH",
"333 807 OFFCURVE",
"358 796 OFFCURVE",
"385 796 CURVE SMOOTH",
"412 796 OFFCURVE",
"432 809 OFFCURVE",
"446 827 CURVE SMOOTH",
"460 845 OFFCURVE",
"468 868 OFFCURVE",
"472 891 CURVE"
);
},
{
closed = 1;
nodes = (
"173 280 LINE",
"316 646 LINE",
"454 280 LINE"
);
},
{
closed = 1;
nodes = (
"281 714 LINE",
"-6 0 LINE",
"66 0 LINE",
"152 222 LINE",
"477 222 LINE",
"564 0 LINE",
"637 0 LINE",
"357 714 LINE"
);
}
);
width = 630;
}
);
note = Atilde;
unicode = 00C3;
},
{
glyphname = Adieresis;
layers = (
{
layerId = "943E8435-6871-41EF-8C83-AAAA92C7EE80";
name = Light;
paths = (
{
closed = 1;
nodes = (
"193 788 LINE",
"261 788 LINE",
"261 889 LINE",
"193 889 LINE"
);
},
{
closed = 1;
nodes = (
"370 788 LINE",
"438 788 LINE",
"438 889 LINE",
"370 889 LINE"
);
},
{
closed = 1;
nodes = (
"173 280 LINE",
"316 646 LINE",
"454 280 LINE"
);
},
{
closed = 1;
nodes = (
"281 714 LINE",
"-6 0 LINE",
"66 0 LINE",
"152 222 LINE",
"477 222 LINE",
"564 0 LINE",
"637 0 LINE",
"357 714 LINE"
);
}
);
width = 630;
}
);
note = Adieresis;
unicode = 00C4;
},
{
glyphname = Aring;
layers = (
{
layerId = "943E8435-6871-41EF-8C83-AAAA92C7EE80";
name = Light;
paths = (
{
closed = 1;
nodes = (
"-6 0 LINE",
"281 684 LINE",
"357 684 LINE",
"637 0 LINE",
"564 0 LINE",
"480 212 LINE",
"151 212 LINE",
"66 0 LINE"
);
},
{
closed = 1;
nodes = (
"174 270 LINE",
"457 270 LINE",
"316 625 LINE"
);
},
{
closed = 1;
nodes = (
"247 867 OFFCURVE",
"276 896 OFFCURVE",
"315 896 CURVE SMOOTH",
"354 896 OFFCURVE",
"383 867 OFFCURVE",
"383 828 CURVE SMOOTH",
"383 789 OFFCURVE",
"354 760 OFFCURVE",
"315 760 CURVE SMOOTH",
"276 760 OFFCURVE",
"247 789 OFFCURVE",
"247 828 CURVE SMOOTH"
);
},
{
closed = 1;
nodes = (
"209 799 OFFCURVE",
"220 772 OFFCURVE",
"240 753 CURVE",
"259 733 OFFCURVE",
"286 721 OFFCURVE",
"315 721 CURVE SMOOTH",
"344 721 OFFCURVE",
"371 733 OFFCURVE",
"391 753 CURVE SMOOTH",
"410 772 OFFCURVE",
"422 799 OFFCURVE",
"422 828 CURVE SMOOTH",
"422 857 OFFCURVE",
"410 884 OFFCURVE",
"391 904 CURVE",
"371 923 OFFCURVE",
"344 935 OFFCURVE",
"315 935 CURVE SMOOTH",
"286 935 OFFCURVE",
"259 923 OFFCURVE",
"240 904 CURVE SMOOTH",
"220 884 OFFCURVE",
"209 857 OFFCURVE",
"209 828 CURVE SMOOTH"
);
}
);
width = 630;
}
);
note = Aring;
unicode = 00C5;
},
{
glyphname = AE;
layers = (
{
layerId = "943E8435-6871-41EF-8C83-AAAA92C7EE80";
name = Light;
paths = (
{
closed = 1;
nodes = (
"445 284 LINE",
"216 284 LINE",
"405 656 LINE",
"445 656 LINE"
);
},
{
closed = 1;
nodes = (
"513 58 LINE",
"513 340 LINE",
"857 340 LINE",
"857 398 LINE",
"513 398 LINE",
"513 656 LINE",
"880 656 LINE",
"880 714 LINE",
"367 714 LINE",
"-6 0 LINE",
"70 0 LINE",
"186 226 LINE",
"445 226 LINE",
"445 0 LINE",
"884 0 LINE",
"884 58 LINE"
);
}
);
width = 907;
}
);
note = AE;
unicode = 00C6;
},
{
glyphname = Ccedilla;
layers = (
{
layerId = "943E8435-6871-41EF-8C83-AAAA92C7EE80";
name = Light;
paths = (
{
closed = 1;
nodes = (
"604 272 LINE",
"597 208 OFFCURVE",
"573 151 OFFCURVE",
"534 110 CURVE SMOOTH",
"495 69 OFFCURVE",
"442 43 OFFCURVE",
"375 43 CURVE SMOOTH",
"280 43 OFFCURVE",
"213 82 OFFCURVE",
"170 142 CURVE SMOOTH",
"126 201 OFFCURVE",
"106 280 OFFCURVE",
"106 357 CURVE SMOOTH",
"106 436 OFFCURVE",
"126 513 OFFCURVE",
"170 573 CURVE SMOOTH",
"213 632 OFFCURVE",
"280 671 OFFCURVE",
"375 671 CURVE SMOOTH",
"427 671 OFFCURVE",
"475 655 OFFCURVE",
"515 626 CURVE SMOOTH",
"554 597 OFFCURVE",
"582 553 OFFCURVE",
"594 498 CURVE",
"662 498 LINE",
"653 573 OFFCURVE",
"615 630 OFFCURVE",
"563 670 CURVE SMOOTH",
"510 709 OFFCURVE",
"443 729 OFFCURVE",
"375 729 CURVE SMOOTH",
"263 729 OFFCURVE",
"178 685 OFFCURVE",
"122 617 CURVE SMOOTH",
"66 548 OFFCURVE",
"38 456 OFFCURVE",
"38 357 CURVE SMOOTH",
"38 265 OFFCURVE",
"64 176 OFFCURVE",
"114 109 CURVE SMOOTH",
"164 42 OFFCURVE",
"239 -4 OFFCURVE",
"340 -12 CURVE",
"289 -78 LINE",
"305 -93 LINE",
"317 -88 OFFCURVE",
"334 -85 OFFCURVE",
"356 -85 CURVE SMOOTH",
"379 -85 OFFCURVE",
"399 -99 OFFCURVE",
"399 -123 CURVE SMOOTH",
"399 -154 OFFCURVE",
"374 -166 OFFCURVE",
"346 -166 CURVE SMOOTH",
"317 -166 OFFCURVE",
"284 -159 OFFCURVE",
"267 -152 CURVE",
"253 -184 LINE",
"282 -199 OFFCURVE",
"315 -205 OFFCURVE",
"347 -205 CURVE SMOOTH",
"372 -205 OFFCURVE",
"400 -198 OFFCURVE",
"421 -184 CURVE SMOOTH",
"442 -170 OFFCURVE",
"457 -150 OFFCURVE",
"457 -119 CURVE SMOOTH",
"457 -88 OFFCURVE",
"440 -70 OFFCURVE",
"417 -61 CURVE",
"393 -53 OFFCURVE",
"365 -53 OFFCURVE",
"341 -57 CURVE",
"374 -14 LINE",
"375 -14 LINE SMOOTH",
"459 -14 OFFCURVE",
"528 14 OFFCURVE",
"579 63 CURVE SMOOTH",
"630 112 OFFCURVE",
"663 184 OFFCURVE",
"672 272 CURVE"
);
}
);
width = 704;
}
);
note = Ccedilla;
unicode = 00C7;
},
{
glyphname = Egrave;
layers = (
{
layerId = "943E8435-6871-41EF-8C83-AAAA92C7EE80";
name = Light;
paths = (
{
closed = 1;
nodes = (
"173 912 LINE",
"305 771 LINE",
"356 771 LINE",
"251 912 LINE"
);
},
{
closed = 1;
nodes = (
"72 714 LINE",
"72 0 LINE",
"570 0 LINE",
"570 58 LINE",
"140 58 LINE",
"140 340 LINE",
"538 340 LINE",
"538 398 LINE",
"140 398 LINE",
"140 656 LINE",
"565 656 LINE",
"565 714 LINE"
);
}
);
width = 593;
}
);
note = Egrave;
unicode = 00C8;
},
{
glyphname = Eacute;
layers = (
{
layerId = "943E8435-6871-41EF-8C83-AAAA92C7EE80";
name = Light;
paths = (
{
closed = 1;
nodes = (
"288 771 LINE",
"420 912 LINE",
"342 912 LINE",
"237 771 LINE"
);
},
{
closed = 1;
nodes = (
"72 714 LINE",
"72 0 LINE",
"570 0 LINE",
"570 58 LINE",
"140 58 LINE",
"140 340 LINE",
"538 340 LINE",
"538 398 LINE",
"140 398 LINE",
"140 656 LINE",
"565 656 LINE",
"565 714 LINE"
);
}
);
width = 593;
}
);
note = Eacute;
unicode = 00C9;
},
{
glyphname = Ecircumflex;
layers = (
{
layerId = "943E8435-6871-41EF-8C83-AAAA92C7EE80";
name = Light;
paths = (
{
closed = 1;
nodes = (
"445 771 LINE",
"331 912 LINE",
"262 912 LINE",
"148 771 LINE",
"206 771 LINE",
"294 873 LINE",
"380 771 LINE"
);
},
{
closed = 1;
nodes = (
"72 714 LINE",
"72 0 LINE",
"570 0 LINE",
"570 58 LINE",
"140 58 LINE",
"140 340 LINE",
"538 340 LINE",
"538 398 LINE",
"140 398 LINE",
"140 656 LINE",
"565 656 LINE",
"565 714 LINE"
);
}
);
width = 593;
}
);
note = Ecircumflex;
unicode = 00CA;
},
{
glyphname = Edieresis;
layers = (
{
layerId = "943E8435-6871-41EF-8C83-AAAA92C7EE80";
name = Light;
paths = (
{
closed = 1;
nodes = (
"174 788 LINE",
"242 788 LINE",
"242 889 LINE",
"174 889 LINE"
);
},
{
closed = 1;
nodes = (
"351 788 LINE",
"419 788 LINE",
"419 889 LINE",
"351 889 LINE"
);
},
{
closed = 1;
nodes = (
"72 714 LINE",
"72 0 LINE",
"570 0 LINE",
"570 58 LINE",
"140 58 LINE",
"140 340 LINE",
"538 340 LINE",
"538 398 LINE",
"140 398 LINE",
"140 656 LINE",
"565 656 LINE",
"565 714 LINE"
);
}
);
width = 593;
}
);
note = Edieresis;
unicode = 00CB;
},
{
glyphname = Igrave;
layers = (
{
layerId = "943E8435-6871-41EF-8C83-AAAA92C7EE80";
name = Light;
paths = (
{
closed = 1;
nodes = (
"-11 912 LINE",
"120 771 LINE",
"171 771 LINE",
"66 912 LINE"
);
},
{
closed = 1;
nodes = (
"77 714 LINE",
"77 0 LINE",
"145 0 LINE",
"145 714 LINE"
);
}
);
width = 222;
}
);
note = Igrave;
unicode = 00CC;
},
{
glyphname = Iacute;
layers = (
{
layerId = "943E8435-6871-41EF-8C83-AAAA92C7EE80";
name = Light;
paths = (
{
closed = 1;
nodes = (
"103 771 LINE",
"235 912 LINE",
"157 912 LINE",
"52 771 LINE"
);
},
{
closed = 1;
nodes = (
"77 714 LINE",
"77 0 LINE",
"145 0 LINE",
"145 714 LINE"
);
}
);
width = 222;
}
);
note = Iacute;
unicode = 00CD;
},
{
glyphname = Icircumflex;
layers = (
{
layerId = "943E8435-6871-41EF-8C83-AAAA92C7EE80";
name = Light;
paths = (
{
closed = 1;
nodes = (
"260 771 LINE",
"146 912 LINE",
"77 912 LINE",
"-36 771 LINE",
"21 771 LINE",
"109 873 LINE",
"195 771 LINE"
);
},
{
closed = 1;
nodes = (
"77 714 LINE",
"77 0 LINE",
"145 0 LINE",
"145 714 LINE"
);
}
);
width = 222;
}
);
note = Icircumflex;
unicode = 00CE;
},
{
glyphname = Idieresis;
layers = (
{
layerId = "943E8435-6871-41EF-8C83-AAAA92C7EE80";
name = Light;
paths = (
{
closed = 1;
nodes = (
"-10 788 LINE",
"57 788 LINE",
"57 889 LINE",
"-10 889 LINE"
);
},
{
closed = 1;
nodes = (
"166 788 LINE",
"234 788 LINE",
"234 889 LINE",
"166 889 LINE"
);
},
{
closed = 1;
nodes = (
"77 714 LINE",
"77 0 LINE",
"145 0 LINE",
"145 714 LINE"
);
}
);
width = 222;
}
);
note = Idieresis;
unicode = 00CF;
},
{
glyphname = Eth;
layers = (
{
layerId = "943E8435-6871-41EF-8C83-AAAA92C7EE80";
name = Light;
paths = (
{
closed = 1;
nodes = (
"72 714 LINE",
"72 393 LINE",
"0 393 LINE",
"0 348 LINE",
"72 348 LINE",
"72 0 LINE",
"319 0 LINE SMOOTH",
"536 5 OFFCURVE",
"647 120 OFFCURVE",
"647 357 CURVE SMOOTH",
"647 594 OFFCURVE",
"536 709 OFFCURVE",
"319 714 CURVE SMOOTH"
);
},
{
closed = 1;
nodes = (
"140 393 LINE",
"140 656 LINE",
"285 656 LINE SMOOTH",
"388 656 OFFCURVE",
"461 635 OFFCURVE",
"509 587 CURVE SMOOTH",
"557 539 OFFCURVE",
"579 464 OFFCURVE",
"579 357 CURVE SMOOTH",
"579 250 OFFCURVE",
"557 175 OFFCURVE",
"509 127 CURVE SMOOTH",
"461 79 OFFCURVE",
"388 58 OFFCURVE",
"285 58 CURVE SMOOTH",
"140 58 LINE",
"140 348 LINE",
"376 348 LINE",
"376 393 LINE"
);
}
);
width = 685;
}
);
note = Eth;
unicode = 00D0;
},
{
glyphname = Ntilde;
layers = (
{
layerId = "943E8435-6871-41EF-8C83-AAAA92C7EE80";
name = Light;
paths = (
{
closed = 1;
nodes = (
"471 891 LINE",
"463 864 OFFCURVE",
"450 843 OFFCURVE",
"419 843 CURVE SMOOTH",
"400 843 OFFCURVE",
"382 854 OFFCURVE",
"360 865 CURVE SMOOTH",
"338 876 OFFCURVE",
"312 887 OFFCURVE",
"284 887 CURVE SMOOTH",
"259 887 OFFCURVE",
"237 875 OFFCURVE",
"222 857 CURVE SMOOTH",
"207 839 OFFCURVE",
"198 815 OFFCURVE",
"195 791 CURVE",
"234 791 LINE",
"234 824 OFFCURVE",
"256 842 OFFCURVE",
"287 842 CURVE SMOOTH",
"304 842 OFFCURVE",
"324 831 OFFCURVE",
"347 819 CURVE SMOOTH",
"370 807 OFFCURVE",
"395 796 OFFCURVE",
"422 796 CURVE SMOOTH",
"449 796 OFFCURVE",
"469 809 OFFCURVE",
"483 827 CURVE SMOOTH",
"497 845 OFFCURVE",
"505 868 OFFCURVE",
"509 891 CURVE"
);
},
{
closed = 1;
nodes = (
"71 714 LINE",
"71 0 LINE",
"139 0 LINE",
"139 604 LINE",
"141 604 LINE",
"557 0 LINE",
"633 0 LINE",
"633 714 LINE",
"565 714 LINE",
"565 110 LINE",
"563 110 LINE",
"147 714 LINE"
);
}
);
width = 704;
}
);
note = Ntilde;
unicode = 00D1;
},
{
glyphname = Ograve;
layers = (
{
layerId = "943E8435-6871-41EF-8C83-AAAA92C7EE80";
name = Light;
paths = (
{
closed = 1;
nodes = (
"247 912 LINE",
"379 771 LINE",
"430 771 LINE",
"325 912 LINE"
);
},
{
closed = 1;
nodes = (
"102 436 OFFCURVE",
"122 513 OFFCURVE",
"166 573 CURVE SMOOTH",
"209 632 OFFCURVE",
"276 671 OFFCURVE",
"371 671 CURVE SMOOTH",
"466 671 OFFCURVE",
"532 632 OFFCURVE",
"576 573 CURVE SMOOTH",
"619 513 OFFCURVE",
"639 436 OFFCURVE",
"639 357 CURVE SMOOTH",
"639 280 OFFCURVE",
"619 201 OFFCURVE",
"576 142 CURVE SMOOTH",
"532 82 OFFCURVE",
"466 43 OFFCURVE",
"371 43 CURVE SMOOTH",
"276 43 OFFCURVE",
"209 82 OFFCURVE",
"166 142 CURVE SMOOTH",
"122 201 OFFCURVE",
"102 280 OFFCURVE",
"102 357 CURVE SMOOTH"
);
},
{
closed = 1;
nodes = (
"34 258 OFFCURVE",
"62 166 OFFCURVE",
"118 98 CURVE SMOOTH",
"174 30 OFFCURVE",
"259 -14 OFFCURVE",
"371 -14 CURVE SMOOTH",
"483 -14 OFFCURVE",
"567 30 OFFCURVE",
"623 98 CURVE SMOOTH",
"679 166 OFFCURVE",
"707 258 OFFCURVE",
"707 357 CURVE SMOOTH",
"707 456 OFFCURVE",
"679 548 OFFCURVE",
"623 617 CURVE SMOOTH",
"567 685 OFFCURVE",
"483 729 OFFCURVE",
"371 729 CURVE SMOOTH",
"259 729 OFFCURVE",
"174 685 OFFCURVE",
"118 617 CURVE SMOOTH",
"62 548 OFFCURVE",
"34 456 OFFCURVE",
"34 357 CURVE SMOOTH"
);
}
);
width = 741;
}
);
note = Ograve;
unicode = 00D2;
},
{
glyphname = Oacute;
layers = (
{
layerId = "943E8435-6871-41EF-8C83-AAAA92C7EE80";
name = Light;
paths = (
{
closed = 1;
nodes = (
"362 771 LINE",
"494 912 LINE",
"416 912 LINE",
"311 771 LINE"
);
},
{
closed = 1;
nodes = (
"102 436 OFFCURVE",
"122 513 OFFCURVE",
"166 573 CURVE SMOOTH",
"209 632 OFFCURVE",
"276 671 OFFCURVE",
"371 671 CURVE SMOOTH",
"466 671 OFFCURVE",
"532 632 OFFCURVE",
"576 573 CURVE SMOOTH",
"619 513 OFFCURVE",
"639 436 OFFCURVE",
"639 357 CURVE SMOOTH",
"639 280 OFFCURVE",
"619 201 OFFCURVE",
"576 142 CURVE SMOOTH",
"532 82 OFFCURVE",
"466 43 OFFCURVE",
"371 43 CURVE SMOOTH",
"276 43 OFFCURVE",
"209 82 OFFCURVE",
"166 142 CURVE SMOOTH",
"122 201 OFFCURVE",
"102 280 OFFCURVE",
"102 357 CURVE SMOOTH"
);
},
{
closed = 1;
nodes = (
"34 258 OFFCURVE",
"62 166 OFFCURVE",
"118 98 CURVE SMOOTH",
"174 30 OFFCURVE",
"259 -14 OFFCURVE",
"371 -14 CURVE SMOOTH",
"483 -14 OFFCURVE",
"567 30 OFFCURVE",
"623 98 CURVE SMOOTH",
"679 166 OFFCURVE",
"707 258 OFFCURVE",
"707 357 CURVE SMOOTH",
"707 456 OFFCURVE",
"679 548 OFFCURVE",
"623 617 CURVE SMOOTH",
"567 685 OFFCURVE",
"483 729 OFFCURVE",
"371 729 CURVE SMOOTH",
"259 729 OFFCURVE",
"174 685 OFFCURVE",
"118 617 CURVE SMOOTH",
"62 548 OFFCURVE",
"34 456 OFFCURVE",
"34 357 CURVE SMOOTH"
);
}
);
width = 741;
}
);
note = Oacute;
unicode = 00D3;
},
{
glyphname = Ocircumflex;
layers = (
{
layerId = "943E8435-6871-41EF-8C83-AAAA92C7EE80";
name = Light;
paths = (
{
closed = 1;
nodes = (
"519 771 LINE",
"405 912 LINE",
"336 912 LINE",
"222 771 LINE",
"280 771 LINE",
"368 873 LINE",
"454 771 LINE"
);
},
{
closed = 1;
nodes = (
"102 436 OFFCURVE",
"122 513 OFFCURVE",
"166 573 CURVE SMOOTH",
"209 632 OFFCURVE",
"276 671 OFFCURVE",
"371 671 CURVE SMOOTH",
"466 671 OFFCURVE",
"532 632 OFFCURVE",
"576 573 CURVE SMOOTH",
"619 513 OFFCURVE",
"639 436 OFFCURVE",
"639 357 CURVE SMOOTH",
"639 280 OFFCURVE",
"619 201 OFFCURVE",
"576 142 CURVE SMOOTH",
"532 82 OFFCURVE",
"466 43 OFFCURVE",
"371 43 CURVE SMOOTH",
"276 43 OFFCURVE",
"209 82 OFFCURVE",
"166 142 CURVE SMOOTH",
"122 201 OFFCURVE",
"102 280 OFFCURVE",
"102 357 CURVE SMOOTH"
);
},
{
closed = 1;
nodes = (
"34 258 OFFCURVE",
"62 166 OFFCURVE",
"118 98 CURVE SMOOTH",
"174 30 OFFCURVE",
"259 -14 OFFCURVE",
"371 -14 CURVE SMOOTH",
"483 -14 OFFCURVE",
"567 30 OFFCURVE",
"623 98 CURVE SMOOTH",
"679 166 OFFCURVE",
"707 258 OFFCURVE",
"707 357 CURVE SMOOTH",
"707 456 OFFCURVE",
"679 548 OFFCURVE",
"623 617 CURVE SMOOTH",
"567 685 OFFCURVE",
"483 729 OFFCURVE",
"371 729 CURVE SMOOTH",
"259 729 OFFCURVE",
"174 685 OFFCURVE",
"118 617 CURVE SMOOTH",
"62 548 OFFCURVE",
"34 456 OFFCURVE",
"34 357 CURVE SMOOTH"
);
}
);
width = 741;
}
);
note = Ocircumflex;
unicode = 00D4;
},
{
glyphname = Otilde;
layers = (
{
layerId = "943E8435-6871-41EF-8C83-AAAA92C7EE80";
name = Light;
paths = (
{
closed = 1;
nodes = (
"489 891 LINE",
"481 864 OFFCURVE",
"468 843 OFFCURVE",
"437 843 CURVE SMOOTH",
"418 843 OFFCURVE",
"400 854 OFFCURVE",
"378 865 CURVE SMOOTH",
"356 876 OFFCURVE",
"330 887 OFFCURVE",
"302 887 CURVE SMOOTH",
"277 887 OFFCURVE",
"255 875 OFFCURVE",
"240 857 CURVE SMOOTH",
"225 839 OFFCURVE",
"216 815 OFFCURVE",
"213 791 CURVE",
"252 791 LINE",
"252 824 OFFCURVE",
"274 842 OFFCURVE",
"305 842 CURVE SMOOTH",
"322 842 OFFCURVE",
"342 831 OFFCURVE",
"365 819 CURVE SMOOTH",
"388 807 OFFCURVE",
"413 796 OFFCURVE",
"440 796 CURVE SMOOTH",
"467 796 OFFCURVE",
"487 809 OFFCURVE",
"501 827 CURVE SMOOTH",
"515 845 OFFCURVE",
"523 868 OFFCURVE",
"527 891 CURVE"
);
},
{
closed = 1;
nodes = (
"102 436 OFFCURVE",
"122 513 OFFCURVE",
"166 573 CURVE SMOOTH",
"209 632 OFFCURVE",
"276 671 OFFCURVE",
"371 671 CURVE SMOOTH",
"466 671 OFFCURVE",
"532 632 OFFCURVE",
"576 573 CURVE SMOOTH",
"619 513 OFFCURVE",
"639 436 OFFCURVE",
"639 357 CURVE SMOOTH",
"639 280 OFFCURVE",
"619 201 OFFCURVE",
"576 142 CURVE SMOOTH",
"532 82 OFFCURVE",
"466 43 OFFCURVE",
"371 43 CURVE SMOOTH",
"276 43 OFFCURVE",
"209 82 OFFCURVE",
"166 142 CURVE SMOOTH",
"122 201 OFFCURVE",
"102 280 OFFCURVE",
"102 357 CURVE SMOOTH"
);
},
{
closed = 1;
nodes = (
"34 258 OFFCURVE",
"62 166 OFFCURVE",
"118 98 CURVE SMOOTH",
"174 30 OFFCURVE",
"259 -14 OFFCURVE",
"371 -14 CURVE SMOOTH",
"483 -14 OFFCURVE",
"567 30 OFFCURVE",
"623 98 CURVE SMOOTH",
"679 166 OFFCURVE",
"707 258 OFFCURVE",
"707 357 CURVE SMOOTH",
"707 456 OFFCURVE",
"679 548 OFFCURVE",
"623 617 CURVE SMOOTH",
"567 685 OFFCURVE",
"483 729 OFFCURVE",
"371 729 CURVE SMOOTH",
"259 729 OFFCURVE",
"174 685 OFFCURVE",
"118 617 CURVE SMOOTH",
"62 548 OFFCURVE",
"34 456 OFFCURVE",
"34 357 CURVE SMOOTH"
);
}
);
width = 741;
}
);
note = Otilde;
unicode = 00D5;
},
{
glyphname = Odieresis;
layers = (
{
layerId = "943E8435-6871-41EF-8C83-AAAA92C7EE80";
name = Light;
paths = (
{
closed = 1;
nodes = (
"248 788 LINE",
"316 788 LINE",
"316 889 LINE",
"248 889 LINE"
);
},
{
closed = 1;
nodes = (
"425 788 LINE",
"493 788 LINE",
"493 889 LINE",
"425 889 LINE"
);
},
{
closed = 1;
nodes = (
"102 436 OFFCURVE",
"122 513 OFFCURVE",
"166 573 CURVE SMOOTH",
"209 632 OFFCURVE",
"276 671 OFFCURVE",
"371 671 CURVE SMOOTH",
"466 671 OFFCURVE",
"532 632 OFFCURVE",
"576 573 CURVE SMOOTH",
"619 513 OFFCURVE",
"639 436 OFFCURVE",
"639 357 CURVE SMOOTH",
"639 280 OFFCURVE",
"619 201 OFFCURVE",
"576 142 CURVE SMOOTH",
"532 82 OFFCURVE",
"466 43 OFFCURVE",
"371 43 CURVE SMOOTH",
"276 43 OFFCURVE",
"209 82 OFFCURVE",
"166 142 CURVE SMOOTH",
"122 201 OFFCURVE",
"102 280 OFFCURVE",
"102 357 CURVE SMOOTH"
);
},
{
closed = 1;
nodes = (
"34 258 OFFCURVE",
"62 166 OFFCURVE",
"118 98 CURVE SMOOTH",
"174 30 OFFCURVE",
"259 -14 OFFCURVE",
"371 -14 CURVE SMOOTH",
"483 -14 OFFCURVE",
"567 30 OFFCURVE",
"623 98 CURVE SMOOTH",
"679 166 OFFCURVE",
"707 258 OFFCURVE",
"707 357 CURVE SMOOTH",
"707 456 OFFCURVE",
"679 548 OFFCURVE",
"623 617 CURVE SMOOTH",
"567 685 OFFCURVE",
"483 729 OFFCURVE",
"371 729 CURVE SMOOTH",
"259 729 OFFCURVE",
"174 685 OFFCURVE",
"118 617 CURVE SMOOTH",
"62 548 OFFCURVE",
"34 456 OFFCURVE",
"34 357 CURVE SMOOTH"
);
}
);
width = 741;
}
);
note = Odieresis;
unicode = 00D6;
},
{
glyphname = multiply;
layers = (
{
layerId = "943E8435-6871-41EF-8C83-AAAA92C7EE80";
name = Light;
paths = (
{
closed = 1;
nodes = (
"74 440 LINE",
"262 251 LINE",
"74 62 LINE",
"111 25 LINE",
"300 213 LINE",
"489 25 LINE",
"526 62 LINE",
"337 251 LINE",
"526 440 LINE",
"489 477 LINE",
"300 288 LINE",
"111 477 LINE"
);
}
);
width = 600;
}
);
note = multiply;
unicode = 00D7;
},
{
glyphname = Oslash;
layers = (
{
layerId = "943E8435-6871-41EF-8C83-AAAA92C7EE80";
name = Light;
paths = (
{
closed = 1;
nodes = (
"698 696 LINE",
"672 719 LINE",
"601 641 LINE",
"545 697 OFFCURVE",
"471 729 OFFCURVE",
"371 729 CURVE SMOOTH",
"259 729 OFFCURVE",
"174 685 OFFCURVE",
"118 617 CURVE SMOOTH",
"62 548 OFFCURVE",
"34 456 OFFCURVE",
"34 357 CURVE SMOOTH",
"34 261 OFFCURVE",
"60 170 OFFCURVE",
"116 101 CURVE",
"37 13 LINE",
"64 -11 LINE",
"140 74 LINE",
"196 18 OFFCURVE",
"271 -14 OFFCURVE",
"371 -14 CURVE SMOOTH",
"483 -14 OFFCURVE",
"567 30 OFFCURVE",
"623 98 CURVE SMOOTH",
"679 166 OFFCURVE",
"707 258 OFFCURVE",
"707 357 CURVE SMOOTH",
"707 454 OFFCURVE",
"681 547 OFFCURVE",
"625 615 CURVE"
);
},
{
closed = 1;
nodes = (
"160 150 LINE",
"120 207 OFFCURVE",
"102 281 OFFCURVE",
"102 357 CURVE SMOOTH",
"102 436 OFFCURVE",
"122 513 OFFCURVE",
"166 573 CURVE SMOOTH",
"209 632 OFFCURVE",
"276 671 OFFCURVE",
"371 671 CURVE SMOOTH",
"455 671 OFFCURVE",
"515 640 OFFCURVE",
"558 593 CURVE"
);
},
{
closed = 1;
nodes = (
"580 565 LINE",
"621 508 OFFCURVE",
"639 433 OFFCURVE",
"639 357 CURVE SMOOTH",
"639 280 OFFCURVE",
"619 201 OFFCURVE",
"576 142 CURVE SMOOTH",
"532 82 OFFCURVE",
"466 43 OFFCURVE",
"371 43 CURVE SMOOTH",
"287 43 OFFCURVE",
"227 73 OFFCURVE",
"183 122 CURVE"
);
}
);
width = 741;
}
);
note = Oslash;
unicode = 00D8;
},
{
glyphname = Ugrave;
layers = (
{
layerId = "943E8435-6871-41EF-8C83-AAAA92C7EE80";
name = Light;
paths = (
{
closed = 1;
nodes = (
"219 912 LINE",
"351 771 LINE",
"402 771 LINE",
"297 912 LINE"
);
},
{
closed = 1;
nodes = (
"65 714 LINE",
"65 257 LINE SMOOTH",
"65 184 OFFCURVE",
"85 115 OFFCURVE",
"130 66 CURVE SMOOTH",
"174 17 OFFCURVE",
"243 -14 OFFCURVE",
"342 -14 CURVE SMOOTH",
"442 -14 OFFCURVE",
"511 17 OFFCURVE",
"556 66 CURVE SMOOTH",
"600 115 OFFCURVE",
"620 184 OFFCURVE",
"620 257 CURVE SMOOTH",
"620 714 LINE",
"552 714 LINE",
"552 272 LINE SMOOTH",
"552 189 OFFCURVE",
"533 132 OFFCURVE",
"497 96 CURVE SMOOTH",
"461 59 OFFCURVE",
"409 43 OFFCURVE",
"342 43 CURVE SMOOTH",
"277 43 OFFCURVE",
"224 59 OFFCURVE",
"188 96 CURVE SMOOTH",
"152 132 OFFCURVE",
"133 189 OFFCURVE",
"133 272 CURVE SMOOTH",
"133 714 LINE"
);
}
);
width = 685;
}
);
note = Ugrave;
unicode = 00D9;
},
{
glyphname = Uacute;
layers = (
{
layerId = "943E8435-6871-41EF-8C83-AAAA92C7EE80";
name = Light;
paths = (
{
closed = 1;
nodes = (
"334 771 LINE",
"466 912 LINE",
"388 912 LINE",
"283 771 LINE"
);
},
{
closed = 1;
nodes = (
"65 714 LINE",
"65 257 LINE SMOOTH",
"65 184 OFFCURVE",
"85 115 OFFCURVE",
"130 66 CURVE SMOOTH",
"174 17 OFFCURVE",
"243 -14 OFFCURVE",
"342 -14 CURVE SMOOTH",
"442 -14 OFFCURVE",
"511 17 OFFCURVE",
"556 66 CURVE SMOOTH",
"600 115 OFFCURVE",
"620 184 OFFCURVE",
"620 257 CURVE SMOOTH",
"620 714 LINE",
"552 714 LINE",
"552 272 LINE SMOOTH",
"552 189 OFFCURVE",
"533 132 OFFCURVE",
"497 96 CURVE SMOOTH",
"461 59 OFFCURVE",
"409 43 OFFCURVE",
"342 43 CURVE SMOOTH",
"277 43 OFFCURVE",
"224 59 OFFCURVE",
"188 96 CURVE SMOOTH",
"152 132 OFFCURVE",
"133 189 OFFCURVE",
"133 272 CURVE SMOOTH",
"133 714 LINE"
);
}
);
width = 685;
}
);
note = Uacute;
unicode = 00DA;
},
{
glyphname = Ucircumflex;
layers = (
{
layerId = "943E8435-6871-41EF-8C83-AAAA92C7EE80";
name = Light;
paths = (
{
closed = 1;
nodes = (
"491 771 LINE",
"377 912 LINE",
"308 912 LINE",
"194 771 LINE",
"252 771 LINE",
"340 873 LINE",
"426 771 LINE"
);
},
{
closed = 1;
nodes = (
"65 714 LINE",
"65 257 LINE SMOOTH",
"65 184 OFFCURVE",
"85 115 OFFCURVE",
"130 66 CURVE SMOOTH",
"174 17 OFFCURVE",
"243 -14 OFFCURVE",
"342 -14 CURVE SMOOTH",
"442 -14 OFFCURVE",
"511 17 OFFCURVE",
"556 66 CURVE SMOOTH",
"600 115 OFFCURVE",
"620 184 OFFCURVE",
"620 257 CURVE SMOOTH",
"620 714 LINE",
"552 714 LINE",
"552 272 LINE SMOOTH",
"552 189 OFFCURVE",
"533 132 OFFCURVE",
"497 96 CURVE SMOOTH",
"461 59 OFFCURVE",
"409 43 OFFCURVE",
"342 43 CURVE SMOOTH",
"277 43 OFFCURVE",
"224 59 OFFCURVE",
"188 96 CURVE SMOOTH",
"152 132 OFFCURVE",
"133 189 OFFCURVE",
"133 272 CURVE SMOOTH",
"133 714 LINE"
);
}
);
width = 685;
}
);
note = Ucircumflex;
unicode = 00DB;
},
{
glyphname = Udieresis;
layers = (
{
layerId = "943E8435-6871-41EF-8C83-AAAA92C7EE80";
name = Light;
paths = (
{
closed = 1;
nodes = (
"220 788 LINE",
"288 788 LINE",
"288 889 LINE",
"220 889 LINE"
);
},
{
closed = 1;
nodes = (
"397 788 LINE",
"465 788 LINE",
"465 889 LINE",
"397 889 LINE"
);
},
{
closed = 1;
nodes = (
"65 714 LINE",
"65 257 LINE SMOOTH",
"65 184 OFFCURVE",
"85 115 OFFCURVE",
"130 66 CURVE SMOOTH",
"174 17 OFFCURVE",
"243 -14 OFFCURVE",
"342 -14 CURVE SMOOTH",
"442 -14 OFFCURVE",
"511 17 OFFCURVE",
"556 66 CURVE SMOOTH",
"600 115 OFFCURVE",
"620 184 OFFCURVE",
"620 257 CURVE SMOOTH",
"620 714 LINE",
"552 714 LINE",
"552 272 LINE SMOOTH",
"552 189 OFFCURVE",
"533 132 OFFCURVE",
"497 96 CURVE SMOOTH",
"461 59 OFFCURVE",
"409 43 OFFCURVE",
"342 43 CURVE SMOOTH",
"277 43 OFFCURVE",
"224 59 OFFCURVE",
"188 96 CURVE SMOOTH",
"152 132 OFFCURVE",
"133 189 OFFCURVE",
"133 272 CURVE SMOOTH",
"133 714 LINE"
);
}
);
width = 685;
}
);
note = Udieresis;
unicode = 00DC;
},
{
glyphname = Yacute;
layers = (
{
layerId = "943E8435-6871-41EF-8C83-AAAA92C7EE80";
name = Light;
paths = (
{
closed = 1;
nodes = (
"297 771 LINE",
"429 912 LINE",
"351 912 LINE",
"246 771 LINE"
);
},
{
closed = 1;
nodes = (
"271 294 LINE",
"271 0 LINE",
"339 0 LINE",
"339 294 LINE",
"621 714 LINE",
"540 714 LINE",
"306 352 LINE",
"71 714 LINE",
"-9 714 LINE"
);
}
);
width = 611;
}
);
note = Yacute;
unicode = 00DD;
},
{
glyphname = Thorn;
layers = (
{
layerId = "943E8435-6871-41EF-8C83-AAAA92C7EE80";
name = Light;
paths = (
{
closed = 1;
nodes = (
"140 247 LINE",
"140 539 LINE",
"374 539 LINE SMOOTH",
"469 539 OFFCURVE",
"533 492 OFFCURVE",
"533 393 CURVE SMOOTH",
"533 294 OFFCURVE",
"469 247 OFFCURVE",
"374 247 CURVE SMOOTH"
);
},
{
closed = 1;
nodes = (
"72 714 LINE",
"72 0 LINE",
"140 0 LINE",
"140 189 LINE",
"389 189 LINE SMOOTH",
"453 189 OFFCURVE",
"506 207 OFFCURVE",
"543 243 CURVE SMOOTH",
"580 278 OFFCURVE",
"601 329 OFFCURVE",
"601 393 CURVE SMOOTH",
"601 457 OFFCURVE",
"580 508 OFFCURVE",
"543 544 CURVE SMOOTH",
"506 579 OFFCURVE",
"453 597 OFFCURVE",
"389 597 CURVE SMOOTH",
"140 597 LINE",
"140 714 LINE"
);
}
);
width = 630;
}
);
note = Thorn;
unicode = 00DE;
},
{
glyphname = germandbls;
layers = (
{
layerId = "943E8435-6871-41EF-8C83-AAAA92C7EE80";
name = Light;
paths = (
{
closed = 1;
nodes = (
"61 0 LINE",
"124 0 LINE",
"124 530 LINE SMOOTH",
"124 626 OFFCURVE",
"161 676 OFFCURVE",
"261 676 CURVE SMOOTH",
"297 676 OFFCURVE",
"330 664 OFFCURVE",
"354 642 CURVE SMOOTH",
"378 620 OFFCURVE",
"393 588 OFFCURVE",
"393 551 CURVE SMOOTH",
"393 499 OFFCURVE",
"372 467 OFFCURVE",
"340 448 CURVE SMOOTH",
"307 428 OFFCURVE",
"264 421 OFFCURVE",
"220 421 CURVE",
"220 368 LINE",
"281 368 OFFCURVE",
"334 362 OFFCURVE",
"371 339 CURVE SMOOTH",
"407 315 OFFCURVE",
"429 274 OFFCURVE",
"429 205 CURVE SMOOTH",
"429 148 OFFCURVE",
"409 108 OFFCURVE",
"379 82 CURVE SMOOTH",
"349 56 OFFCURVE",
"308 45 OFFCURVE",
"267 45 CURVE SMOOTH",
"251 45 OFFCURVE",
"236 46 OFFCURVE",
"220 49 CURVE",
"220 -5 LINE",
"229 -6 OFFCURVE",
"237 -7 OFFCURVE",
"245 -7 CURVE SMOOTH",
"270 -7 LINE SMOOTH",
"334 -6 OFFCURVE",
"389 13 OFFCURVE",
"429 50 CURVE SMOOTH",
"468 87 OFFCURVE",
"492 143 OFFCURVE",
"492 216 CURVE SMOOTH",
"492 261 OFFCURVE",
"479 306 OFFCURVE",
"454 340 CURVE SMOOTH",
"429 374 OFFCURVE",
"391 397 OFFCURVE",
"343 401 CURVE",
"343 403 LINE",
"415 419 OFFCURVE",
"456 481 OFFCURVE",
"456 553 CURVE SMOOTH",
"456 610 OFFCURVE",
"434 654 OFFCURVE",
"398 684 CURVE SMOOTH",
"362 714 OFFCURVE",
"313 729 OFFCURVE",
"260 729 CURVE SMOOTH",
"200 729 OFFCURVE",
"151 713 OFFCURVE",
"116 681 CURVE SMOOTH",
"81 649 OFFCURVE",
"61 600 OFFCURVE",
"61 535 CURVE SMOOTH"
);
}
);
width = 537;
}
);
note = germandbls;
unicode = 00DF;
},
{
glyphname = agrave;
lastChange = "2016-01-24 04:47:08 +0000";
layers = (
{
layerId = "943E8435-6871-41EF-8C83-AAAA92C7EE80";
name = Light;
paths = (
{
closed = 1;
nodes = (
"136 729 LINE",
"268 588 LINE",
"319 588 LINE",
"214 729 LINE"
);
},
{
closed = 1;
nodes = (
"117 364 LINE",
"120 448 OFFCURVE",
"175 478 OFFCURVE",
"255 478 CURVE SMOOTH",
"292 478 OFFCURVE",
"326 473 OFFCURVE",
"351 457 CURVE SMOOTH",
"375 441 OFFCURVE",
"390 415 OFFCURVE",
"390 372 CURVE SMOOTH",
"390 344 OFFCURVE",
"382 328 OFFCURVE",
"369 318 CURVE SMOOTH",
"356 308 OFFCURVE",
"336 305 OFFCURVE",
"309 302 CURVE SMOOTH",
"241 294 OFFCURVE",
"177 288 OFFCURVE",
"125 267 CURVE SMOOTH",
"72 246 OFFCURVE",
"37 212 OFFCURVE",
"37 140 CURVE SMOOTH",
"37 88 OFFCURVE",
"56 50 OFFCURVE",
"88 26 CURVE",
"119 1 OFFCURVE",
"157 -8 OFFCURVE",
"205 -8 CURVE SMOOTH",
"256 -8 OFFCURVE",
"291 0 OFFCURVE",
"320 17 CURVE SMOOTH",
"348 34 OFFCURVE",
"367 45 OFFCURVE",
"393 75 CURVE",
"395 75 LINE",
"395 10 LINE",
"453 10 LINE",
"453 365 LINE SMOOTH",
"453 434 OFFCURVE",
"428 476 OFFCURVE",
"392 500 CURVE SMOOTH",
"356 524 OFFCURVE",
"308 531 OFFCURVE",
"263 531 CURVE SMOOTH",
"203 531 OFFCURVE",
"153 518 OFFCURVE",
"117 490 CURVE SMOOTH",
"80 462 OFFCURVE",
"58 424 OFFCURVE",
"54 364 CURVE"
);
},
{
closed = 1;
nodes = (
"390 269 LINE",
"390 200 LINE SMOOTH",
"390 149 OFFCURVE",
"368 114 OFFCURVE",
"336 86 CURVE SMOOTH",
"303 58 OFFCURVE",
"262 43 OFFCURVE",
"214 43 CURVE SMOOTH",
"185 43 OFFCURVE",
"151 52 OFFCURVE",
"130 70 CURVE SMOOTH",
"109 88 OFFCURVE",
"95 112 OFFCURVE",
"95 144 CURVE SMOOTH",
"95 195 OFFCURVE",
"128 215 OFFCURVE",
"175 230 CURVE SMOOTH",
"198 237 OFFCURVE",
"224 243 OFFCURVE",
"253 247 CURVE SMOOTH",
"281 250 OFFCURVE",
"308 254 OFFCURVE",
"335 259 CURVE SMOOTH",
"352 262 OFFCURVE",
"371 265 OFFCURVE",
"389 273 CURVE"
);
}
);
width = 519;
}
);
note = agrave;
unicode = 00E0;
},
{
glyphname = aacute;
lastChange = "2016-01-24 04:47:15 +0000";
layers = (
{
layerId = "943E8435-6871-41EF-8C83-AAAA92C7EE80";
name = Light;
paths = (
{
closed = 1;
nodes = (
"251 588 LINE",
"383 729 LINE",
"305 729 LINE",
"200 588 LINE"
);
},
{
closed = 1;
nodes = (
"117 364 LINE",
"120 448 OFFCURVE",
"175 478 OFFCURVE",
"255 478 CURVE SMOOTH",
"292 478 OFFCURVE",
"326 473 OFFCURVE",
"351 457 CURVE SMOOTH",
"375 441 OFFCURVE",
"390 415 OFFCURVE",
"390 372 CURVE SMOOTH",
"390 344 OFFCURVE",
"382 328 OFFCURVE",
"369 318 CURVE SMOOTH",
"356 308 OFFCURVE",
"336 305 OFFCURVE",
"309 302 CURVE SMOOTH",
"241 294 OFFCURVE",
"177 288 OFFCURVE",
"125 267 CURVE SMOOTH",
"72 246 OFFCURVE",
"37 212 OFFCURVE",
"37 140 CURVE SMOOTH",
"37 88 OFFCURVE",
"56 50 OFFCURVE",
"88 26 CURVE",
"119 1 OFFCURVE",
"157 -8 OFFCURVE",
"205 -8 CURVE SMOOTH",
"256 -8 OFFCURVE",
"291 0 OFFCURVE",
"320 17 CURVE SMOOTH",
"348 34 OFFCURVE",
"367 45 OFFCURVE",
"393 75 CURVE",
"395 75 LINE",
"395 10 LINE",
"453 10 LINE",
"453 365 LINE SMOOTH",
"453 434 OFFCURVE",
"428 476 OFFCURVE",
"392 500 CURVE SMOOTH",
"356 524 OFFCURVE",
"308 531 OFFCURVE",
"263 531 CURVE SMOOTH",
"203 531 OFFCURVE",
"153 518 OFFCURVE",
"117 490 CURVE SMOOTH",
"80 462 OFFCURVE",
"58 424 OFFCURVE",
"54 364 CURVE"
);
},
{
closed = 1;
nodes = (
"390 269 LINE",
"390 200 LINE SMOOTH",
"390 149 OFFCURVE",
"368 114 OFFCURVE",
"336 86 CURVE SMOOTH",
"303 58 OFFCURVE",
"262 43 OFFCURVE",
"214 43 CURVE SMOOTH",
"185 43 OFFCURVE",
"151 52 OFFCURVE",
"130 70 CURVE SMOOTH",
"109 88 OFFCURVE",
"95 112 OFFCURVE",
"95 144 CURVE SMOOTH",
"95 195 OFFCURVE",
"128 215 OFFCURVE",
"175 230 CURVE SMOOTH",
"198 237 OFFCURVE",
"224 243 OFFCURVE",
"253 247 CURVE SMOOTH",
"281 250 OFFCURVE",
"308 254 OFFCURVE",
"335 259 CURVE SMOOTH",
"352 262 OFFCURVE",
"371 265 OFFCURVE",
"389 273 CURVE"
);
}
);
width = 519;
}
);
note = aacute;
unicode = 00E1;
},
{
glyphname = acircumflex;
lastChange = "2016-01-24 04:47:27 +0000";
layers = (
{
layerId = "943E8435-6871-41EF-8C83-AAAA92C7EE80";
name = Light;
paths = (
{
closed = 1;
nodes = (
"408 588 LINE",
"294 729 LINE",
"225 729 LINE",
"111 588 LINE",
"169 588 LINE",
"257 690 LINE",
"343 588 LINE"
);
},
{
closed = 1;
nodes = (
"117 364 LINE",
"120 448 OFFCURVE",
"175 478 OFFCURVE",
"255 478 CURVE SMOOTH",
"292 478 OFFCURVE",
"326 473 OFFCURVE",
"351 457 CURVE SMOOTH",
"375 441 OFFCURVE",
"390 415 OFFCURVE",
"390 372 CURVE SMOOTH",
"390 344 OFFCURVE",
"382 328 OFFCURVE",
"369 318 CURVE SMOOTH",
"356 308 OFFCURVE",
"336 305 OFFCURVE",
"309 302 CURVE SMOOTH",
"241 294 OFFCURVE",
"177 288 OFFCURVE",
"125 267 CURVE SMOOTH",
"72 246 OFFCURVE",
"37 212 OFFCURVE",
"37 140 CURVE SMOOTH",
"37 88 OFFCURVE",
"56 50 OFFCURVE",
"88 26 CURVE",
"119 1 OFFCURVE",
"157 -8 OFFCURVE",
"205 -8 CURVE SMOOTH",
"256 -8 OFFCURVE",
"291 0 OFFCURVE",
"320 17 CURVE SMOOTH",
"348 34 OFFCURVE",
"367 45 OFFCURVE",
"393 75 CURVE",
"395 75 LINE",
"395 10 LINE",
"453 10 LINE",
"453 365 LINE SMOOTH",
"453 434 OFFCURVE",
"428 476 OFFCURVE",
"392 500 CURVE SMOOTH",
"356 524 OFFCURVE",
"308 531 OFFCURVE",
"263 531 CURVE SMOOTH",
"203 531 OFFCURVE",
"153 518 OFFCURVE",
"117 490 CURVE SMOOTH",
"80 462 OFFCURVE",
"58 424 OFFCURVE",
"54 364 CURVE"
);
},
{
closed = 1;
nodes = (
"390 269 LINE",
"390 200 LINE SMOOTH",
"390 149 OFFCURVE",
"368 114 OFFCURVE",
"336 86 CURVE SMOOTH",
"303 58 OFFCURVE",
"262 43 OFFCURVE",
"214 43 CURVE SMOOTH",
"185 43 OFFCURVE",
"151 52 OFFCURVE",
"130 70 CURVE SMOOTH",
"109 88 OFFCURVE",
"95 112 OFFCURVE",
"95 144 CURVE SMOOTH",
"95 195 OFFCURVE",
"128 215 OFFCURVE",
"175 230 CURVE SMOOTH",
"198 237 OFFCURVE",
"224 243 OFFCURVE",
"253 247 CURVE SMOOTH",
"281 250 OFFCURVE",
"308 254 OFFCURVE",
"335 259 CURVE SMOOTH",
"352 262 OFFCURVE",
"371 265 OFFCURVE",
"389 273 CURVE"
);
}
);
width = 519;
}
);
note = acircumflex;
unicode = 00E2;
},
{
glyphname = atilde;
lastChange = "2016-01-24 04:47:33 +0000";
layers = (
{
layerId = "943E8435-6871-41EF-8C83-AAAA92C7EE80";
name = Light;
paths = (
{
closed = 1;
nodes = (
"378 708 LINE",
"370 681 OFFCURVE",
"357 660 OFFCURVE",
"326 660 CURVE SMOOTH",
"307 660 OFFCURVE",
"289 671 OFFCURVE",
"267 682 CURVE SMOOTH",
"245 693 OFFCURVE",
"219 704 OFFCURVE",
"191 704 CURVE SMOOTH",
"166 704 OFFCURVE",
"144 692 OFFCURVE",
"129 674 CURVE SMOOTH",
"114 656 OFFCURVE",
"105 632 OFFCURVE",
"102 608 CURVE",
"141 608 LINE",
"141 641 OFFCURVE",
"163 659 OFFCURVE",
"194 659 CURVE SMOOTH",
"211 659 OFFCURVE",
"231 648 OFFCURVE",
"254 636 CURVE SMOOTH",
"277 624 OFFCURVE",
"302 613 OFFCURVE",
"329 613 CURVE SMOOTH",
"356 613 OFFCURVE",
"376 626 OFFCURVE",
"390 644 CURVE SMOOTH",
"404 662 OFFCURVE",
"412 685 OFFCURVE",
"416 708 CURVE"
);
},
{
closed = 1;
nodes = (
"117 364 LINE",
"120 448 OFFCURVE",
"175 478 OFFCURVE",
"255 478 CURVE SMOOTH",
"292 478 OFFCURVE",
"326 473 OFFCURVE",
"351 457 CURVE SMOOTH",
"375 441 OFFCURVE",
"390 415 OFFCURVE",
"390 372 CURVE SMOOTH",
"390 344 OFFCURVE",
"382 328 OFFCURVE",
"369 318 CURVE SMOOTH",
"356 308 OFFCURVE",
"336 305 OFFCURVE",
"309 302 CURVE SMOOTH",
"241 294 OFFCURVE",
"177 288 OFFCURVE",
"125 267 CURVE SMOOTH",
"72 246 OFFCURVE",
"37 212 OFFCURVE",
"37 140 CURVE SMOOTH",
"37 88 OFFCURVE",
"56 50 OFFCURVE",
"88 26 CURVE",
"119 1 OFFCURVE",
"157 -8 OFFCURVE",
"205 -8 CURVE SMOOTH",
"256 -8 OFFCURVE",
"291 0 OFFCURVE",
"320 17 CURVE SMOOTH",
"348 34 OFFCURVE",
"367 45 OFFCURVE",
"393 75 CURVE",
"395 75 LINE",
"395 10 LINE",
"453 10 LINE",
"453 365 LINE SMOOTH",
"453 434 OFFCURVE",
"428 476 OFFCURVE",
"392 500 CURVE SMOOTH",
"356 524 OFFCURVE",
"308 531 OFFCURVE",
"263 531 CURVE SMOOTH",
"203 531 OFFCURVE",
"153 518 OFFCURVE",
"117 490 CURVE SMOOTH",
"80 462 OFFCURVE",
"58 424 OFFCURVE",
"54 364 CURVE"
);
},
{
closed = 1;
nodes = (
"390 269 LINE",
"390 200 LINE SMOOTH",
"390 149 OFFCURVE",
"368 114 OFFCURVE",
"336 86 CURVE SMOOTH",
"303 58 OFFCURVE",
"262 43 OFFCURVE",
"214 43 CURVE SMOOTH",
"185 43 OFFCURVE",
"151 52 OFFCURVE",
"130 70 CURVE SMOOTH",
"109 88 OFFCURVE",
"95 112 OFFCURVE",
"95 144 CURVE SMOOTH",
"95 195 OFFCURVE",
"128 215 OFFCURVE",
"175 230 CURVE SMOOTH",
"198 237 OFFCURVE",
"224 243 OFFCURVE",
"253 247 CURVE SMOOTH",
"281 250 OFFCURVE",
"308 254 OFFCURVE",
"335 259 CURVE SMOOTH",
"352 262 OFFCURVE",
"371 265 OFFCURVE",
"389 273 CURVE"
);
}
);
width = 519;
}
);
note = atilde;
unicode = 00E3;
},
{
glyphname = adieresis;
lastChange = "2016-01-24 04:47:40 +0000";
layers = (
{
layerId = "943E8435-6871-41EF-8C83-AAAA92C7EE80";
name = Light;
paths = (
{
closed = 1;
nodes = (
"137 605 LINE",
"205 605 LINE",
"205 706 LINE",
"137 706 LINE"
);
},
{
closed = 1;
nodes = (
"314 605 LINE",
"382 605 LINE",
"382 706 LINE",
"314 706 LINE"
);
},
{
closed = 1;
nodes = (
"117 364 LINE",
"120 448 OFFCURVE",
"175 478 OFFCURVE",
"255 478 CURVE SMOOTH",
"292 478 OFFCURVE",
"326 473 OFFCURVE",
"351 457 CURVE SMOOTH",
"375 441 OFFCURVE",
"390 415 OFFCURVE",
"390 372 CURVE SMOOTH",
"390 344 OFFCURVE",
"382 328 OFFCURVE",
"369 318 CURVE SMOOTH",
"356 308 OFFCURVE",
"336 305 OFFCURVE",
"309 302 CURVE SMOOTH",
"241 294 OFFCURVE",
"177 288 OFFCURVE",
"125 267 CURVE SMOOTH",
"72 246 OFFCURVE",
"37 212 OFFCURVE",
"37 140 CURVE SMOOTH",
"37 88 OFFCURVE",
"56 50 OFFCURVE",
"88 26 CURVE",
"119 1 OFFCURVE",
"157 -8 OFFCURVE",
"205 -8 CURVE SMOOTH",
"256 -8 OFFCURVE",
"291 0 OFFCURVE",
"320 17 CURVE SMOOTH",
"348 34 OFFCURVE",
"367 45 OFFCURVE",
"393 75 CURVE",
"395 75 LINE",
"395 10 LINE",
"453 10 LINE",
"453 365 LINE SMOOTH",
"453 434 OFFCURVE",
"428 476 OFFCURVE",
"392 500 CURVE SMOOTH",
"356 524 OFFCURVE",
"308 531 OFFCURVE",
"263 531 CURVE SMOOTH",
"203 531 OFFCURVE",
"153 518 OFFCURVE",
"117 490 CURVE SMOOTH",
"80 462 OFFCURVE",
"58 424 OFFCURVE",
"54 364 CURVE"
);
},
{
closed = 1;
nodes = (
"390 269 LINE",
"390 200 LINE SMOOTH",
"390 149 OFFCURVE",
"368 114 OFFCURVE",
"336 86 CURVE SMOOTH",
"303 58 OFFCURVE",
"262 43 OFFCURVE",
"214 43 CURVE SMOOTH",
"185 43 OFFCURVE",
"151 52 OFFCURVE",
"130 70 CURVE SMOOTH",
"109 88 OFFCURVE",
"95 112 OFFCURVE",
"95 144 CURVE SMOOTH",
"95 195 OFFCURVE",
"128 215 OFFCURVE",
"175 230 CURVE SMOOTH",
"198 237 OFFCURVE",
"224 243 OFFCURVE",
"253 247 CURVE SMOOTH",
"281 250 OFFCURVE",
"308 254 OFFCURVE",
"335 259 CURVE SMOOTH",
"352 262 OFFCURVE",
"371 265 OFFCURVE",
"389 273 CURVE"
);
}
);
width = 519;
}
);
note = adieresis;
unicode = 00E4;
},
{
glyphname = aring;
lastChange = "2016-01-24 04:47:46 +0000";
layers = (
{
layerId = "943E8435-6871-41EF-8C83-AAAA92C7EE80";
name = Light;
paths = (
{
closed = 1;
nodes = (
"192 716 OFFCURVE",
"221 745 OFFCURVE",
"260 745 CURVE SMOOTH",
"299 745 OFFCURVE",
"328 716 OFFCURVE",
"328 677 CURVE SMOOTH",
"328 638 OFFCURVE",
"299 609 OFFCURVE",
"260 609 CURVE SMOOTH",
"221 609 OFFCURVE",
"192 638 OFFCURVE",
"192 677 CURVE SMOOTH"
);
},
{
closed = 1;
nodes = (
"153 648 OFFCURVE",
"165 621 OFFCURVE",
"185 602 CURVE",
"204 582 OFFCURVE",
"231 570 OFFCURVE",
"260 570 CURVE SMOOTH",
"289 570 OFFCURVE",
"316 582 OFFCURVE",
"336 602 CURVE SMOOTH",
"355 621 OFFCURVE",
"367 648 OFFCURVE",
"367 677 CURVE SMOOTH",
"367 706 OFFCURVE",
"355 733 OFFCURVE",
"336 753 CURVE",
"316 772 OFFCURVE",
"289 784 OFFCURVE",
"260 784 CURVE SMOOTH",
"231 784 OFFCURVE",
"204 772 OFFCURVE",
"185 753 CURVE SMOOTH",
"165 733 OFFCURVE",
"153 706 OFFCURVE",
"153 677 CURVE SMOOTH"
);
},
{
closed = 1;
nodes = (
"117 364 LINE",
"120 448 OFFCURVE",
"175 478 OFFCURVE",
"255 478 CURVE SMOOTH",
"292 478 OFFCURVE",
"326 473 OFFCURVE",
"351 457 CURVE SMOOTH",
"375 441 OFFCURVE",
"390 415 OFFCURVE",
"390 372 CURVE SMOOTH",
"390 344 OFFCURVE",
"382 328 OFFCURVE",
"369 318 CURVE SMOOTH",
"356 308 OFFCURVE",
"336 305 OFFCURVE",
"309 302 CURVE SMOOTH",
"241 294 OFFCURVE",
"177 288 OFFCURVE",
"125 267 CURVE SMOOTH",
"72 246 OFFCURVE",
"37 212 OFFCURVE",
"37 140 CURVE SMOOTH",
"37 88 OFFCURVE",
"56 50 OFFCURVE",
"88 26 CURVE",
"119 1 OFFCURVE",
"157 -8 OFFCURVE",
"205 -8 CURVE SMOOTH",
"256 -8 OFFCURVE",
"291 0 OFFCURVE",
"320 17 CURVE SMOOTH",
"348 34 OFFCURVE",
"367 45 OFFCURVE",
"393 75 CURVE",
"395 75 LINE",
"395 10 LINE",
"453 10 LINE",
"453 365 LINE SMOOTH",
"453 434 OFFCURVE",
"428 476 OFFCURVE",
"392 500 CURVE SMOOTH",
"356 524 OFFCURVE",
"308 531 OFFCURVE",
"263 531 CURVE SMOOTH",
"203 531 OFFCURVE",
"153 518 OFFCURVE",
"117 490 CURVE SMOOTH",
"80 462 OFFCURVE",
"58 424 OFFCURVE",
"54 364 CURVE"
);
},
{
closed = 1;
nodes = (
"390 269 LINE",
"390 200 LINE SMOOTH",
"390 149 OFFCURVE",
"368 114 OFFCURVE",
"336 86 CURVE SMOOTH",
"303 58 OFFCURVE",
"262 43 OFFCURVE",
"214 43 CURVE SMOOTH",
"185 43 OFFCURVE",
"151 52 OFFCURVE",
"130 70 CURVE SMOOTH",
"109 88 OFFCURVE",
"95 112 OFFCURVE",
"95 144 CURVE SMOOTH",
"95 195 OFFCURVE",
"128 215 OFFCURVE",
"175 230 CURVE SMOOTH",
"198 237 OFFCURVE",
"224 243 OFFCURVE",
"253 247 CURVE SMOOTH",
"281 250 OFFCURVE",
"308 254 OFFCURVE",
"335 259 CURVE SMOOTH",
"352 262 OFFCURVE",
"371 265 OFFCURVE",
"389 273 CURVE"
);
}
);
width = 519;
}
);
note = aring;
unicode = 00E5;
},
{
glyphname = ae;
layers = (
{
layerId = "943E8435-6871-41EF-8C83-AAAA92C7EE80";
name = Light;
paths = (
{
closed = 1;
nodes = (
"841 241 LINE",
"841 316 OFFCURVE",
"828 389 OFFCURVE",
"793 443 CURVE SMOOTH",
"758 497 OFFCURVE",
"703 531 OFFCURVE",
"618 531 CURVE SMOOTH",
"581 531 OFFCURVE",
"542 523 OFFCURVE",
"510 505 CURVE SMOOTH",
"477 487 OFFCURVE",
"450 460 OFFCURVE",
"437 424 CURVE",
"435 424 LINE",
"428 468 OFFCURVE",
"403 495 OFFCURVE",
"371 511 CURVE",
"338 526 OFFCURVE",
"298 531 OFFCURVE",
"263 531 CURVE SMOOTH",
"203 531 OFFCURVE",
"153 518 OFFCURVE",
"117 490 CURVE SMOOTH",
"80 462 OFFCURVE",
"58 418 OFFCURVE",
"54 358 CURVE",
"117 358 LINE",
"120 442 OFFCURVE",
"175 478 OFFCURVE",
"255 478 CURVE SMOOTH",
"292 478 OFFCURVE",
"326 473 OFFCURVE",
"351 457 CURVE SMOOTH",
"375 441 OFFCURVE",
"390 415 OFFCURVE",
"390 372 CURVE SMOOTH",
"390 344 OFFCURVE",
"382 328 OFFCURVE",
"369 318 CURVE SMOOTH",
"356 308 OFFCURVE",
"336 305 OFFCURVE",
"309 302 CURVE SMOOTH",
"241 294 OFFCURVE",
"172 288 OFFCURVE",
"120 267 CURVE SMOOTH",
"67 246 OFFCURVE",
"32 208 OFFCURVE",
"32 136 CURVE SMOOTH",
"32 84 OFFCURVE",
"51 46 OFFCURVE",
"83 22 CURVE",
"114 -3 OFFCURVE",
"157 -14 OFFCURVE",
"205 -14 CURVE SMOOTH",
"250 -14 OFFCURVE",
"301 -3 OFFCURVE",
"342 18 CURVE SMOOTH",
"382 39 OFFCURVE",
"413 71 OFFCURVE",
"421 115 CURVE",
"423 115 LINE",
"454 27 OFFCURVE",
"520 -14 OFFCURVE",
"612 -14 CURVE SMOOTH",
"733 -14 OFFCURVE",
"810 50 OFFCURVE",
"837 167 CURVE",
"774 167 LINE",
"755 86 OFFCURVE",
"706 38 OFFCURVE",
"621 38 CURVE SMOOTH",
"561 38 OFFCURVE",
"517 62 OFFCURVE",
"489 99 CURVE SMOOTH",
"461 135 OFFCURVE",
"449 186 OFFCURVE",
"453 241 CURVE"
);
},
{
closed = 1;
nodes = (
"390 282 LINE",
"390 200 LINE SMOOTH",
"390 149 OFFCURVE",
"369 109 OFFCURVE",
"337 81 CURVE SMOOTH",
"304 53 OFFCURVE",
"258 38 OFFCURVE",
"210 38 CURVE SMOOTH",
"181 38 OFFCURVE",
"151 48 OFFCURVE",
"130 66 CURVE SMOOTH",
"109 84 OFFCURVE",
"95 108 OFFCURVE",
"95 140 CURVE SMOOTH",
"95 191 OFFCURVE",
"128 215 OFFCURVE",
"175 230 CURVE SMOOTH",
"198 237 OFFCURVE",
"224 243 OFFCURVE",
"253 247 CURVE SMOOTH",
"281 250 OFFCURVE",
"308 254 OFFCURVE",
"335 259 CURVE SMOOTH",
"352 262 OFFCURVE",
"380 267 OFFCURVE",
"388 282 CURVE"
);
},
{
closed = 1;
nodes = (
"453 294 LINE",
"452 342 OFFCURVE",
"466 389 OFFCURVE",
"494 423 CURVE SMOOTH",
"522 457 OFFCURVE",
"563 478 OFFCURVE",
"615 478 CURVE SMOOTH",
"666 478 OFFCURVE",
"706 456 OFFCURVE",
"734 422 CURVE SMOOTH",
"762 388 OFFCURVE",
"778 342 OFFCURVE",
"778 294 CURVE"
);
}
);
width = 870;
}
);
note = ae;
unicode = 00E6;
},
{
glyphname = ccedilla;
layers = (
{
layerId = "943E8435-6871-41EF-8C83-AAAA92C7EE80";
name = Light;
paths = (
{
closed = 1;
nodes = (
"428 185 LINE",
"424 142 OFFCURVE",
"406 106 OFFCURVE",
"379 80 CURVE SMOOTH",
"352 54 OFFCURVE",
"317 38 OFFCURVE",
"278 38 CURVE SMOOTH",
"218 38 OFFCURVE",
"173 66 OFFCURVE",
"143 107 CURVE SMOOTH",
"113 148 OFFCURVE",
"97 203 OFFCURVE",
"97 258 CURVE SMOOTH",
"97 313 OFFCURVE",
"113 368 OFFCURVE",
"143 409 CURVE SMOOTH",
"173 450 OFFCURVE",
"218 478 OFFCURVE",
"278 478 CURVE SMOOTH",
"362 478 OFFCURVE",
"407 431 OFFCURVE",
"424 354 CURVE",
"487 354 LINE",
"472 473 OFFCURVE",
"389 531 OFFCURVE",
"278 531 CURVE SMOOTH",
"199 531 OFFCURVE",
"138 499 OFFCURVE",
"97 450 CURVE SMOOTH",
"56 401 OFFCURVE",
"34 333 OFFCURVE",
"34 258 CURVE SMOOTH",
"34 189 OFFCURVE",
"53 125 OFFCURVE",
"89 77 CURVE SMOOTH",
"125 29 OFFCURVE",
"179 -4 OFFCURVE",
"248 -12 CURVE",
"197 -78 LINE",
"213 -93 LINE",
"225 -88 OFFCURVE",
"242 -85 OFFCURVE",
"264 -85 CURVE SMOOTH",
"287 -85 OFFCURVE",
"307 -99 OFFCURVE",
"307 -123 CURVE SMOOTH",
"307 -154 OFFCURVE",
"282 -166 OFFCURVE",
"254 -166 CURVE SMOOTH",
"225 -166 OFFCURVE",
"192 -159 OFFCURVE",
"175 -152 CURVE",
"161 -184 LINE",
"190 -199 OFFCURVE",
"223 -205 OFFCURVE",
"255 -205 CURVE SMOOTH",
"280 -205 OFFCURVE",
"308 -198 OFFCURVE",
"329 -184 CURVE SMOOTH",
"350 -170 OFFCURVE",
"365 -150 OFFCURVE",
"365 -119 CURVE SMOOTH",
"365 -88 OFFCURVE",
"348 -70 OFFCURVE",
"325 -61 CURVE",
"301 -53 OFFCURVE",
"273 -53 OFFCURVE",
"249 -57 CURVE",
"282 -14 LINE",
"395 -11 OFFCURVE",
"474 60 OFFCURVE",
"491 185 CURVE"
);
}
);
width = 519;
}
);
note = ccedilla;
unicode = 00E7;
},
{
glyphname = egrave;
lastChange = "2016-01-24 04:48:05 +0000";
layers = (
{
layerId = "943E8435-6871-41EF-8C83-AAAA92C7EE80";
name = Light;
paths = (
{
closed = 1;
nodes = (
"136 729 LINE",
"268 588 LINE",
"319 588 LINE",
"214 729 LINE"
);
},
{
closed = 1;
nodes = (
"97 304 LINE",
"102 351 OFFCURVE",
"119 388 OFFCURVE",
"147 422 CURVE SMOOTH",
"175 456 OFFCURVE",
"215 478 OFFCURVE",
"267 478 CURVE SMOOTH",
"318 478 OFFCURVE",
"358 456 OFFCURVE",
"386 422 CURVE SMOOTH",
"414 388 OFFCURVE",
"430 352 OFFCURVE",
"431 304 CURVE"
);
},
{
closed = 1;
nodes = (
"494 251 LINE",
"497 323 OFFCURVE",
"481 387 OFFCURVE",
"445 441 CURVE SMOOTH",
"408 495 OFFCURVE",
"350 531 OFFCURVE",
"267 531 CURVE SMOOTH",
"186 531 OFFCURVE",
"126 497 OFFCURVE",
"89 446 CURVE SMOOTH",
"52 394 OFFCURVE",
"34 336 OFFCURVE",
"34 268 CURVE SMOOTH",
"34 195 OFFCURVE",
"52 117 OFFCURVE",
"89 67 CURVE SMOOTH",
"126 17 OFFCURVE",
"186 -14 OFFCURVE",
"267 -14 CURVE SMOOTH",
"398 -14 OFFCURVE",
"465 43 OFFCURVE",
"492 160 CURVE",
"429 160 LINE",
"409 80 OFFCURVE",
"359 38 OFFCURVE",
"267 38 CURVE SMOOTH",
"207 38 OFFCURVE",
"165 66 OFFCURVE",
"137 105 CURVE SMOOTH",
"109 144 OFFCURVE",
"97 206 OFFCURVE",
"97 251 CURVE"
);
}
);
width = 519;
}
);
note = egrave;
unicode = 00E8;
},
{
glyphname = eacute;
lastChange = "2016-01-24 04:48:13 +0000";
layers = (
{
layerId = "943E8435-6871-41EF-8C83-AAAA92C7EE80";
name = Light;
paths = (
{
closed = 1;
nodes = (
"251 588 LINE",
"383 729 LINE",
"305 729 LINE",
"200 588 LINE"
);
},
{
closed = 1;
nodes = (
"97 304 LINE",
"102 351 OFFCURVE",
"119 388 OFFCURVE",
"147 422 CURVE SMOOTH",
"175 456 OFFCURVE",
"215 478 OFFCURVE",
"267 478 CURVE SMOOTH",
"318 478 OFFCURVE",
"358 456 OFFCURVE",
"386 422 CURVE SMOOTH",
"414 388 OFFCURVE",
"430 352 OFFCURVE",
"431 304 CURVE"
);
},
{
closed = 1;
nodes = (
"494 251 LINE",
"497 323 OFFCURVE",
"481 387 OFFCURVE",
"445 441 CURVE SMOOTH",
"408 495 OFFCURVE",
"350 531 OFFCURVE",
"267 531 CURVE SMOOTH",
"186 531 OFFCURVE",
"126 497 OFFCURVE",
"89 446 CURVE SMOOTH",
"52 394 OFFCURVE",
"34 336 OFFCURVE",
"34 268 CURVE SMOOTH",
"34 195 OFFCURVE",
"52 117 OFFCURVE",
"89 67 CURVE SMOOTH",
"126 17 OFFCURVE",
"186 -14 OFFCURVE",
"267 -14 CURVE SMOOTH",
"398 -14 OFFCURVE",
"465 43 OFFCURVE",
"492 160 CURVE",
"429 160 LINE",
"409 80 OFFCURVE",
"359 38 OFFCURVE",
"267 38 CURVE SMOOTH",
"207 38 OFFCURVE",
"165 66 OFFCURVE",
"137 105 CURVE SMOOTH",
"109 144 OFFCURVE",
"97 206 OFFCURVE",
"97 251 CURVE"
);
}
);
width = 519;
}
);
note = eacute;
unicode = 00E9;
},
{
glyphname = ecircumflex;
lastChange = "2016-01-24 04:48:21 +0000";
layers = (
{
layerId = "943E8435-6871-41EF-8C83-AAAA92C7EE80";
name = Light;
paths = (
{
closed = 1;
nodes = (
"408 588 LINE",
"294 729 LINE",
"225 729 LINE",
"111 588 LINE",
"169 588 LINE",
"257 690 LINE",
"343 588 LINE"
);
},
{
closed = 1;
nodes = (
"97 304 LINE",
"102 351 OFFCURVE",
"119 388 OFFCURVE",
"147 422 CURVE SMOOTH",
"175 456 OFFCURVE",
"215 478 OFFCURVE",
"267 478 CURVE SMOOTH",
"318 478 OFFCURVE",
"358 456 OFFCURVE",
"386 422 CURVE SMOOTH",
"414 388 OFFCURVE",
"430 352 OFFCURVE",
"431 304 CURVE"
);
},
{
closed = 1;
nodes = (
"494 251 LINE",
"497 323 OFFCURVE",
"481 387 OFFCURVE",
"445 441 CURVE SMOOTH",
"408 495 OFFCURVE",
"350 531 OFFCURVE",
"267 531 CURVE SMOOTH",
"186 531 OFFCURVE",
"126 497 OFFCURVE",
"89 446 CURVE SMOOTH",
"52 394 OFFCURVE",
"34 336 OFFCURVE",
"34 268 CURVE SMOOTH",
"34 195 OFFCURVE",
"52 117 OFFCURVE",
"89 67 CURVE SMOOTH",
"126 17 OFFCURVE",
"186 -14 OFFCURVE",
"267 -14 CURVE SMOOTH",
"398 -14 OFFCURVE",
"465 43 OFFCURVE",
"492 160 CURVE",
"429 160 LINE",
"409 80 OFFCURVE",
"359 38 OFFCURVE",
"267 38 CURVE SMOOTH",
"207 38 OFFCURVE",
"165 66 OFFCURVE",
"137 105 CURVE SMOOTH",
"109 144 OFFCURVE",
"97 206 OFFCURVE",
"97 251 CURVE"
);
}
);
width = 519;
}
);
note = ecircumflex;
unicode = 00EA;
},
{
glyphname = edieresis;
lastChange = "2016-01-24 04:48:27 +0000";
layers = (
{
layerId = "943E8435-6871-41EF-8C83-AAAA92C7EE80";
name = Light;
paths = (
{
closed = 1;
nodes = (
"137 605 LINE",
"205 605 LINE",
"205 706 LINE",
"137 706 LINE"
);
},
{
closed = 1;
nodes = (
"314 605 LINE",
"382 605 LINE",
"382 706 LINE",
"314 706 LINE"
);
},
{
closed = 1;
nodes = (
"97 304 LINE",
"102 351 OFFCURVE",
"119 388 OFFCURVE",
"147 422 CURVE SMOOTH",
"175 456 OFFCURVE",
"215 478 OFFCURVE",
"267 478 CURVE SMOOTH",
"318 478 OFFCURVE",
"358 456 OFFCURVE",
"386 422 CURVE SMOOTH",
"414 388 OFFCURVE",
"430 352 OFFCURVE",
"431 304 CURVE"
);
},
{
closed = 1;
nodes = (
"494 251 LINE",
"497 323 OFFCURVE",
"481 387 OFFCURVE",
"445 441 CURVE SMOOTH",
"408 495 OFFCURVE",
"350 531 OFFCURVE",
"267 531 CURVE SMOOTH",
"186 531 OFFCURVE",
"126 497 OFFCURVE",
"89 446 CURVE SMOOTH",
"52 394 OFFCURVE",
"34 336 OFFCURVE",
"34 268 CURVE SMOOTH",
"34 195 OFFCURVE",
"52 117 OFFCURVE",
"89 67 CURVE SMOOTH",
"126 17 OFFCURVE",
"186 -14 OFFCURVE",
"267 -14 CURVE SMOOTH",
"398 -14 OFFCURVE",
"465 43 OFFCURVE",
"492 160 CURVE",
"429 160 LINE",
"409 80 OFFCURVE",
"359 38 OFFCURVE",
"267 38 CURVE SMOOTH",
"207 38 OFFCURVE",
"165 66 OFFCURVE",
"137 105 CURVE SMOOTH",
"109 144 OFFCURVE",
"97 206 OFFCURVE",
"97 251 CURVE"
);
}
);
width = 519;
}
);
note = edieresis;
unicode = 00EB;
},
{
glyphname = igrave;
layers = (
{
layerId = "943E8435-6871-41EF-8C83-AAAA92C7EE80";
name = Light;
paths = (
{
closed = 1;
nodes = (
"-30 729 LINE",
"101 588 LINE",
"152 588 LINE",
"47 729 LINE"
);
},
{
closed = 1;
nodes = (
"61 0 LINE",
"124 0 LINE",
"124 516 LINE",
"61 516 LINE"
);
}
);
width = 185;
}
);
note = igrave;
unicode = 00EC;
},
{
glyphname = iacute;
layers = (
{
layerId = "943E8435-6871-41EF-8C83-AAAA92C7EE80";
name = Light;
paths = (
{
closed = 1;
nodes = (
"84 588 LINE",
"216 729 LINE",
"138 729 LINE",
"33 588 LINE"
);
},
{
closed = 1;
nodes = (
"61 0 LINE",
"124 0 LINE",
"124 516 LINE",
"61 516 LINE"
);
}
);
width = 185;
}
);
note = iacute;
unicode = 00ED;
},
{
glyphname = icircumflex;
layers = (
{
layerId = "943E8435-6871-41EF-8C83-AAAA92C7EE80";
name = Light;
paths = (
{
closed = 1;
nodes = (
"241 588 LINE",
"127 729 LINE",
"58 729 LINE",
"-55 588 LINE",
"2 588 LINE",
"90 690 LINE",
"176 588 LINE"
);
},
{
closed = 1;
nodes = (
"61 0 LINE",
"124 0 LINE",
"124 516 LINE",
"61 516 LINE"
);
}
);
width = 185;
}
);
note = icircumflex;
unicode = 00EE;
},
{
glyphname = idieresis;
layers = (
{
layerId = "943E8435-6871-41EF-8C83-AAAA92C7EE80";
name = Light;
paths = (
{
closed = 1;
nodes = (
"-29 605 LINE",
"38 605 LINE",
"38 706 LINE",
"-29 706 LINE"
);
},
{
closed = 1;
nodes = (
"147 605 LINE",
"215 605 LINE",
"215 706 LINE",
"147 706 LINE"
);
},
{
closed = 1;
nodes = (
"61 0 LINE",
"124 0 LINE",
"124 516 LINE",
"61 516 LINE"
);
}
);
width = 185;
}
);
note = idieresis;
unicode = 00EF;
},
{
glyphname = eth;
layers = (
{
layerId = "943E8435-6871-41EF-8C83-AAAA92C7EE80";
name = Light;
paths = (
{
closed = 1;
nodes = (
"135 596 LINE",
"168 564 LINE",
"273 623 LINE",
"329 579 OFFCURVE",
"373 530 OFFCURVE",
"406 466 CURVE",
"404 466 LINE",
"375 497 OFFCURVE",
"320 506 OFFCURVE",
"271 506 CURVE SMOOTH",
"195 506 OFFCURVE",
"136 477 OFFCURVE",
"96 430 CURVE SMOOTH",
"55 382 OFFCURVE",
"34 318 OFFCURVE",
"34 249 CURVE SMOOTH",
"34 174 OFFCURVE",
"53 109 OFFCURVE",
"92 62 CURVE SMOOTH",
"131 14 OFFCURVE",
"191 -14 OFFCURVE",
"271 -14 CURVE SMOOTH",
"355 -14 OFFCURVE",
"416 17 OFFCURVE",
"456 66 CURVE SMOOTH",
"496 114 OFFCURVE",
"516 182 OFFCURVE",
"516 258 CURVE SMOOTH",
"516 345 OFFCURVE",
"495 420 OFFCURVE",
"460 485 CURVE SMOOTH",
"424 549 OFFCURVE",
"376 604 OFFCURVE",
"320 649 CURVE",
"429 710 LINE",
"396 742 LINE",
"282 678 LINE",
"249 703 OFFCURVE",
"213 723 OFFCURVE",
"178 742 CURVE",
"142 707 LINE",
"174 691 OFFCURVE",
"204 672 OFFCURVE",
"235 652 CURVE"
);
},
{
closed = 1;
nodes = (
"340 453 OFFCURVE",
"384 428 OFFCURVE",
"412 389 CURVE SMOOTH",
"440 350 OFFCURVE",
"453 301 OFFCURVE",
"453 250 CURVE SMOOTH",
"453 189 OFFCURVE",
"438 136 OFFCURVE",
"408 98 CURVE SMOOTH",
"378 60 OFFCURVE",
"333 38 OFFCURVE",
"274 38 CURVE SMOOTH",
"211 38 OFFCURVE",
"167 63 OFFCURVE",
"139 102 CURVE SMOOTH",
"110 141 OFFCURVE",
"97 193 OFFCURVE",
"97 248 CURVE SMOOTH",
"97 303 OFFCURVE",
"110 355 OFFCURVE",
"139 392 CURVE SMOOTH",
"167 429 OFFCURVE",
"212 453 OFFCURVE",
"276 453 CURVE SMOOTH"
);
}
);
width = 556;
}
);
note = eth;
unicode = 00F0;
},
{
glyphname = ntilde;
layers = (
{
layerId = "943E8435-6871-41EF-8C83-AAAA92C7EE80";
name = Light;
paths = (
{
closed = 1;
nodes = (
"387 708 LINE",
"379 681 OFFCURVE",
"366 660 OFFCURVE",
"335 660 CURVE SMOOTH",
"316 660 OFFCURVE",
"298 671 OFFCURVE",
"276 682 CURVE SMOOTH",
"254 693 OFFCURVE",
"228 704 OFFCURVE",
"200 704 CURVE SMOOTH",
"175 704 OFFCURVE",
"153 692 OFFCURVE",
"138 674 CURVE SMOOTH",
"123 656 OFFCURVE",
"114 632 OFFCURVE",
"111 608 CURVE",
"150 608 LINE",
"150 641 OFFCURVE",
"172 659 OFFCURVE",
"203 659 CURVE SMOOTH",
"220 659 OFFCURVE",
"240 648 OFFCURVE",
"263 636 CURVE SMOOTH",
"286 624 OFFCURVE",
"311 613 OFFCURVE",
"338 613 CURVE SMOOTH",
"365 613 OFFCURVE",
"385 626 OFFCURVE",
"399 644 CURVE SMOOTH",
"413 662 OFFCURVE",
"421 685 OFFCURVE",
"425 708 CURVE"
);
},
{
closed = 1;
nodes = (
"59 516 LINE",
"59 0 LINE",
"122 0 LINE",
"122 301 LINE SMOOTH",
"123 352 OFFCURVE",
"139 396 OFFCURVE",
"167 428 CURVE SMOOTH",
"194 459 OFFCURVE",
"233 478 OFFCURVE",
"284 478 CURVE SMOOTH",
"335 478 OFFCURVE",
"368 461 OFFCURVE",
"388 433 CURVE SMOOTH",
"408 405 OFFCURVE",
"415 366 OFFCURVE",
"415 322 CURVE SMOOTH",
"415 0 LINE",
"478 0 LINE",
"478 332 LINE SMOOTH",
"478 393 OFFCURVE",
"467 444 OFFCURVE",
"438 478 CURVE SMOOTH",
"409 512 OFFCURVE",
"361 531 OFFCURVE",
"289 531 CURVE SMOOTH",
"216 531 OFFCURVE",
"148 490 OFFCURVE",
"124 427 CURVE",
"122 427 LINE",
"122 516 LINE"
);
}
);
width = 537;
}
);
note = ntilde;
unicode = 00F1;
},
{
glyphname = ograve;
layers = (
{
layerId = "943E8435-6871-41EF-8C83-AAAA92C7EE80";
name = Light;
paths = (
{
closed = 1;
nodes = (
"155 729 LINE",
"287 588 LINE",
"338 588 LINE",
"233 729 LINE"
);
},
{
closed = 1;
nodes = (
"338 478 OFFCURVE",
"384 450 OFFCURVE",
"414 409 CURVE SMOOTH",
"444 368 OFFCURVE",
"459 313 OFFCURVE",
"459 258 CURVE SMOOTH",
"459 203 OFFCURVE",
"444 148 OFFCURVE",
"414 107 CURVE SMOOTH",
"384 66 OFFCURVE",
"338 38 OFFCURVE",
"278 38 CURVE SMOOTH",
"218 38 OFFCURVE",
"173 66 OFFCURVE",
"143 107 CURVE SMOOTH",
"113 148 OFFCURVE",
"97 203 OFFCURVE",
"97 258 CURVE SMOOTH",
"97 313 OFFCURVE",
"113 368 OFFCURVE",
"143 409 CURVE SMOOTH",
"173 450 OFFCURVE",
"218 478 OFFCURVE",
"278 478 CURVE SMOOTH"
);
},
{
closed = 1;
nodes = (
"199 531 OFFCURVE",
"138 499 OFFCURVE",
"97 450 CURVE SMOOTH",
"56 401 OFFCURVE",
"34 333 OFFCURVE",
"34 258 CURVE SMOOTH",
"34 183 OFFCURVE",
"56 115 OFFCURVE",
"97 66 CURVE SMOOTH",
"138 17 OFFCURVE",
"199 -14 OFFCURVE",
"278 -14 CURVE SMOOTH",
"357 -14 OFFCURVE",
"418 17 OFFCURVE",
"459 66 CURVE SMOOTH",
"500 115 OFFCURVE",
"522 183 OFFCURVE",
"522 258 CURVE SMOOTH",
"522 333 OFFCURVE",
"500 401 OFFCURVE",
"459 450 CURVE SMOOTH",
"418 499 OFFCURVE",
"357 531 OFFCURVE",
"278 531 CURVE SMOOTH"
);
}
);
width = 556;
}
);
note = ograve;
unicode = 00F2;
},
{
glyphname = oacute;
layers = (
{
layerId = "943E8435-6871-41EF-8C83-AAAA92C7EE80";
name = Light;
paths = (
{
closed = 1;
nodes = (
"270 588 LINE",
"402 729 LINE",
"324 729 LINE",
"219 588 LINE"
);
},
{
closed = 1;
nodes = (
"338 478 OFFCURVE",
"384 450 OFFCURVE",
"414 409 CURVE SMOOTH",
"444 368 OFFCURVE",
"459 313 OFFCURVE",
"459 258 CURVE SMOOTH",
"459 203 OFFCURVE",
"444 148 OFFCURVE",
"414 107 CURVE SMOOTH",
"384 66 OFFCURVE",
"338 38 OFFCURVE",
"278 38 CURVE SMOOTH",
"218 38 OFFCURVE",
"173 66 OFFCURVE",
"143 107 CURVE SMOOTH",
"113 148 OFFCURVE",
"97 203 OFFCURVE",
"97 258 CURVE SMOOTH",
"97 313 OFFCURVE",
"113 368 OFFCURVE",
"143 409 CURVE SMOOTH",
"173 450 OFFCURVE",
"218 478 OFFCURVE",
"278 478 CURVE SMOOTH"
);
},
{
closed = 1;
nodes = (
"199 531 OFFCURVE",
"138 499 OFFCURVE",
"97 450 CURVE SMOOTH",
"56 401 OFFCURVE",
"34 333 OFFCURVE",
"34 258 CURVE SMOOTH",
"34 183 OFFCURVE",
"56 115 OFFCURVE",
"97 66 CURVE SMOOTH",
"138 17 OFFCURVE",
"199 -14 OFFCURVE",
"278 -14 CURVE SMOOTH",
"357 -14 OFFCURVE",
"418 17 OFFCURVE",
"459 66 CURVE SMOOTH",
"500 115 OFFCURVE",
"522 183 OFFCURVE",
"522 258 CURVE SMOOTH",
"522 333 OFFCURVE",
"500 401 OFFCURVE",
"459 450 CURVE SMOOTH",
"418 499 OFFCURVE",
"357 531 OFFCURVE",
"278 531 CURVE SMOOTH"
);
}
);
width = 556;
}
);
note = oacute;
unicode = 00F3;
},
{
glyphname = ocircumflex;
layers = (
{
layerId = "943E8435-6871-41EF-8C83-AAAA92C7EE80";
name = Light;
paths = (
{
closed = 1;
nodes = (
"427 588 LINE",
"313 729 LINE",
"244 729 LINE",
"130 588 LINE",
"188 588 LINE",
"276 690 LINE",
"362 588 LINE"
);
},
{
closed = 1;
nodes = (
"338 478 OFFCURVE",
"384 450 OFFCURVE",
"414 409 CURVE SMOOTH",
"444 368 OFFCURVE",
"459 313 OFFCURVE",
"459 258 CURVE SMOOTH",
"459 203 OFFCURVE",
"444 148 OFFCURVE",
"414 107 CURVE SMOOTH",
"384 66 OFFCURVE",
"338 38 OFFCURVE",
"278 38 CURVE SMOOTH",
"218 38 OFFCURVE",
"173 66 OFFCURVE",
"143 107 CURVE SMOOTH",
"113 148 OFFCURVE",
"97 203 OFFCURVE",
"97 258 CURVE SMOOTH",
"97 313 OFFCURVE",
"113 368 OFFCURVE",
"143 409 CURVE SMOOTH",
"173 450 OFFCURVE",
"218 478 OFFCURVE",
"278 478 CURVE SMOOTH"
);
},
{
closed = 1;
nodes = (
"199 531 OFFCURVE",
"138 499 OFFCURVE",
"97 450 CURVE SMOOTH",
"56 401 OFFCURVE",
"34 333 OFFCURVE",
"34 258 CURVE SMOOTH",
"34 183 OFFCURVE",
"56 115 OFFCURVE",
"97 66 CURVE SMOOTH",
"138 17 OFFCURVE",
"199 -14 OFFCURVE",
"278 -14 CURVE SMOOTH",
"357 -14 OFFCURVE",
"418 17 OFFCURVE",
"459 66 CURVE SMOOTH",
"500 115 OFFCURVE",
"522 183 OFFCURVE",
"522 258 CURVE SMOOTH",
"522 333 OFFCURVE",
"500 401 OFFCURVE",
"459 450 CURVE SMOOTH",
"418 499 OFFCURVE",
"357 531 OFFCURVE",
"278 531 CURVE SMOOTH"
);
}
);
width = 556;
}
);
note = ocircumflex;
unicode = 00F4;
},
{
glyphname = otilde;
layers = (
{
layerId = "943E8435-6871-41EF-8C83-AAAA92C7EE80";
name = Light;
paths = (
{
closed = 1;
nodes = (
"397 708 LINE",
"389 681 OFFCURVE",
"376 660 OFFCURVE",
"345 660 CURVE SMOOTH",
"326 660 OFFCURVE",
"308 671 OFFCURVE",
"286 682 CURVE SMOOTH",
"264 693 OFFCURVE",
"238 704 OFFCURVE",
"210 704 CURVE SMOOTH",
"185 704 OFFCURVE",
"163 692 OFFCURVE",
"148 674 CURVE SMOOTH",
"133 656 OFFCURVE",
"124 632 OFFCURVE",
"121 608 CURVE",
"160 608 LINE",
"160 641 OFFCURVE",
"182 659 OFFCURVE",
"213 659 CURVE SMOOTH",
"230 659 OFFCURVE",
"250 648 OFFCURVE",
"273 636 CURVE SMOOTH",
"296 624 OFFCURVE",
"321 613 OFFCURVE",
"348 613 CURVE SMOOTH",
"375 613 OFFCURVE",
"395 626 OFFCURVE",
"409 644 CURVE SMOOTH",
"423 662 OFFCURVE",
"431 685 OFFCURVE",
"435 708 CURVE"
);
},
{
closed = 1;
nodes = (
"338 478 OFFCURVE",
"384 450 OFFCURVE",
"414 409 CURVE SMOOTH",
"444 368 OFFCURVE",
"459 313 OFFCURVE",
"459 258 CURVE SMOOTH",
"459 203 OFFCURVE",
"444 148 OFFCURVE",
"414 107 CURVE SMOOTH",
"384 66 OFFCURVE",
"338 38 OFFCURVE",
"278 38 CURVE SMOOTH",
"218 38 OFFCURVE",
"173 66 OFFCURVE",
"143 107 CURVE SMOOTH",
"113 148 OFFCURVE",
"97 203 OFFCURVE",
"97 258 CURVE SMOOTH",
"97 313 OFFCURVE",
"113 368 OFFCURVE",
"143 409 CURVE SMOOTH",
"173 450 OFFCURVE",
"218 478 OFFCURVE",
"278 478 CURVE SMOOTH"
);
},
{
closed = 1;
nodes = (
"199 531 OFFCURVE",
"138 499 OFFCURVE",
"97 450 CURVE SMOOTH",
"56 401 OFFCURVE",
"34 333 OFFCURVE",
"34 258 CURVE SMOOTH",
"34 183 OFFCURVE",
"56 115 OFFCURVE",
"97 66 CURVE SMOOTH",
"138 17 OFFCURVE",
"199 -14 OFFCURVE",
"278 -14 CURVE SMOOTH",
"357 -14 OFFCURVE",
"418 17 OFFCURVE",
"459 66 CURVE SMOOTH",
"500 115 OFFCURVE",
"522 183 OFFCURVE",
"522 258 CURVE SMOOTH",
"522 333 OFFCURVE",
"500 401 OFFCURVE",
"459 450 CURVE SMOOTH",
"418 499 OFFCURVE",
"357 531 OFFCURVE",
"278 531 CURVE SMOOTH"
);
}
);
width = 556;
}
);
note = otilde;
unicode = 00F5;
},
{
glyphname = odieresis;
layers = (
{
layerId = "943E8435-6871-41EF-8C83-AAAA92C7EE80";
name = Light;
paths = (
{
closed = 1;
nodes = (
"156 605 LINE",
"224 605 LINE",
"224 706 LINE",
"156 706 LINE"
);
},
{
closed = 1;
nodes = (
"333 605 LINE",
"401 605 LINE",
"401 706 LINE",
"333 706 LINE"
);
},
{
closed = 1;
nodes = (
"338 478 OFFCURVE",
"384 450 OFFCURVE",
"414 409 CURVE SMOOTH",
"444 368 OFFCURVE",
"459 313 OFFCURVE",
"459 258 CURVE SMOOTH",
"459 203 OFFCURVE",
"444 148 OFFCURVE",
"414 107 CURVE SMOOTH",
"384 66 OFFCURVE",
"338 38 OFFCURVE",
"278 38 CURVE SMOOTH",
"218 38 OFFCURVE",
"173 66 OFFCURVE",
"143 107 CURVE SMOOTH",
"113 148 OFFCURVE",
"97 203 OFFCURVE",
"97 258 CURVE SMOOTH",
"97 313 OFFCURVE",
"113 368 OFFCURVE",
"143 409 CURVE SMOOTH",
"173 450 OFFCURVE",
"218 478 OFFCURVE",
"278 478 CURVE SMOOTH"
);
},
{
closed = 1;
nodes = (
"199 531 OFFCURVE",
"138 499 OFFCURVE",
"97 450 CURVE SMOOTH",
"56 401 OFFCURVE",
"34 333 OFFCURVE",
"34 258 CURVE SMOOTH",
"34 183 OFFCURVE",
"56 115 OFFCURVE",
"97 66 CURVE SMOOTH",
"138 17 OFFCURVE",
"199 -14 OFFCURVE",
"278 -14 CURVE SMOOTH",
"357 -14 OFFCURVE",
"418 17 OFFCURVE",
"459 66 CURVE SMOOTH",
"500 115 OFFCURVE",
"522 183 OFFCURVE",
"522 258 CURVE SMOOTH",
"522 333 OFFCURVE",
"500 401 OFFCURVE",
"459 450 CURVE SMOOTH",
"418 499 OFFCURVE",
"357 531 OFFCURVE",
"278 531 CURVE SMOOTH"
);
}
);
width = 556;
}
);
note = odieresis;
unicode = 00F6;
},
{
glyphname = divide;
layers = (
{
layerId = "943E8435-6871-41EF-8C83-AAAA92C7EE80";
name = Light;
paths = (
{
closed = 1;
nodes = (
"244 19 OFFCURVE",
"270 -5 OFFCURVE",
"301 -5 CURVE SMOOTH",
"330 -5 OFFCURVE",
"356 22 OFFCURVE",
"356 50 CURVE SMOOTH",
"356 81 OFFCURVE",
"331 106 OFFCURVE",
"300 106 CURVE SMOOTH",
"269 106 OFFCURVE",
"244 81 OFFCURVE",
"244 50 CURVE SMOOTH"
);
},
{
closed = 1;
nodes = (
"244 422 OFFCURVE",
"270 397 OFFCURVE",
"301 397 CURVE SMOOTH",
"330 397 OFFCURVE",
"356 425 OFFCURVE",
"356 453 CURVE SMOOTH",
"356 484 OFFCURVE",
"331 509 OFFCURVE",
"300 509 CURVE SMOOTH",
"269 509 OFFCURVE",
"244 484 OFFCURVE",
"244 453 CURVE SMOOTH"
);
},
{
closed = 1;
nodes = (
"49 225 LINE",
"552 225 LINE",
"552 278 LINE",
"49 278 LINE"
);
}
);
width = 600;
}
);
note = divide;
unicode = 00F7;
},
{
glyphname = oslash;
layers = (
{
layerId = "943E8435-6871-41EF-8C83-AAAA92C7EE80";
name = Light;
paths = (
{
closed = 1;
nodes = (
"522 499 LINE",
"500 519 LINE",
"448 463 LINE",
"408 506 OFFCURVE",
"350 531 OFFCURVE",
"278 531 CURVE SMOOTH",
"199 531 OFFCURVE",
"138 499 OFFCURVE",
"97 450 CURVE SMOOTH",
"56 401 OFFCURVE",
"34 333 OFFCURVE",
"34 258 CURVE SMOOTH",
"34 189 OFFCURVE",
"53 124 OFFCURVE",
"90 76 CURVE",
"29 9 LINE",
"51 -10 LINE",
"110 53 LINE",
"150 10 OFFCURVE",
"206 -14 OFFCURVE",
"278 -14 CURVE SMOOTH",
"357 -14 OFFCURVE",
"418 17 OFFCURVE",
"459 66 CURVE SMOOTH",
"500 115 OFFCURVE",
"522 183 OFFCURVE",
"522 258 CURVE SMOOTH",
"522 326 OFFCURVE",
"504 389 OFFCURVE",
"468 440 CURVE"
);
},
{
closed = 1;
nodes = (
"424 392 LINE",
"448 353 OFFCURVE",
"459 306 OFFCURVE",
"459 258 CURVE SMOOTH",
"459 203 OFFCURVE",
"444 148 OFFCURVE",
"414 107 CURVE SMOOTH",
"384 66 OFFCURVE",
"338 38 OFFCURVE",
"278 38 CURVE SMOOTH",
"222 38 OFFCURVE",
"179 62 OFFCURVE",
"151 97 CURVE"
);
},
{
closed = 1;
nodes = (
"133 123 LINE",
"108 163 OFFCURVE",
"97 210 OFFCURVE",
"97 258 CURVE SMOOTH",
"97 313 OFFCURVE",
"113 368 OFFCURVE",
"143 409 CURVE SMOOTH",
"173 450 OFFCURVE",
"218 478 OFFCURVE",
"278 478 CURVE SMOOTH",
"334 478 OFFCURVE",
"377 454 OFFCURVE",
"406 418 CURVE"
);
}
);
width = 556;
}
);
note = oslash;
unicode = 00F8;
},
{
glyphname = ugrave;
layers = (
{
layerId = "943E8435-6871-41EF-8C83-AAAA92C7EE80";
name = Light;
paths = (
{
closed = 1;
nodes = (
"145 729 LINE",
"277 588 LINE",
"328 588 LINE",
"223 729 LINE"
);
},
{
closed = 1;
nodes = (
"478 0 LINE",
"478 516 LINE",
"415 516 LINE",
"415 245 LINE SMOOTH",
"415 193 OFFCURVE",
"403 141 OFFCURVE",
"378 102 CURVE SMOOTH",
"353 63 OFFCURVE",
"315 38 OFFCURVE",
"260 38 CURVE SMOOTH",
"160 38 OFFCURVE",
"125 87 OFFCURVE",
"122 180 CURVE",
"122 516 LINE",
"59 516 LINE",
"59 181 LINE SMOOTH",
"59 120 OFFCURVE",
"72 71 OFFCURVE",
"101 38 CURVE SMOOTH",
"129 5 OFFCURVE",
"175 -14 OFFCURVE",
"240 -14 CURVE SMOOTH",
"317 -14 OFFCURVE",
"385 24 OFFCURVE",
"418 93 CURVE",
"420 93 LINE",
"420 0 LINE"
);
}
);
width = 537;
}
);
note = ugrave;
unicode = 00F9;
},
{
glyphname = uacute;
layers = (
{
layerId = "943E8435-6871-41EF-8C83-AAAA92C7EE80";
name = Light;
paths = (
{
closed = 1;
nodes = (
"260 588 LINE",
"392 729 LINE",
"314 729 LINE",
"209 588 LINE"
);
},
{
closed = 1;
nodes = (
"478 0 LINE",
"478 516 LINE",
"415 516 LINE",
"415 245 LINE SMOOTH",
"415 193 OFFCURVE",
"403 141 OFFCURVE",
"378 102 CURVE SMOOTH",
"353 63 OFFCURVE",
"315 38 OFFCURVE",
"260 38 CURVE SMOOTH",
"160 38 OFFCURVE",
"125 87 OFFCURVE",
"122 180 CURVE",
"122 516 LINE",
"59 516 LINE",
"59 181 LINE SMOOTH",
"59 120 OFFCURVE",
"72 71 OFFCURVE",
"101 38 CURVE SMOOTH",
"129 5 OFFCURVE",
"175 -14 OFFCURVE",
"240 -14 CURVE SMOOTH",
"317 -14 OFFCURVE",
"385 24 OFFCURVE",
"418 93 CURVE",
"420 93 LINE",
"420 0 LINE"
);
}
);
width = 537;
}
);
note = uacute;
unicode = 00FA;
},
{
glyphname = ucircumflex;
layers = (
{
layerId = "943E8435-6871-41EF-8C83-AAAA92C7EE80";
name = Light;
paths = (
{
closed = 1;
nodes = (
"417 588 LINE",
"303 729 LINE",
"234 729 LINE",
"120 588 LINE",
"178 588 LINE",
"266 690 LINE",
"352 588 LINE"
);
},
{
closed = 1;
nodes = (
"478 0 LINE",
"478 516 LINE",
"415 516 LINE",
"415 245 LINE SMOOTH",
"415 193 OFFCURVE",
"403 141 OFFCURVE",
"378 102 CURVE SMOOTH",
"353 63 OFFCURVE",
"315 38 OFFCURVE",
"260 38 CURVE SMOOTH",
"160 38 OFFCURVE",
"125 87 OFFCURVE",
"122 180 CURVE",
"122 516 LINE",
"59 516 LINE",
"59 181 LINE SMOOTH",
"59 120 OFFCURVE",
"72 71 OFFCURVE",
"101 38 CURVE SMOOTH",
"129 5 OFFCURVE",
"175 -14 OFFCURVE",
"240 -14 CURVE SMOOTH",
"317 -14 OFFCURVE",
"385 24 OFFCURVE",
"418 93 CURVE",
"420 93 LINE",
"420 0 LINE"
);
}
);
width = 537;
}
);
note = ucircumflex;
unicode = 00FB;
},
{
glyphname = udieresis;
layers = (
{
layerId = "943E8435-6871-41EF-8C83-AAAA92C7EE80";
name = Light;
paths = (
{
closed = 1;
nodes = (
"146 605 LINE",
"214 605 LINE",
"214 706 LINE",
"146 706 LINE"
);
},
{
closed = 1;
nodes = (
"323 605 LINE",
"391 605 LINE",
"391 706 LINE",
"323 706 LINE"
);
},
{
closed = 1;
nodes = (
"478 0 LINE",
"478 516 LINE",
"415 516 LINE",
"415 245 LINE SMOOTH",
"415 193 OFFCURVE",
"403 141 OFFCURVE",
"378 102 CURVE SMOOTH",
"353 63 OFFCURVE",
"315 38 OFFCURVE",
"260 38 CURVE SMOOTH",
"160 38 OFFCURVE",
"125 87 OFFCURVE",
"122 180 CURVE",
"122 516 LINE",
"59 516 LINE",
"59 181 LINE SMOOTH",
"59 120 OFFCURVE",
"72 71 OFFCURVE",
"101 38 CURVE SMOOTH",
"129 5 OFFCURVE",
"175 -14 OFFCURVE",
"240 -14 CURVE SMOOTH",
"317 -14 OFFCURVE",
"385 24 OFFCURVE",
"418 93 CURVE",
"420 93 LINE",
"420 0 LINE"
);
}
);
width = 537;
}
);
note = udieresis;
unicode = 00FC;
},
{
glyphname = yacute;
layers = (
{
layerId = "943E8435-6871-41EF-8C83-AAAA92C7EE80";
name = Light;
paths = (
{
closed = 1;
nodes = (
"223 588 LINE",
"355 729 LINE",
"277 729 LINE",
"172 588 LINE"
);
},
{
closed = 1;
nodes = (
"2 516 LINE",
"208 2 LINE",
"186 -56 LINE",
"175 -80 OFFCURVE",
"167 -100 OFFCURVE",
"154 -114 CURVE SMOOTH",
"141 -128 OFFCURVE",
"124 -137 OFFCURVE",
"96 -137 CURVE SMOOTH",
"81 -137 OFFCURVE",
"68 -135 OFFCURVE",
"53 -132 CURVE",
"53 -185 LINE",
"58 -187 OFFCURVE",
"65 -188 OFFCURVE",
"72 -188 CURVE",
"86 -189 OFFCURVE",
"125 -192 OFFCURVE",
"151 -184 CURVE",
"177 -177 OFFCURVE",
"195 -161 OFFCURVE",
"211 -132 CURVE SMOOTH",
"219 -118 OFFCURVE",
"228 -100 OFFCURVE",
"237 -78 CURVE SMOOTH",
"461 516 LINE",
"398 516 LINE",
"239 76 LINE",
"69 516 LINE"
);
}
);
width = 463;
}
);
note = yacute;
unicode = 00FD;
},
{
glyphname = thorn;
layers = (
{
layerId = "943E8435-6871-41EF-8C83-AAAA92C7EE80";
name = Light;
paths = (
{
closed = 1;
nodes = (
"60 714 LINE",
"60 -190 LINE",
"123 -190 LINE",
"123 98 LINE",
"125 98 LINE",
"138 61 OFFCURVE",
"164 33 OFFCURVE",
"196 14 CURVE SMOOTH",
"228 -5 OFFCURVE",
"267 -14 OFFCURVE",
"304 -14 CURVE SMOOTH",
"383 -14 OFFCURVE",
"440 17 OFFCURVE",
"479 67 CURVE SMOOTH",
"518 117 OFFCURVE",
"536 185 OFFCURVE",
"536 258 CURVE SMOOTH",
"536 331 OFFCURVE",
"518 400 OFFCURVE",
"479 450 CURVE SMOOTH",
"440 500 OFFCURVE",
"383 531 OFFCURVE",
"304 531 CURVE SMOOTH",
"267 531 OFFCURVE",
"228 522 OFFCURVE",
"196 503 CURVE SMOOTH",
"164 483 OFFCURVE",
"138 455 OFFCURVE",
"125 418 CURVE",
"123 418 LINE",
"123 714 LINE"
);
},
{
closed = 1;
nodes = (
"473 205 OFFCURVE",
"461 149 OFFCURVE",
"434 108 CURVE SMOOTH",
"406 67 OFFCURVE",
"364 38 OFFCURVE",
"304 38 CURVE SMOOTH",
"237 38 OFFCURVE",
"192 67 OFFCURVE",
"164 108 CURVE SMOOTH",
"135 149 OFFCURVE",
"123 205 OFFCURVE",
"123 258 CURVE SMOOTH",
"123 311 OFFCURVE",
"135 367 OFFCURVE",
"164 408 CURVE SMOOTH",
"192 449 OFFCURVE",
"237 478 OFFCURVE",
"304 478 CURVE SMOOTH",
"364 478 OFFCURVE",
"406 449 OFFCURVE",
"434 408 CURVE SMOOTH",
"461 367 OFFCURVE",
"473 311 OFFCURVE",
"473 258 CURVE SMOOTH"
);
}
);
width = 574;
}
);
note = thorn;
unicode = 00FE;
},
{
glyphname = ydieresis;
layers = (
{
layerId = "943E8435-6871-41EF-8C83-AAAA92C7EE80";
name = Light;
paths = (
{
closed = 1;
nodes = (
"109 605 LINE",
"177 605 LINE",
"177 706 LINE",
"109 706 LINE"
);
},
{
closed = 1;
nodes = (
"286 605 LINE",
"354 605 LINE",
"354 706 LINE",
"286 706 LINE"
);
},
{
closed = 1;
nodes = (
"2 516 LINE",
"208 2 LINE",
"186 -56 LINE",
"175 -80 OFFCURVE",
"167 -100 OFFCURVE",
"154 -114 CURVE SMOOTH",
"141 -128 OFFCURVE",
"124 -137 OFFCURVE",
"96 -137 CURVE SMOOTH",
"81 -137 OFFCURVE",
"68 -135 OFFCURVE",
"53 -132 CURVE",
"53 -185 LINE",
"58 -187 OFFCURVE",
"65 -188 OFFCURVE",
"72 -188 CURVE",
"86 -189 OFFCURVE",
"125 -192 OFFCURVE",
"151 -184 CURVE",
"177 -177 OFFCURVE",
"195 -161 OFFCURVE",
"211 -132 CURVE SMOOTH",
"219 -118 OFFCURVE",
"228 -100 OFFCURVE",
"237 -78 CURVE SMOOTH",
"461 516 LINE",
"398 516 LINE",
"239 76 LINE",
"69 516 LINE"
);
}
);
width = 463;
}
);
note = ydieresis;
unicode = 00FF;
},
{
glyphname = Amacron;
layers = (
{
layerId = "943E8435-6871-41EF-8C83-AAAA92C7EE80";
name = Light;
paths = (
{
closed = 1;
nodes = (
"173 280 LINE",
"316 646 LINE",
"454 280 LINE"
);
},
{
closed = 1;
nodes = (
"281 714 LINE",
"-6 0 LINE",
"66 0 LINE",
"152 222 LINE",
"477 222 LINE",
"564 0 LINE",
"637 0 LINE",
"357 714 LINE"
);
},
{
closed = 1;
nodes = (
"151 809 LINE",
"479 809 LINE",
"479 764 LINE",
"151 764 LINE"
);
}
);
width = 630;
}
);
note = Amacron;
unicode = 0100;
},
{
glyphname = amacron;
lastChange = "2016-01-24 04:50:54 +0000";
layers = (
{
layerId = "943E8435-6871-41EF-8C83-AAAA92C7EE80";
name = Light;
paths = (
{
closed = 1;
nodes = (
"107 629 LINE",
"435 629 LINE",
"435 584 LINE",
"107 584 LINE"
);
},
{
closed = 1;
nodes = (
"117 364 LINE",
"120 448 OFFCURVE",
"175 478 OFFCURVE",
"255 478 CURVE SMOOTH",
"292 478 OFFCURVE",
"326 473 OFFCURVE",
"351 457 CURVE SMOOTH",
"375 441 OFFCURVE",
"390 415 OFFCURVE",
"390 372 CURVE SMOOTH",
"390 344 OFFCURVE",
"382 328 OFFCURVE",
"369 318 CURVE SMOOTH",
"356 308 OFFCURVE",
"336 305 OFFCURVE",
"309 302 CURVE SMOOTH",
"241 294 OFFCURVE",
"177 288 OFFCURVE",
"125 267 CURVE SMOOTH",
"72 246 OFFCURVE",
"37 212 OFFCURVE",
"37 140 CURVE SMOOTH",
"37 88 OFFCURVE",
"56 50 OFFCURVE",
"88 26 CURVE",
"119 1 OFFCURVE",
"157 -8 OFFCURVE",
"205 -8 CURVE SMOOTH",
"256 -8 OFFCURVE",
"291 0 OFFCURVE",
"320 17 CURVE SMOOTH",
"348 34 OFFCURVE",
"367 45 OFFCURVE",
"393 75 CURVE",
"395 75 LINE",
"395 10 LINE",
"453 10 LINE",
"453 365 LINE SMOOTH",
"453 434 OFFCURVE",
"428 476 OFFCURVE",
"392 500 CURVE SMOOTH",
"356 524 OFFCURVE",
"308 531 OFFCURVE",
"263 531 CURVE SMOOTH",
"203 531 OFFCURVE",
"153 518 OFFCURVE",
"117 490 CURVE SMOOTH",
"80 462 OFFCURVE",
"58 424 OFFCURVE",
"54 364 CURVE"
);
},
{
closed = 1;
nodes = (
"390 269 LINE",
"390 200 LINE SMOOTH",
"390 149 OFFCURVE",
"368 114 OFFCURVE",
"336 86 CURVE SMOOTH",
"303 58 OFFCURVE",
"262 43 OFFCURVE",
"214 43 CURVE SMOOTH",
"185 43 OFFCURVE",
"151 52 OFFCURVE",
"130 70 CURVE SMOOTH",
"109 88 OFFCURVE",
"95 112 OFFCURVE",
"95 144 CURVE SMOOTH",
"95 195 OFFCURVE",
"128 215 OFFCURVE",
"175 230 CURVE SMOOTH",
"198 237 OFFCURVE",
"224 243 OFFCURVE",
"253 247 CURVE SMOOTH",
"281 250 OFFCURVE",
"308 254 OFFCURVE",
"335 259 CURVE SMOOTH",
"352 262 OFFCURVE",
"371 265 OFFCURVE",
"389 273 CURVE"
);
}
);
width = 519;
}
);
note = amacron;
unicode = 0101;
},
{
glyphname = Abreve;
layers = (
{
layerId = "943E8435-6871-41EF-8C83-AAAA92C7EE80";
name = Light;
paths = (
{
closed = 1;
nodes = (
"173 280 LINE",
"316 646 LINE",
"454 280 LINE"
);
},
{
closed = 1;
nodes = (
"281 714 LINE",
"-6 0 LINE",
"66 0 LINE",
"152 222 LINE",
"477 222 LINE",
"564 0 LINE",
"637 0 LINE",
"357 714 LINE"
);
},
{
closed = 1;
nodes = (
"212 864 OFFCURVE",
"225 844 OFFCURVE",
"244 830 CURVE SMOOTH",
"263 816 OFFCURVE",
"288 809 OFFCURVE",
"313 809 CURVE SMOOTH",
"364 809 OFFCURVE",
"411 839 OFFCURVE",
"419 891 CURVE",
"458 891 LINE",
"447 811 OFFCURVE",
"393 764 OFFCURVE",
"313 764 CURVE SMOOTH",
"232 764 OFFCURVE",
"179 810 OFFCURVE",
"172 891 CURVE",
"211 891 LINE"
);
}
);
width = 630;
}
);
note = Abreve;
unicode = 0102;
},
{
glyphname = abreve;
lastChange = "2016-01-24 04:50:48 +0000";
layers = (
{
layerId = "943E8435-6871-41EF-8C83-AAAA92C7EE80";
name = Light;
paths = (
{
closed = 1;
nodes = (
"168 684 OFFCURVE",
"181 664 OFFCURVE",
"200 650 CURVE SMOOTH",
"219 636 OFFCURVE",
"244 629 OFFCURVE",
"269 629 CURVE SMOOTH",
"320 629 OFFCURVE",
"367 659 OFFCURVE",
"375 711 CURVE",
"414 711 LINE",
"403 631 OFFCURVE",
"349 584 OFFCURVE",
"269 584 CURVE SMOOTH",
"188 584 OFFCURVE",
"135 630 OFFCURVE",
"128 711 CURVE",
"167 711 LINE"
);
},
{
closed = 1;
nodes = (
"117 364 LINE",
"120 448 OFFCURVE",
"175 478 OFFCURVE",
"255 478 CURVE SMOOTH",
"292 478 OFFCURVE",
"326 473 OFFCURVE",
"351 457 CURVE SMOOTH",
"375 441 OFFCURVE",
"390 415 OFFCURVE",
"390 372 CURVE SMOOTH",
"390 344 OFFCURVE",
"382 328 OFFCURVE",
"369 318 CURVE SMOOTH",
"356 308 OFFCURVE",
"336 305 OFFCURVE",
"309 302 CURVE SMOOTH",
"241 294 OFFCURVE",
"177 288 OFFCURVE",
"125 267 CURVE SMOOTH",
"72 246 OFFCURVE",
"37 212 OFFCURVE",
"37 140 CURVE SMOOTH",
"37 88 OFFCURVE",
"56 50 OFFCURVE",
"88 26 CURVE",
"119 1 OFFCURVE",
"157 -8 OFFCURVE",
"205 -8 CURVE SMOOTH",
"256 -8 OFFCURVE",
"291 0 OFFCURVE",
"320 17 CURVE SMOOTH",
"348 34 OFFCURVE",
"367 45 OFFCURVE",
"393 75 CURVE",
"395 75 LINE",
"395 10 LINE",
"453 10 LINE",
"453 365 LINE SMOOTH",
"453 434 OFFCURVE",
"428 476 OFFCURVE",
"392 500 CURVE SMOOTH",
"356 524 OFFCURVE",
"308 531 OFFCURVE",
"263 531 CURVE SMOOTH",
"203 531 OFFCURVE",
"153 518 OFFCURVE",
"117 490 CURVE SMOOTH",
"80 462 OFFCURVE",
"58 424 OFFCURVE",
"54 364 CURVE"
);
},
{
closed = 1;
nodes = (
"390 269 LINE",
"390 200 LINE SMOOTH",
"390 149 OFFCURVE",
"368 114 OFFCURVE",
"336 86 CURVE SMOOTH",
"303 58 OFFCURVE",
"262 43 OFFCURVE",
"214 43 CURVE SMOOTH",
"185 43 OFFCURVE",
"151 52 OFFCURVE",
"130 70 CURVE SMOOTH",
"109 88 OFFCURVE",
"95 112 OFFCURVE",
"95 144 CURVE SMOOTH",
"95 195 OFFCURVE",
"128 215 OFFCURVE",
"175 230 CURVE SMOOTH",
"198 237 OFFCURVE",
"224 243 OFFCURVE",
"253 247 CURVE SMOOTH",
"281 250 OFFCURVE",
"308 254 OFFCURVE",
"335 259 CURVE SMOOTH",
"352 262 OFFCURVE",
"371 265 OFFCURVE",
"389 273 CURVE"
);
}
);
width = 519;
}
);
note = abreve;
unicode = 0103;
},
{
glyphname = Aogonek;
layers = (
{
layerId = "943E8435-6871-41EF-8C83-AAAA92C7EE80";
name = Light;
paths = (
{
closed = 1;
nodes = (
"478 -210 OFFCURVE",
"454 -176 OFFCURVE",
"454 -128 CURVE SMOOTH",
"454 -119 OFFCURVE",
"457 -102 OFFCURVE",
"473 -78 CURVE SMOOTH",
"489 -55 OFFCURVE",
"517 -28 OFFCURVE",
"564 0 CURVE",
"477 222 LINE",
"152 222 LINE",
"66 0 LINE",
"-6 0 LINE",
"281 714 LINE",
"357 714 LINE",
"637 0 LINE",
"603 0 LINE",
"570 -27 OFFCURVE",
"547 -50 OFFCURVE",
"534 -70 CURVE SMOOTH",
"521 -90 OFFCURVE",
"517 -107 OFFCURVE",
"517 -124 CURVE SMOOTH",
"517 -156 OFFCURVE",
"538 -171 OFFCURVE",
"561 -171 CURVE SMOOTH",
"586 -171 OFFCURVE",
"605 -149 OFFCURVE",
"616 -130 CURVE",
"645 -143 LINE",
"616 -192 OFFCURVE",
"585 -210 OFFCURVE",
"550 -210 CURVE SMOOTH"
);
},
{
closed = 1;
nodes = (
"454 280 LINE",
"316 646 LINE",
"173 280 LINE"
);
}
);
width = 630;
}
);
note = Aogonek;
unicode = 0104;
},
{
glyphname = aogonek;
layers = (
{
layerId = "943E8435-6871-41EF-8C83-AAAA92C7EE80";
name = Light;
paths = (
{
closed = 1;
nodes = (
"359 -210 OFFCURVE",
"335 -176 OFFCURVE",
"335 -128 CURVE SMOOTH",
"335 -119 OFFCURVE",
"338 -102 OFFCURVE",
"354 -78 CURVE SMOOTH",
"370 -55 OFFCURVE",
"398 -27 OFFCURVE",
"447 1 CURVE",
"434 4 OFFCURVE",
"419 9 OFFCURVE",
"408 25 CURVE SMOOTH",
"397 41 OFFCURVE",
"395 63 OFFCURVE",
"395 90 CURVE",
"393 90 LINE",
"370 57 OFFCURVE",
"348 30 OFFCURVE",
"320 13 CURVE SMOOTH",
"291 -4 OFFCURVE",
"256 -14 OFFCURVE",
"205 -14 CURVE SMOOTH",
"157 -14 OFFCURVE",
"114 -3 OFFCURVE",
"83 22 CURVE",
"51 46 OFFCURVE",
"32 84 OFFCURVE",
"32 136 CURVE SMOOTH",
"32 208 OFFCURVE",
"67 246 OFFCURVE",
"120 267 CURVE SMOOTH",
"172 288 OFFCURVE",
"241 294 OFFCURVE",
"309 302 CURVE SMOOTH",
"336 305 OFFCURVE",
"356 308 OFFCURVE",
"369 318 CURVE SMOOTH",
"382 328 OFFCURVE",
"390 344 OFFCURVE",
"390 372 CURVE SMOOTH",
"390 415 OFFCURVE",
"375 441 OFFCURVE",
"351 457 CURVE SMOOTH",
"326 473 OFFCURVE",
"292 478 OFFCURVE",
"255 478 CURVE SMOOTH",
"175 478 OFFCURVE",
"120 442 OFFCURVE",
"117 358 CURVE",
"54 358 LINE",
"58 418 OFFCURVE",
"80 462 OFFCURVE",
"117 490 CURVE SMOOTH",
"153 518 OFFCURVE",
"203 531 OFFCURVE",
"263 531 CURVE SMOOTH",
"308 531 OFFCURVE",
"356 524 OFFCURVE",
"392 500 CURVE SMOOTH",
"428 476 OFFCURVE",
"453 434 OFFCURVE",
"453 365 CURVE SMOOTH",
"453 91 LINE SMOOTH",
"453 66 OFFCURVE",
"465 53 OFFCURVE",
"490 53 CURVE SMOOTH",
"497 53 OFFCURVE",
"504 54 OFFCURVE",
"510 57 CURVE",
"510 4 LINE",
"503 3 OFFCURVE",
"496 2 OFFCURVE",
"490 1 CURVE",
"489 0 OFFCURVE",
"487 0 OFFCURVE",
"484 0 CURVE",
"451 -27 OFFCURVE",
"428 -50 OFFCURVE",
"415 -70 CURVE SMOOTH",
"402 -90 OFFCURVE",
"398 -107 OFFCURVE",
"398 -124 CURVE SMOOTH",
"398 -156 OFFCURVE",
"419 -171 OFFCURVE",
"442 -171 CURVE SMOOTH",
"467 -171 OFFCURVE",
"486 -149 OFFCURVE",
"497 -130 CURVE",
"526 -143 LINE",
"497 -192 OFFCURVE",
"466 -210 OFFCURVE",
"431 -210 CURVE SMOOTH"
);
},
{
closed = 1;
nodes = (
"258 38 OFFCURVE",
"304 53 OFFCURVE",
"337 81 CURVE SMOOTH",
"369 109 OFFCURVE",
"390 149 OFFCURVE",
"390 200 CURVE SMOOTH",
"390 282 LINE",
"388 282 LINE",
"380 267 OFFCURVE",
"352 262 OFFCURVE",
"335 259 CURVE SMOOTH",
"308 254 OFFCURVE",
"281 250 OFFCURVE",
"253 247 CURVE SMOOTH",
"196 239 OFFCURVE",
"148 226 OFFCURVE",
"118 199 CURVE SMOOTH",
"103 185 OFFCURVE",
"95 165 OFFCURVE",
"95 140 CURVE SMOOTH",
"95 108 OFFCURVE",
"109 84 OFFCURVE",
"130 66 CURVE SMOOTH",
"151 48 OFFCURVE",
"181 38 OFFCURVE",
"210 38 CURVE SMOOTH"
);
}
);
width = 519;
}
);
note = aogonek;
unicode = 0105;
},
{
glyphname = Cacute;
layers = (
{
layerId = "943E8435-6871-41EF-8C83-AAAA92C7EE80";
name = Light;
paths = (
{
closed = 1;
nodes = (
"594 498 LINE",
"582 553 OFFCURVE",
"554 597 OFFCURVE",
"515 626 CURVE SMOOTH",
"475 655 OFFCURVE",
"427 671 OFFCURVE",
"375 671 CURVE SMOOTH",
"280 671 OFFCURVE",
"213 632 OFFCURVE",
"170 573 CURVE SMOOTH",
"126 513 OFFCURVE",
"106 436 OFFCURVE",
"106 357 CURVE SMOOTH",
"106 280 OFFCURVE",
"126 201 OFFCURVE",
"170 142 CURVE SMOOTH",
"213 82 OFFCURVE",
"280 43 OFFCURVE",
"375 43 CURVE SMOOTH",
"442 43 OFFCURVE",
"495 69 OFFCURVE",
"534 110 CURVE SMOOTH",
"573 151 OFFCURVE",
"597 208 OFFCURVE",
"604 272 CURVE",
"672 272 LINE",
"663 184 OFFCURVE",
"630 112 OFFCURVE",
"579 63 CURVE SMOOTH",
"528 14 OFFCURVE",
"459 -14 OFFCURVE",
"375 -14 CURVE SMOOTH",
"263 -14 OFFCURVE",
"178 30 OFFCURVE",
"122 98 CURVE SMOOTH",
"66 166 OFFCURVE",
"38 258 OFFCURVE",
"38 357 CURVE SMOOTH",
"38 456 OFFCURVE",
"66 548 OFFCURVE",
"122 617 CURVE SMOOTH",
"178 685 OFFCURVE",
"263 729 OFFCURVE",
"375 729 CURVE SMOOTH",
"443 729 OFFCURVE",
"510 709 OFFCURVE",
"563 670 CURVE SMOOTH",
"615 630 OFFCURVE",
"653 573 OFFCURVE",
"662 498 CURVE"
);
},
{
closed = 1;
nodes = (
"320 786 LINE",
"425 927 LINE",
"503 927 LINE",
"371 786 LINE"
);
}
);
width = 704;
}
);
note = Cacute;
unicode = 0106;
},
{
glyphname = cacute;
layers = (
{
layerId = "943E8435-6871-41EF-8C83-AAAA92C7EE80";
name = Light;
paths = (
{
closed = 1;
nodes = (
"424 354 LINE",
"407 431 OFFCURVE",
"362 478 OFFCURVE",
"278 478 CURVE SMOOTH",
"218 478 OFFCURVE",
"173 450 OFFCURVE",
"143 409 CURVE SMOOTH",
"113 368 OFFCURVE",
"97 313 OFFCURVE",
"97 258 CURVE SMOOTH",
"97 203 OFFCURVE",
"113 148 OFFCURVE",
"143 107 CURVE SMOOTH",
"173 66 OFFCURVE",
"218 38 OFFCURVE",
"278 38 CURVE SMOOTH",
"317 38 OFFCURVE",
"352 54 OFFCURVE",
"379 80 CURVE SMOOTH",
"406 106 OFFCURVE",
"424 142 OFFCURVE",
"428 185 CURVE",
"491 185 LINE",
"474 60 OFFCURVE",
"395 -14 OFFCURVE",
"278 -14 CURVE SMOOTH",
"199 -14 OFFCURVE",
"138 17 OFFCURVE",
"97 66 CURVE SMOOTH",
"56 115 OFFCURVE",
"34 183 OFFCURVE",
"34 258 CURVE SMOOTH",
"34 333 OFFCURVE",
"56 401 OFFCURVE",
"97 450 CURVE SMOOTH",
"138 499 OFFCURVE",
"199 531 OFFCURVE",
"278 531 CURVE SMOOTH",
"389 531 OFFCURVE",
"472 473 OFFCURVE",
"487 354 CURVE"
);
},
{
closed = 1;
nodes = (
"208 588 LINE",
"313 729 LINE",
"391 729 LINE",
"259 588 LINE"
);
}
);
width = 519;
}
);
note = cacute;
unicode = 0107;
},
{
glyphname = Ccircumflex;
layers = (
{
layerId = "943E8435-6871-41EF-8C83-AAAA92C7EE80";
name = Light;
paths = (
{
closed = 1;
nodes = (
"662 498 LINE",
"653 573 OFFCURVE",
"615 630 OFFCURVE",
"563 670 CURVE SMOOTH",
"510 709 OFFCURVE",
"443 729 OFFCURVE",
"375 729 CURVE SMOOTH",
"263 729 OFFCURVE",
"178 685 OFFCURVE",
"122 617 CURVE SMOOTH",
"66 548 OFFCURVE",
"38 456 OFFCURVE",
"38 357 CURVE SMOOTH",
"38 258 OFFCURVE",
"66 166 OFFCURVE",
"122 98 CURVE SMOOTH",
"178 30 OFFCURVE",
"263 -14 OFFCURVE",
"375 -14 CURVE SMOOTH",
"459 -14 OFFCURVE",
"528 14 OFFCURVE",
"579 63 CURVE SMOOTH",
"630 112 OFFCURVE",
"663 184 OFFCURVE",
"672 272 CURVE",
"604 272 LINE",
"597 208 OFFCURVE",
"573 151 OFFCURVE",
"534 110 CURVE SMOOTH",
"495 69 OFFCURVE",
"442 43 OFFCURVE",
"375 43 CURVE SMOOTH",
"280 43 OFFCURVE",
"213 82 OFFCURVE",
"170 142 CURVE SMOOTH",
"126 201 OFFCURVE",
"106 280 OFFCURVE",
"106 357 CURVE SMOOTH",
"106 436 OFFCURVE",
"126 513 OFFCURVE",
"170 573 CURVE SMOOTH",
"213 632 OFFCURVE",
"280 671 OFFCURVE",
"375 671 CURVE SMOOTH",
"427 671 OFFCURVE",
"475 655 OFFCURVE",
"515 626 CURVE SMOOTH",
"554 597 OFFCURVE",
"582 553 OFFCURVE",
"594 498 CURVE"
);
},
{
closed = 1;
nodes = (
"438 779 LINE",
"352 881 LINE",
"264 779 LINE",
"207 779 LINE",
"320 920 LINE",
"389 920 LINE",
"503 779 LINE"
);
}
);
width = 704;
}
);
note = Ccircumflex;
unicode = 0108;
},
{
glyphname = ccircumflex;
layers = (
{
layerId = "943E8435-6871-41EF-8C83-AAAA92C7EE80";
name = Light;
paths = (
{
closed = 1;
nodes = (
"487 354 LINE",
"472 473 OFFCURVE",
"389 531 OFFCURVE",
"278 531 CURVE SMOOTH",
"199 531 OFFCURVE",
"138 499 OFFCURVE",
"97 450 CURVE SMOOTH",
"56 401 OFFCURVE",
"34 333 OFFCURVE",
"34 258 CURVE SMOOTH",
"34 183 OFFCURVE",
"56 115 OFFCURVE",
"97 66 CURVE SMOOTH",
"138 17 OFFCURVE",
"199 -14 OFFCURVE",
"278 -14 CURVE SMOOTH",
"395 -14 OFFCURVE",
"474 60 OFFCURVE",
"491 185 CURVE",
"428 185 LINE",
"424 142 OFFCURVE",
"406 106 OFFCURVE",
"379 80 CURVE SMOOTH",
"352 54 OFFCURVE",
"317 38 OFFCURVE",
"278 38 CURVE SMOOTH",
"218 38 OFFCURVE",
"173 66 OFFCURVE",
"143 107 CURVE SMOOTH",
"113 148 OFFCURVE",
"97 203 OFFCURVE",
"97 258 CURVE SMOOTH",
"97 313 OFFCURVE",
"113 368 OFFCURVE",
"143 409 CURVE SMOOTH",
"173 450 OFFCURVE",
"218 478 OFFCURVE",
"278 478 CURVE SMOOTH",
"362 478 OFFCURVE",
"407 431 OFFCURVE",
"424 354 CURVE"
);
},
{
closed = 1;
nodes = (
"345 584 LINE",
"259 686 LINE",
"171 584 LINE",
"114 584 LINE",
"227 725 LINE",
"296 725 LINE",
"410 584 LINE"
);
}
);
width = 519;
}
);
note = ccircumflex;
unicode = 0109;
},
{
glyphname = Cdotaccent;
layers = (
{
layerId = "943E8435-6871-41EF-8C83-AAAA92C7EE80";
name = Light;
paths = (
{
closed = 1;
nodes = (
"662 498 LINE",
"653 573 OFFCURVE",
"615 630 OFFCURVE",
"563 670 CURVE SMOOTH",
"510 709 OFFCURVE",
"443 729 OFFCURVE",
"375 729 CURVE SMOOTH",
"263 729 OFFCURVE",
"178 685 OFFCURVE",
"122 617 CURVE SMOOTH",
"66 548 OFFCURVE",
"38 456 OFFCURVE",
"38 357 CURVE SMOOTH",
"38 258 OFFCURVE",
"66 166 OFFCURVE",
"122 98 CURVE SMOOTH",
"178 30 OFFCURVE",
"263 -14 OFFCURVE",
"375 -14 CURVE SMOOTH",
"459 -14 OFFCURVE",
"528 14 OFFCURVE",
"579 63 CURVE SMOOTH",
"630 112 OFFCURVE",
"663 184 OFFCURVE",
"672 272 CURVE",
"604 272 LINE",
"597 208 OFFCURVE",
"573 151 OFFCURVE",
"534 110 CURVE SMOOTH",
"495 69 OFFCURVE",
"442 43 OFFCURVE",
"375 43 CURVE SMOOTH",
"280 43 OFFCURVE",
"213 82 OFFCURVE",
"170 142 CURVE SMOOTH",
"126 201 OFFCURVE",
"106 280 OFFCURVE",
"106 357 CURVE SMOOTH",
"106 436 OFFCURVE",
"126 513 OFFCURVE",
"170 573 CURVE SMOOTH",
"213 632 OFFCURVE",
"280 671 OFFCURVE",
"375 671 CURVE SMOOTH",
"427 671 OFFCURVE",
"475 655 OFFCURVE",
"515 626 CURVE SMOOTH",
"554 597 OFFCURVE",
"582 553 OFFCURVE",
"594 498 CURVE"
);
},
{
closed = 1;
nodes = (
"321 880 LINE",
"389 880 LINE",
"389 779 LINE",
"321 779 LINE"
);
}
);
width = 704;
}
);
note = Cdotaccent;
unicode = 010A;
},
{
glyphname = cdotaccent;
layers = (
{
layerId = "943E8435-6871-41EF-8C83-AAAA92C7EE80";
name = Light;
paths = (
{
closed = 1;
nodes = (
"487 354 LINE",
"472 473 OFFCURVE",
"389 531 OFFCURVE",
"278 531 CURVE SMOOTH",
"199 531 OFFCURVE",
"138 499 OFFCURVE",
"97 450 CURVE SMOOTH",
"56 401 OFFCURVE",
"34 333 OFFCURVE",
"34 258 CURVE SMOOTH",
"34 183 OFFCURVE",
"56 115 OFFCURVE",
"97 66 CURVE SMOOTH",
"138 17 OFFCURVE",
"199 -14 OFFCURVE",
"278 -14 CURVE SMOOTH",
"395 -14 OFFCURVE",
"474 60 OFFCURVE",
"491 185 CURVE",
"428 185 LINE",
"424 142 OFFCURVE",
"406 106 OFFCURVE",
"379 80 CURVE SMOOTH",
"352 54 OFFCURVE",
"317 38 OFFCURVE",
"278 38 CURVE SMOOTH",
"218 38 OFFCURVE",
"173 66 OFFCURVE",
"143 107 CURVE SMOOTH",
"113 148 OFFCURVE",
"97 203 OFFCURVE",
"97 258 CURVE SMOOTH",
"97 313 OFFCURVE",
"113 368 OFFCURVE",
"143 409 CURVE SMOOTH",
"173 450 OFFCURVE",
"218 478 OFFCURVE",
"278 478 CURVE SMOOTH",
"362 478 OFFCURVE",
"407 431 OFFCURVE",
"424 354 CURVE"
);
},
{
closed = 1;
nodes = (
"228 685 LINE",
"296 685 LINE",
"296 584 LINE",
"228 584 LINE"
);
}
);
width = 519;
}
);
note = cdotaccent;
unicode = 010B;
},
{
glyphname = Ccaron;
layers = (
{
layerId = "943E8435-6871-41EF-8C83-AAAA92C7EE80";
name = Light;
paths = (
{
closed = 1;
nodes = (
"662 498 LINE",
"653 573 OFFCURVE",
"615 630 OFFCURVE",
"563 670 CURVE SMOOTH",
"510 709 OFFCURVE",
"443 729 OFFCURVE",
"375 729 CURVE SMOOTH",
"263 729 OFFCURVE",
"178 685 OFFCURVE",
"122 617 CURVE SMOOTH",
"66 548 OFFCURVE",
"38 456 OFFCURVE",
"38 357 CURVE SMOOTH",
"38 258 OFFCURVE",
"66 166 OFFCURVE",
"122 98 CURVE SMOOTH",
"178 30 OFFCURVE",
"263 -14 OFFCURVE",
"375 -14 CURVE SMOOTH",
"459 -14 OFFCURVE",
"528 14 OFFCURVE",
"579 63 CURVE SMOOTH",
"630 112 OFFCURVE",
"663 184 OFFCURVE",
"672 272 CURVE",
"604 272 LINE",
"597 208 OFFCURVE",
"573 151 OFFCURVE",
"534 110 CURVE SMOOTH",
"495 69 OFFCURVE",
"442 43 OFFCURVE",
"375 43 CURVE SMOOTH",
"280 43 OFFCURVE",
"213 82 OFFCURVE",
"170 142 CURVE SMOOTH",
"126 201 OFFCURVE",
"106 280 OFFCURVE",
"106 357 CURVE SMOOTH",
"106 436 OFFCURVE",
"126 513 OFFCURVE",
"170 573 CURVE SMOOTH",
"213 632 OFFCURVE",
"280 671 OFFCURVE",
"375 671 CURVE SMOOTH",
"427 671 OFFCURVE",
"475 655 OFFCURVE",
"515 626 CURVE SMOOTH",
"554 597 OFFCURVE",
"582 553 OFFCURVE",
"594 498 CURVE"
);
},
{
closed = 1;
nodes = (
"222 923 LINE",
"335 782 LINE",
"404 782 LINE",
"518 923 LINE",
"460 923 LINE",
"372 821 LINE",
"286 923 LINE"
);
}
);
width = 704;
}
);
note = Ccaron;
unicode = 010C;
},
{
glyphname = ccaron;
layers = (
{
layerId = "943E8435-6871-41EF-8C83-AAAA92C7EE80";
name = Light;
paths = (
{
closed = 1;
nodes = (
"487 354 LINE",
"472 473 OFFCURVE",
"389 531 OFFCURVE",
"278 531 CURVE SMOOTH",
"199 531 OFFCURVE",
"138 499 OFFCURVE",
"97 450 CURVE SMOOTH",
"56 401 OFFCURVE",
"34 333 OFFCURVE",
"34 258 CURVE SMOOTH",
"34 183 OFFCURVE",
"56 115 OFFCURVE",
"97 66 CURVE SMOOTH",
"138 17 OFFCURVE",
"199 -14 OFFCURVE",
"278 -14 CURVE SMOOTH",
"395 -14 OFFCURVE",
"474 60 OFFCURVE",
"491 185 CURVE",
"428 185 LINE",
"424 142 OFFCURVE",
"406 106 OFFCURVE",
"379 80 CURVE SMOOTH",
"352 54 OFFCURVE",
"317 38 OFFCURVE",
"278 38 CURVE SMOOTH",
"218 38 OFFCURVE",
"173 66 OFFCURVE",
"143 107 CURVE SMOOTH",
"113 148 OFFCURVE",
"97 203 OFFCURVE",
"97 258 CURVE SMOOTH",
"97 313 OFFCURVE",
"113 368 OFFCURVE",
"143 409 CURVE SMOOTH",
"173 450 OFFCURVE",
"218 478 OFFCURVE",
"278 478 CURVE SMOOTH",
"362 478 OFFCURVE",
"407 431 OFFCURVE",
"424 354 CURVE"
);
},
{
closed = 1;
nodes = (
"130 725 LINE",
"243 584 LINE",
"312 584 LINE",
"426 725 LINE",
"368 725 LINE",
"280 623 LINE",
"194 725 LINE"
);
}
);
width = 519;
}
);
note = ccaron;
unicode = 010D;
},
{
glyphname = Dcaron;
layers = (
{
layerId = "943E8435-6871-41EF-8C83-AAAA92C7EE80";
name = Light;
paths = (
{
closed = 1;
nodes = (
"72 714 LINE",
"72 0 LINE",
"319 0 LINE SMOOTH",
"536 5 OFFCURVE",
"647 120 OFFCURVE",
"647 357 CURVE SMOOTH",
"647 594 OFFCURVE",
"536 709 OFFCURVE",
"319 714 CURVE SMOOTH"
);
},
{
closed = 1;
nodes = (
"140 58 LINE",
"140 656 LINE",
"285 656 LINE SMOOTH",
"388 656 OFFCURVE",
"461 635 OFFCURVE",
"509 587 CURVE SMOOTH",
"557 539 OFFCURVE",
"579 464 OFFCURVE",
"579 357 CURVE SMOOTH",
"579 250 OFFCURVE",
"557 175 OFFCURVE",
"509 127 CURVE SMOOTH",
"461 79 OFFCURVE",
"388 58 OFFCURVE",
"285 58 CURVE SMOOTH"
);
},
{
closed = 1;
nodes = (
"153 900 LINE",
"266 759 LINE",
"335 759 LINE",
"449 900 LINE",
"391 900 LINE",
"303 798 LINE",
"217 900 LINE"
);
}
);
width = 685;
}
);
note = Dcaron;
unicode = 010E;
},
{
glyphname = dcaron;
layers = (
{
layerId = "943E8435-6871-41EF-8C83-AAAA92C7EE80";
name = Light;
paths = (
{
closed = 1;
nodes = (
"657 767 LINE SMOOTH",
"657 738 OFFCURVE",
"650 708 OFFCURVE",
"635 684 CURVE SMOOTH",
"620 659 OFFCURVE",
"598 639 OFFCURVE",
"569 631 CURVE",
"569 674 LINE",
"585 679 OFFCURVE",
"597 696 OFFCURVE",
"605 714 CURVE SMOOTH",
"613 732 OFFCURVE",
"616 752 OFFCURVE",
"615 767 CURVE",
"583 767 LINE",
"583 873 LINE",
"657 873 LINE"
);
},
{
closed = 1;
nodes = (
"456 0 LINE",
"456 98 LINE",
"454 98 LINE",
"441 65 OFFCURVE",
"413 36 OFFCURVE",
"380 17 CURVE SMOOTH",
"347 -3 OFFCURVE",
"307 -14 OFFCURVE",
"270 -14 CURVE SMOOTH",
"191 -14 OFFCURVE",
"134 17 OFFCURVE",
"95 67 CURVE SMOOTH",
"56 117 OFFCURVE",
"38 185 OFFCURVE",
"38 258 CURVE SMOOTH",
"38 331 OFFCURVE",
"56 400 OFFCURVE",
"95 450 CURVE SMOOTH",
"134 500 OFFCURVE",
"191 531 OFFCURVE",
"270 531 CURVE SMOOTH",
"309 531 OFFCURVE",
"346 522 OFFCURVE",
"378 503 CURVE SMOOTH",
"410 483 OFFCURVE",
"436 455 OFFCURVE",
"449 418 CURVE",
"451 418 LINE",
"451 714 LINE",
"514 714 LINE",
"514 0 LINE"
);
},
{
closed = 1;
nodes = (
"101 205 OFFCURVE",
"113 149 OFFCURVE",
"141 108 CURVE SMOOTH",
"168 67 OFFCURVE",
"210 38 OFFCURVE",
"270 38 CURVE SMOOTH",
"337 38 OFFCURVE",
"382 67 OFFCURVE",
"411 108 CURVE SMOOTH",
"439 149 OFFCURVE",
"451 205 OFFCURVE",
"451 258 CURVE SMOOTH",
"451 311 OFFCURVE",
"439 367 OFFCURVE",
"411 408 CURVE SMOOTH",
"382 449 OFFCURVE",
"337 478 OFFCURVE",
"270 478 CURVE SMOOTH",
"210 478 OFFCURVE",
"168 449 OFFCURVE",
"141 408 CURVE SMOOTH",
"113 367 OFFCURVE",
"101 311 OFFCURVE",
"101 258 CURVE SMOOTH"
);
}
);
width = 574;
}
);
note = dcaron;
unicode = 010F;
},
{
glyphname = Dcroat;
layers = (
{
layerId = "943E8435-6871-41EF-8C83-AAAA92C7EE80";
name = Light;
paths = (
{
closed = 1;
nodes = (
"72 714 LINE",
"72 393 LINE",
"0 393 LINE",
"0 348 LINE",
"72 348 LINE",
"72 0 LINE",
"319 0 LINE SMOOTH",
"536 5 OFFCURVE",
"647 120 OFFCURVE",
"647 357 CURVE SMOOTH",
"647 594 OFFCURVE",
"536 709 OFFCURVE",
"319 714 CURVE SMOOTH"
);
},
{
closed = 1;
nodes = (
"140 393 LINE",
"140 656 LINE",
"285 656 LINE SMOOTH",
"388 656 OFFCURVE",
"461 635 OFFCURVE",
"509 587 CURVE SMOOTH",
"557 539 OFFCURVE",
"579 464 OFFCURVE",
"579 357 CURVE SMOOTH",
"579 250 OFFCURVE",
"557 175 OFFCURVE",
"509 127 CURVE SMOOTH",
"461 79 OFFCURVE",
"388 58 OFFCURVE",
"285 58 CURVE SMOOTH",
"140 58 LINE",
"140 348 LINE",
"376 348 LINE",
"376 393 LINE"
);
}
);
width = 685;
}
);
note = Dcroat;
unicode = 0110;
},
